<svg xmlns="http://www.w3.org/2000/svg" xmlns:xlink="http://www.w3.org/1999/xlink" width="338" zoomAndPan="magnify" viewBox="0 0 253.5 410.24999" height="547" preserveAspectRatio="xMidYMid meet" version="1.0"><defs><clipPath id="4c333d75c7"><path d="M 126.042969 0.03125 L 252.542969 0.03125 L 252.542969 408.722656 L 126.042969 408.722656 Z M 126.042969 0.03125 " clip-rule="nonzero"/></clipPath><clipPath id="b242e16ef0"><path d="M 0 0.03125 L 126.269531 0.03125 L 126.269531 408.722656 L 0 408.722656 Z M 0 0.03125 " clip-rule="nonzero"/></clipPath><clipPath id="66bfd6bc31"><path d="M 0 0.03125 L 126.269531 0.03125 L 126.269531 408.722656 L 0 408.722656 Z M 0 0.03125 " clip-rule="nonzero"/></clipPath><clipPath id="622b09db48"><rect x="0" width="127" y="0" height="409"/></clipPath></defs><g clip-path="url(#4c333d75c7)"><path fill="#b20f0f" d="M 252.542969 248.960938 L 181.441406 248.960938 L 181.441406 0.410156 L 126.277344 0.410156 L 126.277344 408.632812 Z M 252.542969 248.960938 " fill-opacity="1" fill-rule="nonzero"/></g><g clip-path="url(#b242e16ef0)"><g transform="matrix(1, 0, 0, 1, 0, 0.000000000000018194)"><g clip-path="url(#622b09db48)"><g clip-path="url(#66bfd6bc31)"><path fill="#ffffff" d="M 0 248.960938 L 71.101562 248.960938 L 71.101562 0.410156 L 126.269531 0.410156 L 126.269531 408.632812 Z M 0 248.960938 " fill-opacity="1" fill-rule="nonzero"/></g></g></g></g></svg>