<?xml version="1.0" encoding="UTF-8"?>
<svg version="1.1" xmlns="http://www.w3.org/2000/svg" width="577" height="482">
<path d="M0 0 C190.41 0 380.82 0 577 0 C577 159.06 577 318.12 577 482 C386.59 482 196.18 482 0 482 C0 322.94 0 163.88 0 0 Z " fill="#030202" transform="translate(0,0)"/>
<path d="M0 0 C1 1 1 1 1.2890625 3.60546875 C0.93462459 7.76771931 -0.59993958 10.75085656 -2.625 14.3125 C-2.98529297 14.96677979 -3.34558594 15.62105957 -3.71679688 16.29516602 C-6.54935606 21.37309236 -9.61558941 26.26951701 -13 31 C-12.20335937 31.10957031 -11.40671875 31.21914062 -10.5859375 31.33203125 C2.25321888 33.25321888 2.25321888 33.25321888 6 37 C6.81583172 46.07774663 0.02771642 52.84995675 -5.3125 59.625 C-22.24060872 79.7324997 -46.99223554 91.29422326 -73 94 C-74.66647433 94.02531936 -76.33365942 94.03296717 -78 94 C-77.91298828 94.91652344 -77.91298828 94.91652344 -77.82421875 95.8515625 C-77.40852162 104.28427563 -79.11106754 111.77326226 -81.22143555 119.90478516 C-84.01297177 130.07090225 -84.01297177 130.07090225 -81.92456055 140.01098633 C-78.45673796 144.36525824 -74.13426056 147.14775357 -69.3125 149.8125 C-68.57773437 150.23281494 -67.84296875 150.65312988 -67.0859375 151.08618164 C-61.62977584 154.17712482 -56.0703877 157.05958997 -50.5 159.9375 C-17.48436373 177.03301869 6.87669887 200.24488444 19.90625 235.50390625 C31.45138161 272.4070948 25.87324112 306.6145422 10 341 C10.79664063 341.24234375 11.59328125 341.4846875 12.4140625 341.734375 C20.74053789 344.36805335 26.9066672 346.54190554 32 354 C34.62724794 359.55052381 34.28391526 364.08183438 33 370 C29.70155548 379.16488218 24.94492446 385.49401891 16.5625 390.4375 C6.47240161 392.65239965 -0.56110841 389.18943334 -9 384 C-12.20599297 381.51557149 -15.15938872 378.89321519 -18 376 C-18.73089844 376.433125 -18.73089844 376.433125 -19.4765625 376.875 C-33.7229394 384.33492099 -48.44426405 378.33632545 -62.74072266 373.98779297 C-66.84660071 372.74341974 -70.96671736 371.55166201 -75.08837891 370.36083984 C-78.09355073 369.49101257 -81.09592006 368.61207376 -84.09765625 367.73046875 C-87.87426191 366.62173482 -91.65260332 365.51946749 -95.43359375 364.42578125 C-99.24106543 363.3243991 -103.04524831 362.21248463 -106.84765625 361.09375 C-110.87455996 359.9092612 -114.90491557 358.73905364 -118.94091797 357.5859375 C-123.52099396 356.27725118 -128.0957718 354.95116168 -132.66821289 353.61605835 C-134.51086804 353.08137889 -136.35528239 352.55272446 -138.20141602 352.03018188 C-140.80449592 351.2923354 -143.40055296 350.53340942 -145.99609375 349.76953125 C-146.7897081 349.54990723 -147.58332245 349.3302832 -148.40098572 349.10400391 C-150.59545898 348.44458008 -150.59545898 348.44458008 -154 347 C-154.7848053 345.03031921 -154.7848053 345.03031921 -155 343 C-149.72366185 334.16436934 -139.79497133 327.60200212 -130 325 C-125.66832475 324.42915908 -121.36568746 324.13685541 -117 324 C-118.24394531 323.56429688 -119.48789062 323.12859375 -120.76953125 322.6796875 C-150.11564954 312.24570877 -150.11564954 312.24570877 -158 299 C-158.32871094 299.68964844 -158.65742188 300.37929688 -158.99609375 301.08984375 C-165.61261813 314.16151388 -174.30240481 320.98661649 -187.92578125 326.09765625 C-200.2298886 329.70915409 -219.09181072 329.95409464 -231 324 C-231.07744987 320.28240629 -230.83816438 318.07827513 -228.52734375 315.10546875 C-223.06553056 309.93831986 -216.73189419 306.35775792 -210.24902344 302.65014648 C-201.70003648 297.74537847 -192.92166034 292.3998274 -188.6875 283.125 C-186.89166463 274.96211195 -188.77056803 268.58892884 -191.25 260.8125 C-198.77429379 235.81463753 -203.61713967 208.65773363 -196 183 C-195.50693359 181.205625 -195.50693359 181.205625 -195.00390625 179.375 C-189.63578518 161.54317913 -179.85077308 147.15048604 -168 133 C-169.03898437 132.64808594 -170.07796875 132.29617187 -171.1484375 131.93359375 C-183.45395245 127.63427228 -195.86948946 122.11443507 -202.09375 109.84375 C-203.99134212 104.85378555 -204.25343229 100.27413748 -204.0078125 94.96875 C-204.00523437 94.3190625 -204.00265625 93.669375 -204 93 C-204.495 92.505 -204.495 92.505 -205 92 C-205.49609375 89.27734375 -205.49609375 89.27734375 -205 86 C-202.98790313 83.75803795 -200.56932289 82.21015471 -198.0625 80.5625 C-196.67648916 79.60111647 -195.29107009 78.6388792 -193.90625 77.67578125 C-193.23207031 77.2163916 -192.55789063 76.75700195 -191.86328125 76.28369141 C-189.53590973 74.68026904 -187.29084511 72.98795226 -185.0625 71.25 C-184.36640625 70.70859375 -183.6703125 70.1671875 -182.953125 69.609375 C-180.98307652 67.98605505 -179.16305436 66.2572491 -177.3125 64.5 C-163.97327199 52.76886074 -144.58097278 48.60650533 -127.28125 48.78125 C-117.7151963 49.41898691 -108.69785348 52.051896 -100 56 C-99.73703125 55.26652344 -99.4740625 54.53304687 -99.203125 53.77734375 C-90.00294494 32.53926575 -61.71449888 12.96011935 -41.05419922 4.17236328 C-28.26637804 -0.86976576 -13.36021667 -4.63517721 0 0 Z " fill="#E7E6E2" transform="translate(522,36)"/>
<path d="M0 0 C1 1 1 1 1.5 3.875 C1.29431403 13.95361272 -9.43368061 23.1694424 -16 30 C-14.86820313 30.40992188 -13.73640625 30.81984375 -12.5703125 31.2421875 C-11.088435 31.78616785 -9.60666996 32.33045463 -8.125 32.875 C-7.37863281 33.14441406 -6.63226563 33.41382813 -5.86328125 33.69140625 C-0.2265625 35.7734375 -0.2265625 35.7734375 2 38 C2.73225245 41.33581673 2.44809514 43.29638994 0.609375 46.18359375 C-1.1986487 48.51437212 -3.08080872 50.76026726 -5 53 C-6.11375 54.485 -6.11375 54.485 -7.25 56 C-22.68852272 74.14527671 -47.34066711 83.67997316 -70.55859375 85.8828125 C-76.03535807 86.14569719 -81.51901274 86.07016911 -87 86 C-87.08999268 86.71760498 -87.17998535 87.43520996 -87.27270508 88.17456055 C-88.59453116 97.3797901 -91.56901187 105.47645847 -94.98632812 114.08398438 C-98.00080773 121.91545238 -98.00080773 121.91545238 -97 130 C-91.42384244 140.38318994 -79.44626315 146.41358608 -69.93774414 152.90869141 C-60.07016506 159.66348815 -50.69076792 166.75898263 -42 175 C-41.52030762 175.44714355 -41.04061523 175.89428711 -40.54638672 176.35498047 C-17.16962546 198.24392471 -5.21042737 228.14629949 -3.71875 259.96875 C-2.86831297 290.24018847 -12.87849912 316.7509474 -29 342 C-28.195625 342.04125 -27.39125 342.0825 -26.5625 342.125 C-18.80550727 344.03022628 -12.44534054 349.4431227 -8 356 C-5.86006147 362.4198156 -7.13671762 367.48929645 -9.734375 373.5078125 C-13.35046781 380.62839031 -18.33330725 386.35133655 -25.3125 390.3125 C-32.53925511 392.1612048 -37.98333728 391.20228236 -44.5078125 387.625 C-50.52013554 383.70473921 -55.8043818 378.83738185 -60 373 C-63.60992379 373.65585189 -63.60992379 373.65585189 -67 375 C-82.7497269 376.99076548 -96.84827072 369.18835322 -110.80957031 362.9440918 C-120.98633797 358.40094523 -131.24881128 354.07066971 -141.52270508 349.75231934 C-147.36546235 347.29472004 -153.20360624 344.82617996 -159.04223633 342.35879517 C-163.17877685 340.61123192 -167.31612414 338.86583582 -171.45898438 337.13330078 C-175.06293274 335.6258406 -178.65721632 334.09640043 -182.25 332.5625 C-183.25998047 332.14484375 -184.26996094 331.7271875 -185.31054688 331.296875 C-186.20322266 330.91144531 -187.09589844 330.52601563 -188.015625 330.12890625 C-188.77133789 329.80994385 -189.52705078 329.49098145 -190.30566406 329.16235352 C-192 328 -192 328 -192.74902344 325.86694336 C-192.87325684 324.9428064 -192.87325684 324.9428064 -193 324 C-186.39521869 317.4278349 -177.6867289 310.4185887 -167.9152832 309.88647461 C-167.13499756 309.89171143 -166.35471191 309.89694824 -165.55078125 309.90234375 C-164.70322266 309.90556641 -163.85566406 309.90878906 -162.98242188 309.91210938 C-162.10134766 309.92048828 -161.22027344 309.92886719 -160.3125 309.9375 C-159.41982422 309.94201172 -158.52714844 309.94652344 -157.60742188 309.95117188 C-155.40488013 309.96295017 -153.20247401 309.97939836 -151 310 C-151.61343262 309.78577393 -152.22686523 309.57154785 -152.85888672 309.35083008 C-165.19818905 304.93651507 -181.76925241 296.40924567 -188.33984375 284.58984375 C-189.1875 282.375 -189.1875 282.375 -190 279 C-190.40089844 279.6290625 -190.80179687 280.258125 -191.21484375 280.90625 C-198.96424609 292.57428436 -208.05467027 300.06461052 -221.875 303.3125 C-231.27812242 304.83055895 -240.05104686 304.24140299 -249.3125 302.25 C-250.05306641 302.09321777 -250.79363281 301.93643555 -251.55664062 301.77490234 C-256.82800509 300.54436673 -261.23362422 298.56361002 -266 296 C-265.88931133 292.2365853 -264.99090889 290.99060139 -262.34375 288.25390625 C-256.28010912 283.23550758 -248.73084312 280.39765316 -241.60913086 277.17993164 C-228.47876409 271.2396653 -228.47876409 271.2396653 -219 260.6875 C-217.00590047 253.33425797 -217.97981065 246.2915391 -219.42382812 238.90893555 C-223.797716 216.35190619 -224.65674163 191.17893685 -218 169 C-217.79101074 168.29681641 -217.58202148 167.59363281 -217.36669922 166.86914062 C-212.84802245 152.28752299 -204.99358692 139.48402627 -195 128 C-194.23300781 127.11183594 -193.46601563 126.22367188 -192.67578125 125.30859375 C-189.00042414 121.13508906 -185.42391242 117.39347397 -181 114 C-181.90621094 113.57589844 -182.81242187 113.15179688 -183.74609375 112.71484375 C-194.88676818 107.39575387 -206.77083016 101.05836003 -211.875 89.125 C-213.8745301 83.06759999 -213.34394048 77.14372793 -212 71 C-212.33 70.67 -212.66 70.34 -213 70 C-213.04092937 67.66702567 -213.04241723 65.33294775 -213 63 C-212.4016333 62.68361572 -211.8032666 62.36723145 -211.18676758 62.04125977 C-197.16851972 54.69716775 -197.16851972 54.69716775 -183.9375 46.0625 C-171.85938977 37.35869211 -158.26099741 34.60204501 -143.625 34.6875 C-142.61203857 34.69313965 -141.59907715 34.6987793 -140.55541992 34.70458984 C-129.11101165 34.8904982 -120.5827229 37.25168869 -110.59375 42.890625 C-108.14909711 44.14866857 -108.14909711 44.14866857 -105.90625 43.94921875 C-103.25603594 42.62954248 -101.87984171 40.84465631 -100 38.5625 C-77.50407697 12.89967518 -34.97761642 -10.86606224 0 0 Z " fill="#E7E6E2" transform="translate(280,44)"/>
</svg>
