<?xml version="1.0" encoding="UTF-8"?>
<svg version="1.1" xmlns="http://www.w3.org/2000/svg" width="605" height="440">
<path d="M0 0 C199.65 0 399.3 0 605 0 C605 145.2 605 290.4 605 440 C405.35 440 205.7 440 0 440 C0 294.8 0 149.6 0 0 Z " fill="#030202" transform="translate(0,0)"/>
<path d="M0 0 C29.82518516 0.0838357 52.58517378 17.8573129 73 37.9609375 C85.7697955 50.93537716 85.7697955 50.93537716 89.4375 58.4375 C93.04705034 57.49901691 96.0722525 56.63178058 99.375 54.875 C103.08273618 53.13463404 106.40680748 52.66476956 110.4375 52.4375 C111.32824219 52.37304688 112.21898437 52.30859375 113.13671875 52.2421875 C130.39886994 51.57910871 149.84804329 55.8657275 163.4921875 66.91015625 C165.39054141 68.6954503 167.26281928 70.5088375 169.109375 72.34765625 C175.29605926 78.33928263 182.66242674 83.10879798 189.65673828 88.09985352 C191.4375 89.4375 191.4375 89.4375 193.4375 91.4375 C193.61456497 94.49126431 193.14728241 97.52652797 192.8125 100.5625 C192.70615234 101.80773437 192.70615234 101.80773437 192.59765625 103.078125 C191.59172325 112.65700942 188.02891669 118.66309397 180.7265625 124.8984375 C175.42557341 129.16086547 169.69973994 131.853975 163.4375 134.4375 C162.56480469 134.81390625 161.69210938 135.1903125 160.79296875 135.578125 C158.4375 136.4375 158.4375 136.4375 155.4375 136.4375 C156.15035156 137.39269531 156.86320313 138.34789062 157.59765625 139.33203125 C177.4375 166.04418318 177.4375 166.04418318 177.4375 176.4375 C178.0975 176.4375 178.7575 176.4375 179.4375 176.4375 C183.16097038 189.1105974 184.935814 201.25666662 184.875 214.4375 C184.87242187 215.71117432 184.86984375 216.98484863 184.8671875 218.29711914 C184.69593004 229.30255155 183.58986665 240.18944588 180.625 250.8125 C180.28339844 252.05644531 179.94179687 253.30039062 179.58984375 254.58203125 C178.82051517 257.23239187 177.97043036 259.84186939 177.06640625 262.44921875 C173.79174946 271.97925079 170.591957 282.1773054 175 291.875 C175.804375 292.720625 176.60875 293.56625 177.4375 294.4375 C177.90099854 294.95070801 178.36449707 295.46391602 178.84204102 295.99267578 C183.58870724 301.04583564 188.84825439 304.40295702 194.8125 307.875 C213.28526671 318.64190797 213.28526671 318.64190797 215.5 325.9375 C215.479375 326.7625 215.45875 327.5875 215.4375 328.4375 C201.70590316 334.37953645 182.2729674 334.8082147 168.2265625 329.6875 C155.97041988 324.19455093 147.64299787 314.73189196 142.4375 302.4375 C142.10878906 302.94539063 141.78007812 303.45328125 141.44140625 303.9765625 C138.06203992 308.86702759 134.65167536 312.01162772 129.5859375 315.11328125 C127.43235041 316.38042161 127.43235041 316.38042161 125.60107422 317.90625 C123.32001933 319.52064588 121.31142568 320.36494833 118.671875 321.26171875 C117.78242188 321.56787109 116.89296875 321.87402344 115.9765625 322.18945312 C114.59597656 322.65254883 114.59597656 322.65254883 113.1875 323.125 C112.25164062 323.44533203 111.31578125 323.76566406 110.3515625 324.09570312 C108.04899997 324.88280358 105.74437221 325.66314083 103.4375 326.4375 C104.19933594 326.60765625 104.96117187 326.7778125 105.74609375 326.953125 C118.7121207 329.99633732 130.75312184 334.91093277 138.4375 346.4375 C138.26953125 348.5234375 138.26953125 348.5234375 137.4375 350.4375 C134.41684565 351.70068273 131.58930527 352.58338483 128.4375 353.4375 C127.19742188 353.78425781 125.95734375 354.13101562 124.6796875 354.48828125 C122.47935933 355.10286364 120.27825027 355.71401606 118.07495117 356.31787109 C111.46333798 358.13203732 104.88807762 360.05983507 98.3125 362 C90.33849414 364.3454061 82.35741117 366.51983045 74.28125 368.48046875 C70.02020518 369.54139962 65.79121644 370.69295365 61.5625 371.875 C60.81468262 372.08382813 60.06686523 372.29265625 59.29638672 372.5078125 C55.45791563 373.58307916 51.62267682 374.66927552 47.7890625 375.76171875 C15.70921557 384.86349005 15.70921557 384.86349005 7.125 380.4375 C6.51011719 380.06625 5.89523438 379.695 5.26171875 379.3125 C3.17360681 378.14918001 3.17360681 378.14918001 -0.5625 378.4375 C-2.50102812 379.78456801 -2.50102812 379.78456801 -4.3125 381.625 C-12.43335513 389.09436862 -18.62744487 391.79176044 -29.65625 391.64453125 C-35.13682584 391.25411389 -38.10901641 389.12914653 -41.6875 385.1875 C-48.12881464 377.14428774 -51.55064952 368.81306991 -50.5625 358.4375 C-47.69004417 350.81384696 -42.08781323 347.48632477 -35.0390625 344.26953125 C-31.91456077 343.21981695 -28.82796503 342.83078593 -25.5625 342.4375 C-25.81418945 341.89448242 -26.06587891 341.35146484 -26.32519531 340.79199219 C-32.77223507 326.82833046 -38.39369817 313.76942579 -40.5625 298.4375 C-40.73072266 297.5108252 -40.89894531 296.58415039 -41.07226562 295.62939453 C-43.52339207 279.67021768 -42.2433908 262.83235555 -37.5625 247.4375 C-37.32112305 246.60557129 -37.07974609 245.77364258 -36.83105469 244.91650391 C-31.70659488 227.4449966 -24.85124356 212.06057298 -12.5625 198.4375 C-11.53576172 197.19806641 -11.53576172 197.19806641 -10.48828125 195.93359375 C-1.03988198 184.77365451 10.8659399 176.72209576 23.4375 169.4375 C25.10232422 168.45330078 25.10232422 168.45330078 26.80078125 167.44921875 C32.95327412 163.86084522 39.17291681 160.52154109 45.5625 157.375 C60.16816223 150.93347302 60.16816223 150.93347302 70.4375 139.4375 C70.67471962 133.70677339 70.11448795 128.43658942 69.0625 122.8125 C68.93617188 122.08804688 68.80984375 121.36359375 68.6796875 120.6171875 C68.09456042 117.38728603 67.43137067 114.41998763 66.34375 111.3125 C65.32451825 108.07907514 65.23738987 105.4424557 65.3125 102.0625 C65.33054687 101.00289063 65.34859375 99.94328125 65.3671875 98.8515625 C65.39039062 98.05492188 65.41359375 97.25828125 65.4375 96.4375 C64.32375 96.47875 63.21 96.52 62.0625 96.5625 C52.76007814 96.52985992 44.09669986 93.59634077 35.4375 90.4375 C34.468125 90.08945313 33.49875 89.74140625 32.5 89.3828125 C10.57046655 80.92594455 -4.29569534 65.34449608 -16.56640625 45.69140625 C-17.74749864 43.01889523 -17.97151649 41.32882344 -17.5625 38.4375 C-15.9179096 35.91390438 -14.74309859 35.48560817 -11.8203125 34.70703125 C-10.78648438 34.55621094 -9.75265625 34.40539063 -8.6875 34.25 C-7.65882812 34.09144531 -6.63015625 33.93289062 -5.5703125 33.76953125 C-2.86368225 33.47074739 -0.28075299 33.41310174 2.4375 33.4375 C2.11998779 32.89859131 1.80247559 32.35968262 1.4753418 31.80444336 C0.02096607 29.33043963 -1.42704831 26.85276853 -2.875 24.375 C-3.37451172 23.52744141 -3.87402344 22.67988281 -4.38867188 21.80664062 C-12.37307656 8.1115359 -12.37307656 8.1115359 -11.5625 2.4375 C-8.3273698 -0.7976302 -4.40618599 0.00888656 0 0 Z " fill="#B10E0E" transform="translate(62.5625,15.5625)"/>
<path d="M0 0 C1.05832031 0.62261719 2.11664063 1.24523437 3.20703125 1.88671875 C15.54084102 9.45639599 28.1214547 18.45789111 37 30 C40.31044801 28.73749171 43.34501107 27.28293145 46.4375 25.5625 C64.09103812 16.80053835 85.60423154 18.23615273 103.89550781 24.21289062 C108.80944308 26.05077082 112.81119268 28.91115429 117 32 C119.11205539 33.35374473 121.23786361 34.68620747 123.375 36 C124.45136719 36.66257813 125.52773438 37.32515625 126.63671875 38.0078125 C131.15157755 40.68211911 135.76304544 43.13435253 140.41796875 45.5546875 C143 47 143 47 145 49 C146.37543358 58.37267567 146.87190706 70.88918268 141.59765625 79.04296875 C141.07042969 79.68878906 140.54320312 80.33460938 140 81 C139.44183594 81.69738281 138.88367188 82.39476562 138.30859375 83.11328125 C131.81984676 90.30644336 123.20792923 95.18570709 114 98 C117.76387557 102.46181276 121.65145895 106.65533815 125.875 110.6875 C135.80785181 120.57520248 142.26615836 132.3634819 148 145 C148.41121094 145.89847656 148.82242188 146.79695312 149.24609375 147.72265625 C158.87291539 171.35893817 160.07313698 204.78058905 152 229 C151.35465757 236.73352973 151.09662753 243.6859463 156 250 C161.81666797 255.41765756 168.03050546 258.64403126 175.375 261.5 C195.11119293 269.554248 195.11119293 269.554248 200 276 C200.1875 278.6875 200.1875 278.6875 200 281 C197.14827038 281.98678898 194.29395658 282.96456818 191.4375 283.9375 C190.63763672 284.21529297 189.83777344 284.49308594 189.01367188 284.77929688 C176.14088518 289.14028175 157.94210539 290.85677562 145.28125 284.671875 C138.61265967 280.78840181 133.23446864 276.72514453 128.75 270.375 C128.06421875 269.41335938 127.3784375 268.45171875 126.671875 267.4609375 C125 265 125 265 124 263 C123.814375 263.8353125 123.814375 263.8353125 123.625 264.6875 C120.02791276 277.99672281 107.2770363 284.20979057 96.09765625 290.6796875 C94.07639823 291.81005928 92.04914594 292.92121682 90 294 C90.89460937 294.02578125 91.78921875 294.0515625 92.7109375 294.078125 C104.96123162 294.65276566 113.16436228 297.82419427 123 305 C123.74507812 305.45246094 124.49015625 305.90492188 125.2578125 306.37109375 C127 308 127 308 127.10888672 310.60180664 C127.0729541 311.39321045 127.03702148 312.18461426 127 313 C126.03328369 313.42071777 125.06656738 313.84143555 124.07055664 314.27490234 C104.91025932 322.61479736 85.7581351 330.9729568 66.625 339.375 C65.76539673 339.75235291 64.90579346 340.12970581 64.0201416 340.51849365 C55.70013121 344.17101323 47.38190193 347.82732959 39.07421875 351.5078125 C37.33180908 352.27859131 37.33180908 352.27859131 35.55419922 353.06494141 C33.47793382 353.98407742 31.40264413 354.90542261 29.32861328 355.82958984 C22.13746122 359.01200761 16.31436478 361.28184822 8.3125 361.25 C7.00925781 361.25515625 5.70601563 361.2603125 4.36328125 361.265625 C1 361 1 361 -2 359 C-4.67213153 359.19462375 -5.73809913 359.7387227 -7.640625 361.63671875 C-8.17171875 362.31347656 -8.7028125 362.99023438 -9.25 363.6875 C-14.7912872 370.29441935 -21.82232669 376.35816381 -30.70703125 377.28125 C-35.9243799 377.44887566 -39.89703087 377.5331123 -44 374 C-44.52851563 373.57074219 -45.05703125 373.14148438 -45.6015625 372.69921875 C-51.72204589 367.26627864 -56.60376382 359.6415489 -58.578125 351.6640625 C-58.8613206 346.54631343 -56.99755005 342.02896512 -54 338 C-48.74084384 332.74084384 -43.18086362 329.78248388 -36 328 C-36.8353125 326.7625 -36.8353125 326.7625 -37.6875 325.5 C-46.94269756 311.57738978 -55.60147055 296.48004789 -58.49609375 279.81640625 C-58.86938879 277.73000531 -59.30959605 275.65533657 -59.78515625 273.58984375 C-61.54428031 265.54696489 -62.28884492 257.86531712 -62.3125 249.625 C-62.32047607 248.27100098 -62.32047607 248.27100098 -62.32861328 246.88964844 C-62.27214991 241.48699562 -61.64559327 236.4762843 -60.48364258 231.20166016 C-59.91377519 228.60748344 -59.54908773 226.00545137 -59.1875 223.375 C-55.98974922 204.50105742 -47.93485011 186.23342758 -35 172 C-34.30390625 171.18660156 -33.6078125 170.37320313 -32.890625 169.53515625 C-21.0972765 155.96444139 -7.00524628 145.54425418 7.67700195 135.34130859 C21.01930139 127.05420279 21.01930139 127.05420279 30 115 C30.813415 108.28499956 28.41551366 102.68993484 26.125 96.5 C19.67339537 78.69539499 19.67339537 78.69539499 20 72 C19.27039063 72.02320312 18.54078125 72.04640625 17.7890625 72.0703125 C-0.8538155 72.39253508 -19.50071171 70.19632462 -36 61 C-36.86882812 60.58234375 -37.73765625 60.1646875 -38.6328125 59.734375 C-50.9654569 53.62075641 -62.3866423 42.42003654 -70 31 C-70.07905064 28.66800612 -70.08798769 26.33167378 -70 24 C-63.9394075 20.63438409 -58.96050253 18.38669459 -52 18 C-52.58394531 17.37738281 -52.58394531 17.37738281 -53.1796875 16.7421875 C-57.17837463 12.33810351 -60.84328375 7.71899836 -64.375 2.9375 C-64.81569824 2.3604834 -65.25639648 1.7834668 -65.71044922 1.18896484 C-68.67445503 -2.89768276 -69.65312322 -5.95743937 -70 -11 C-49.76752187 -24.29562848 -18.23504456 -10.90531551 0 0 Z " fill="#B10E0E" transform="translate(395,52)"/>
<path d="M0 0 C0 0.66 0 1.32 0 2 C2.97 2.495 2.97 2.495 6 3 C6 3.33 6 3.66 6 4 C1.71 4 -2.58 4 -7 4 C-2 0 -2 0 0 0 Z " fill="#270404" transform="translate(490,343)"/>
</svg>
