<?xml version="1.0" encoding="UTF-8"?>
<svg version="1.1" xmlns="http://www.w3.org/2000/svg" width="397" height="829">
<path d="M0 0 C131.01 0 262.02 0 397 0 C397 273.57 397 547.14 397 829 C265.99 829 134.98 829 0 829 C0 555.43 0 281.86 0 0 Z " fill="#030202" transform="translate(0,0)"/>
<path d="M0 0 C131.01 0 262.02 0 397 0 C397 0.99 397 1.98 397 3 C305.26 3 213.52 3 119 3 C119.99 4.485 119.99 4.485 121 6 C121.15112305 8.20483398 121.15112305 8.20483398 121.01171875 10.74609375 C120.96466797 11.66583984 120.91761719 12.58558594 120.86914062 13.53320312 C120.80919922 14.49162109 120.74925781 15.45003906 120.6875 16.4375 C120.63916016 17.39205078 120.59082031 18.34660156 120.54101562 19.33007812 C120.14273408 26.53443676 120.14273408 26.53443676 119.35083008 29.11743164 C118.71286876 31.32519477 118.71286876 31.32519477 121 34 C121.125 36.6875 121.125 36.6875 121 39 C118.10765685 39.82638376 116.11257569 40 113 40 C113 40.66 113 41.32 113 42 C111.35 41.67 109.7 41.34 108 41 C108 39.68 108 38.36 108 37 C106.35 37.66 104.7 38.32 103 39 C102 38 102 38 101.8125 35.625 C102 33 102 33 104 30 C104.99 30 105.98 30 107 30 C106.505 29.01 106.505 29.01 106 28 C105.51500955 19.43183536 105.7709425 9.97207667 111 3 C74.37 3 37.74 3 0 3 C0 2.01 0 1.02 0 0 Z " fill="#101217" transform="translate(0,0)"/>
<path d="M0 0 C3.5 0.4375 3.5 0.4375 5.18676758 1.66821289 C6.87462312 3.9422209 6.92379462 5.36758676 7.01171875 8.18359375 C7.06489258 9.56321289 7.06489258 9.56321289 7.11914062 10.97070312 C7.14169922 11.92912109 7.16425781 12.88753906 7.1875 13.875 C7.23874023 15.30682617 7.23874023 15.30682617 7.29101562 16.76757812 C7.42450865 20.66067062 7.5 24.54175257 7.5 28.4375 C8.16 29.0975 8.82 29.7575 9.5 30.4375 C9.125 34.0625 9.125 34.0625 8.5 37.4375 C4.08774263 38.90825246 1.01718381 39.80634358 -3.5 38.4375 C-3.5 37.4475 -3.5 36.4575 -3.5 35.4375 C-6.47 35.9325 -6.47 35.9325 -9.5 36.4375 C-9.5 34.1275 -9.5 31.8175 -9.5 29.4375 C-8.18 28.7775 -6.86 28.1175 -5.5 27.4375 C-6.16 26.4475 -6.82 25.4575 -7.5 24.4375 C-7.786718 21.12435673 -7.497961 17.81716954 -7.3125 14.5 C-7.28091797 13.59314453 -7.24933594 12.68628906 -7.21679688 11.75195312 C-7.17232422 10.87603516 -7.12785156 10.00011719 -7.08203125 9.09765625 C-7.04311768 8.29980713 -7.0042041 7.50195801 -6.96411133 6.67993164 C-6.03596629 2.19544337 -4.5262052 0.56577565 0 0 Z " fill="#DDDCD8" transform="translate(327.5,446.5625)"/>
<path d="M0 0 C3.0093377 0.5266341 4.28086776 1.35336545 6.5 3.4375 C7.07763672 5.65820312 7.07763672 5.65820312 7.1796875 8.21875 C7.2209375 9.14300781 7.2621875 10.06726563 7.3046875 11.01953125 C7.32789063 11.98246094 7.35109375 12.94539063 7.375 13.9375 C7.42140625 14.90042969 7.4678125 15.86335938 7.515625 16.85546875 C7.77557664 24.02413504 7.77557664 24.02413504 5.5 27.4375 C6.16 27.994375 6.82 28.55125 7.5 29.125 C9.5 31.4375 9.5 31.4375 9.75 34.1875 C9.6675 34.93 9.585 35.6725 9.5 36.4375 C6.48968256 37.37173645 5.63349732 37.48199911 2.5 36.4375 C1.84 37.7575 1.18 39.0775 0.5 40.4375 C-2.5 39.4375 -2.5 39.4375 -4.5 37.4375 C-7.07061311 36.78982207 -7.07061311 36.78982207 -9.5 36.4375 C-9.625 33.5625 -9.625 33.5625 -9.5 30.4375 C-8.84 29.7775 -8.18 29.1175 -7.5 28.4375 C-7.29359548 26.20742253 -7.29359548 26.20742253 -7.4375 23.625 C-7.50116948 19.23759369 -7.47262737 14.88328547 -7.25 10.5 C-7.20359375 9.43910156 -7.1571875 8.37820313 -7.109375 7.28515625 C-6.21508662 3.10607785 -4.27298911 0.74777309 0 0 Z " fill="#D9D8D4" transform="translate(353.5,446.5625)"/>
<path d="M0 0 C3.4375 0.5625 3.4375 0.5625 5.375 1.6875 C7.04608305 4.63647009 7.00893254 6.19739728 6.4375 9.5625 C5.07637753 11.70690993 3.56463472 13.63661042 1.9609375 15.60546875 C0.03933205 18.07399267 -1.19357393 20.7594609 -2.5625 23.5625 C-3.3359375 24.243125 -3.3359375 24.243125 -4.125 24.9375 C-6.54420366 27.67225197 -6.81146393 31.03840766 -7.5625 34.5625 C-10.0375 35.0575 -10.0375 35.0575 -12.5625 35.5625 C-13.2225 34.5725 -13.8825 33.5825 -14.5625 32.5625 C-15.0575 33.0575 -15.0575 33.0575 -15.5625 33.5625 C-17.22867115 33.60313832 -18.89638095 33.605221 -20.5625 33.5625 C-20.2325 31.5825 -19.9025 29.6025 -19.5625 27.5625 C-21.2125 27.2325 -22.8625 26.9025 -24.5625 26.5625 C-24.00545272 23.33162579 -23.23062465 21.53888863 -20.5625 19.5625 C-19.2425 19.5625 -17.9225 19.5625 -16.5625 19.5625 C-16.48 19.005625 -16.3975 18.44875 -16.3125 17.875 C-15.32354459 14.82572081 -13.71492534 12.91060037 -11.5625 10.5625 C-10.9025 10.5625 -10.2425 10.5625 -9.5625 10.5625 C-9.19125 9.758125 -9.19125 9.758125 -8.8125 8.9375 C-8.4 8.15375 -7.9875 7.37 -7.5625 6.5625 C-7.005625 5.49 -6.44875 4.4175 -5.875 3.3125 C-3.5625 0.5625 -3.5625 0.5625 0 0 Z " fill="#DEDDD9" transform="translate(354.5625,656.4375)"/>
<path d="M0 0 C3.44736767 1.46302921 6.71113839 3.21385402 10 5 C11.134375 5.556875 12.26875 6.11375 13.4375 6.6875 C16 8 16 8 19 10 C19.33 9.67 19.66 9.34 20 9 C22.4375 8.8125 22.4375 8.8125 25 9 C27 11 27 11 27.1953125 13.6015625 C27.17210937 14.59929687 27.14890625 15.59703125 27.125 16.625 C27.10695312 17.62789062 27.08890625 18.63078125 27.0703125 19.6640625 C27.04710937 20.43492187 27.02390625 21.20578125 27 22 C25.35 22.33 23.7 22.66 22 23 C22 24.32 22 25.64 22 27 C20.3125 27.75 20.3125 27.75 18 28 C15.25 26.25 15.25 26.25 13 24 C13 23.01 13 22.02 13 21 C11.7625 20.938125 11.7625 20.938125 10.5 20.875 C6.4013089 19.85032722 4.27221631 18.0974258 1.03125 15.4921875 C-0.92447066 14.05548501 -2.69159396 13.1428397 -4.9375 12.25 C-8 11 -8 11 -9 9 C-9.44720497 3.74534161 -9.44720497 3.74534161 -7.875 1.125 C-4.94741601 -0.63155039 -3.41035017 -0.49605093 0 0 Z " fill="#E0DFDC" transform="translate(216,170)"/>
<path d="M0 0 C3.375 0.3125 3.375 0.3125 7 1 C9.36086122 4.54129184 9.57269578 5.82750218 9 10 C6.8125 12.8125 6.8125 12.8125 5.4296875 14.28515625 C3.22205777 16.93310557 1.82347459 19.96469529 0.30859375 23.046875 C-1.20782251 25.31018285 -2.49937705 26.00609489 -5 27 C-4.6596875 28.11375 -4.6596875 28.11375 -4.3125 29.25 C-4 32 -4 32 -5.4375 34.3125 C-5.953125 34.869375 -6.46875 35.42625 -7 36 C-8.32 35.67 -9.64 35.34 -11 35 C-11 34.01 -11 33.02 -11 32 C-11.99 32.66 -12.98 33.32 -14 34 C-16.1875 33.625 -16.1875 33.625 -18 33 C-18 31.35 -18 29.7 -18 28 C-19.32 27.67 -20.64 27.34 -22 27 C-21.6875 24.625 -21.6875 24.625 -21 22 C-18 20 -18 20 -14 20 C-13.979375 19.319375 -13.95875 18.63875 -13.9375 17.9375 C-12.73954289 14.18390106 -10.75072015 12.56756601 -7.921875 9.9140625 C-4.89594092 6.90042896 -2.46503736 3.47633474 0 0 Z " fill="#E2E1DD" transform="translate(331,641)"/>
<path d="M0 0 C3.92631625 1.20193355 4.7138041 2.59238766 7.0625 5.9375 C8.25887447 7.32291784 9.46811485 8.69729148 10.6875 10.0625 C16.0625 16.09470524 16.0625 16.09470524 16.0625 19.9375 C17.01125 20.06125 17.96 20.185 18.9375 20.3125 C22.0625 20.9375 22.0625 20.9375 24.0625 22.9375 C23.6875 25.5625 23.6875 25.5625 23.0625 27.9375 C22.0725 27.9375 21.0825 27.9375 20.0625 27.9375 C20.0625 29.5875 20.0625 31.2375 20.0625 32.9375 C18.25 33.5625 18.25 33.5625 16.0625 33.9375 C15.0725 33.2775 14.0825 32.6175 13.0625 31.9375 C12.7325 33.2575 12.4025 34.5775 12.0625 35.9375 C9.19525314 35.36405063 8.2010485 35.0760485 6.0625 32.9375 C5.93875 31.82375 5.815 30.71 5.6875 29.5625 C4.96218787 25.35568967 4.06743303 24.77072258 1.0625 21.9375 C-0.02473466 19.95613027 -0.96837316 17.93333364 -1.91796875 15.8828125 C-2.95930901 13.69971124 -2.95930901 13.69971124 -5.25 11.375 C-6.9375 8.9375 -6.9375 8.9375 -6.875 5.25 C-5.66995284 0.99216669 -4.46802381 -0.09506434 0 0 Z " fill="#E1E0DC" transform="translate(117.9375,120.0625)"/>
<path d="M0 0 C2.16796875 1.375 2.16796875 1.375 4 4 C4.38375894 7.5302734 4.09760922 10.96847905 3.8125 14.5 C3.75513672 15.45003906 3.69777344 16.40007813 3.63867188 17.37890625 C3.17932457 24.40247472 3.17932457 24.40247472 2.34643555 27.17773438 C2.23211182 27.77908203 2.11778809 28.38042969 2 29 C2.66 29.66 3.32 30.32 4 31 C4.125 34.125 4.125 34.125 4 37 C1.50935112 37.68707555 -0.37886292 38 -3 38 C-5.15028304 38.94978897 -5.15028304 38.94978897 -7 40 C-7.66 39.34 -8.32 38.68 -9 38 C-9 36.68 -9 35.36 -9 34 C-9.99 34.66 -10.98 35.32 -12 36 C-12.99 36 -13.98 36 -15 36 C-15.25 30.375 -15.25 30.375 -13 27 C-12.01 27 -11.02 27 -10 27 C-10.66 26.01 -11.32 25.02 -12 24 C-12.02048149 20.55228179 -11.55037297 17.10074594 -10 14 C-9.87273355 12.37664577 -9.77194369 10.7511442 -9.6875 9.125 C-9.36984212 5.74316537 -9.16601165 4.24901747 -7.25 1.375 C-4.48299998 -0.31594446 -3.18464612 -0.63692922 0 0 Z " fill="#DDDCD8" transform="translate(143,6)"/>
<path d="M0 0 C3.44736767 1.46302921 6.71113839 3.21385402 10 5 C11.134375 5.556875 12.26875 6.11375 13.4375 6.6875 C16 8 16 8 19 10 C19.99 9.814375 20.98 9.62875 22 9.4375 C23.485 9.2209375 23.485 9.2209375 25 9 C26.875 10.4375 26.875 10.4375 28 12 C27.67 12.61875 27.34 13.2375 27 13.875 C25.81101749 16.40158783 25.83477904 17.39418982 26.5625 20.0625 C26.706875 20.701875 26.85125 21.34125 27 22 C26 23 26 23 23.4375 23.0625 C22.633125 23.041875 21.82875 23.02125 21 23 C21 24.65 21 26.3 21 28 C18.25851328 27.62952882 16.41406801 27.31412056 14.1875 25.625 C13 24 13 24 13 21 C12.25492188 21.05800781 11.50984375 21.11601562 10.7421875 21.17578125 C7.520304 20.96925026 6.54469559 20.2507674 4.125 18.1875 C1.52634106 16.09085472 -0.75913242 14.51989869 -3.875 13.3125 C-7 12 -7 12 -9 9 C-9.32502803 5.87973093 -9.51151479 3.85252465 -7.875 1.125 C-4.94741601 -0.63155039 -3.41035017 -0.49605093 0 0 Z " fill="#E0DFDB" transform="translate(204,193)"/>
<path d="M0 0 C3.375 0.8125 3.375 0.8125 5.375 2.8125 C5.75 6.25 5.75 6.25 5.375 9.8125 C3.34105642 12.00290078 1.24592229 12.87560466 -1.4375 14.1875 C-4.00996073 15.49895057 -5.93286686 16.76001138 -8.1875 18.5 C-10.61541242 20.30205055 -11.45406754 20.7943157 -14.5625 21.125 C-15.243125 21.021875 -15.92375 20.91875 -16.625 20.8125 C-16.7796875 21.988125 -16.7796875 21.988125 -16.9375 23.1875 C-17.625 25.8125 -17.625 25.8125 -20.625 27.8125 C-21.945 27.8125 -23.265 27.8125 -24.625 27.8125 C-24.625 26.1625 -24.625 24.5125 -24.625 22.8125 C-26.275 22.8125 -27.925 22.8125 -29.625 22.8125 C-30.25 20.9375 -30.25 20.9375 -30.625 18.8125 C-29.965 18.1525 -29.305 17.4925 -28.625 16.8125 C-29.615 15.8225 -30.605 14.8325 -31.625 13.8125 C-30.890625 11.84375 -30.890625 11.84375 -29.625 9.8125 C-27.671875 9.34375 -27.671875 9.34375 -25.375 9.3125 C-20.75221012 9.00972942 -18.41227718 7.52945972 -14.625 4.8125 C-12.29626625 4.12994011 -9.96317209 3.46199225 -7.625 2.8125 C-6.635 1.9771875 -6.635 1.9771875 -5.625 1.125 C-3.625 -0.1875 -3.625 -0.1875 0 0 Z " fill="#E0DFDB" transform="translate(259.625,706.1875)"/>
<path d="M0 0 C1.670625 0.061875 1.670625 0.061875 3.375 0.125 C3.890625 1.07375 4.40625 2.0225 4.9375 3 C7.27733463 7.15595176 10.10080429 10.90305354 12.984375 14.6953125 C14.55059505 17.43179809 14.66184225 19.02489722 14.375 22.125 C14.973125 22.24875 15.57125 22.3725 16.1875 22.5 C18.375 23.125 18.375 23.125 21.375 25.125 C21.5625 27.75 21.5625 27.75 21.375 30.125 C20.055 30.455 18.735 30.785 17.375 31.125 C17.045 32.775 16.715 34.425 16.375 36.125 C11.5 35.25 11.5 35.25 10.375 34.125 C9.715 35.115 9.055 36.105 8.375 37.125 C4.5 36.25 4.5 36.25 3.375 35.125 C3.33245644 33.12545254 3.33419217 31.12458364 3.375 29.125 C3.5950382 26.91776574 3.5950382 26.91776574 1.5625 25.0625 C-0.85494274 21.81621974 -1.75252236 19.02123717 -2.89453125 15.19140625 C-3.54569894 12.97440069 -3.54569894 12.97440069 -5.375 11 C-6.625 9.125 -6.625 9.125 -6.4375 5.5 C-5.32052021 0.86023778 -4.82941479 0.16653154 0 0 Z " fill="#DFDEDA" transform="translate(308.625,233.875)"/>
<path d="M0 0 C1.9375 1.5 1.9375 1.5 4 4 C5.18467243 5.35664101 6.37242551 6.7105953 7.5625 8.0625 C8.14128906 8.73410156 8.72007812 9.40570313 9.31640625 10.09765625 C10.94590327 12.00201974 10.94590327 12.00201974 12.703125 13.578125 C14 15 14 15 14.1875 17.6875 C14.0946875 18.8321875 14.0946875 18.8321875 14 20 C14.763125 19.938125 15.52625 19.87625 16.3125 19.8125 C19 20 19 20 20.875 21.25 C22 23 22 23 21.6875 25.1875 C21.460625 25.785625 21.23375 26.38375 21 27 C19.68 27 18.36 27 17 27 C17.33 28.98 17.66 30.96 18 33 C17.05125 32.95875 16.1025 32.9175 15.125 32.875 C11.89755144 32.65026182 11.89755144 32.65026182 10 35 C7.375 34.625 7.375 34.625 5 34 C4.61866701 32.0085944 4.28674418 30.00720923 4 28 C4.33 27.67 4.66 27.34 5 27 C4.278125 26.525625 3.55625 26.05125 2.8125 25.5625 C-0.34941796 22.68164141 -1.85630944 19.93018552 -3.796875 16.171875 C-5.01643658 13.79677214 -5.01643658 13.79677214 -7.3125 11.3125 C-9.49425706 8.32268477 -9.55121058 6.62224097 -9 3 C-6.79244709 -0.67925486 -4.01747809 -0.57392544 0 0 Z " fill="#DFDEDA" transform="translate(141,105)"/>
<path d="M0 0 C2.69604431 1.72023723 3.81726786 3.22316576 4.55102539 6.3425293 C4.962399 9.24581334 5.28281087 12.1435967 5.5625 15.0625 C5.76030577 17.05459554 5.96945907 19.04560575 6.19140625 21.03515625 C6.27592041 21.9156665 6.36043457 22.79617676 6.44750977 23.70336914 C7.08914396 26.37055996 8.05531899 27.15149703 10 29 C10.1875 32.1875 10.1875 32.1875 10 35 C8.515 35.495 8.515 35.495 7 36 C6.34 35.67 5.68 35.34 5 35 C4.34 36.32 3.68 37.64 3 39 C1.0625 38.6875 1.0625 38.6875 -1 38 C-1.495 36.515 -1.495 36.515 -2 35 C-2.99 35.66 -3.98 36.32 -5 37 C-7.1875 36.625 -7.1875 36.625 -9 36 C-9.26218749 32.85375007 -9.24754367 31.38162983 -7.5 28.6875 C-7.005 28.130625 -6.51 27.57375 -6 27 C-6.66 26.01 -7.32 25.02 -8 24 C-8.57317213 20.52659983 -8.6501964 17.01422574 -8.8125 13.5 C-8.87630859 12.53707031 -8.94011719 11.57414063 -9.00585938 10.58203125 C-9.05162109 9.65777344 -9.09738281 8.73351562 -9.14453125 7.78125 C-9.18940674 6.93626953 -9.23428223 6.09128906 -9.28051758 5.22070312 C-9 3 -9 3 -7.67456055 1.22851562 C-5.04880048 -0.69783292 -3.15783669 -0.45111953 0 0 Z " fill="#DFDEDA" transform="translate(334,543)"/>
<path d="M0 0 C3.625 0.1875 3.625 0.1875 6.625 2.1875 C7.2944685 8.32429463 7.2944685 8.32429463 5.41015625 10.75390625 C3.2892649 12.45711659 1.14926801 13.53250508 -1.3125 14.6875 C-3.93465674 15.92145612 -6.21677437 17.06616486 -8.51953125 18.83203125 C-10.90899323 20.5775961 -12.48500911 20.42833257 -15.375 20.1875 C-15.49875 20.97125 -15.6225 21.755 -15.75 22.5625 C-16.375 25.1875 -16.375 25.1875 -18.375 27.1875 C-21 27.3125 -21 27.3125 -23.375 27.1875 C-23.375 25.5375 -23.375 23.8875 -23.375 22.1875 C-25.025 22.1875 -26.675 22.1875 -28.375 22.1875 C-29 20.3125 -29 20.3125 -29.375 18.1875 C-28.715 17.5275 -28.055 16.8675 -27.375 16.1875 C-28.365 15.5275 -29.355 14.8675 -30.375 14.1875 C-29.5 10.3125 -29.5 10.3125 -28.375 9.1875 C-27.1375 9.249375 -25.9 9.31125 -24.625 9.375 C-20.20582282 9.42955774 -18.77581548 8.03469436 -15.375 5.1875 C-12.51774029 4.00759563 -9.63337318 3.00280972 -6.703125 2.01953125 C-1.24590797 0.06921711 -1.24590797 0.06921711 0 0 Z " fill="#E1E0DC" transform="translate(270.375,729.8125)"/>
<path d="M0 0 C2.8125 0.875 2.8125 0.875 4.8125 2.875 C4.96362305 4.96630859 4.96362305 4.96630859 4.82421875 7.5234375 C4.77716797 8.44640625 4.73011719 9.369375 4.68164062 10.3203125 C4.62169922 11.28710938 4.56175781 12.25390625 4.5 13.25 C4.45166016 14.2090625 4.40332031 15.168125 4.35351562 16.15625 C3.95435866 23.41181199 3.95435866 23.41181199 3.16333008 25.99462891 C2.52544414 28.20047113 2.52544414 28.20047113 4.8125 30.875 C4.9375 33.5625 4.9375 33.5625 4.8125 35.875 C1.92015685 36.70138376 -0.07492431 36.875 -3.1875 36.875 C-3.1875 37.535 -3.1875 38.195 -3.1875 38.875 C-4.8375 38.545 -6.4875 38.215 -8.1875 37.875 C-8.1875 36.555 -8.1875 35.235 -8.1875 33.875 C-9.8375 34.535 -11.4875 35.195 -13.1875 35.875 C-14.1875 34.875 -14.1875 34.875 -14.375 32.5 C-14.1875 29.875 -14.1875 29.875 -12.1875 26.875 C-11.1975 26.875 -10.2075 26.875 -9.1875 26.875 C-9.5175 26.215 -9.8475 25.555 -10.1875 24.875 C-10.46970194 19.88943244 -10.09118446 15.08314133 -9.5 10.125 C-9.30857422 8.49304688 -9.30857422 8.49304688 -9.11328125 6.828125 C-7.62615887 2.08439284 -5.00084337 -0.1961115 0 0 Z " fill="#DFDEDB" transform="translate(116.1875,3.125)"/>
<path d="M0 0 C3.2570571 1.30282284 4.47792069 2.07147134 6.5 5 C7.20508383 7.83712304 7.69046654 10.64568259 8.10546875 13.5390625 C8.37322379 15.99643977 8.37322379 15.99643977 9.5 18 C9.6328125 19.875 9.6328125 19.875 9.625 22 C9.62886719 23.051875 9.62886719 23.051875 9.6328125 24.125 C9.5 26 9.5 26 8.5 28 C9.82 28.66 11.14 29.32 12.5 30 C12.5 31.98 12.5 33.96 12.5 36 C10.52 36 8.54 36 6.5 36 C6.17 37.32 5.84 38.64 5.5 40 C1.625 39.125 1.625 39.125 0.5 38 C0.78730055 35.66055264 1.11936779 33.3260857 1.5 31 C2.16 31 2.82 31 3.5 31 C3.5 30.34 3.5 29.68 3.5 29 C1.85 29 0.2 29 -1.5 29 C-1.190625 30.3921875 -1.190625 30.3921875 -0.875 31.8125 C-0.5 35 -0.5 35 -2.5 38 C-3.49 38 -4.48 38 -5.5 38 C-6.125 35.1875 -6.125 35.1875 -6.5 32 C-5.51 30.515 -5.51 30.515 -4.5 29 C-4.81885345 27.05748582 -4.81885345 27.05748582 -5.5 25 C-5.904788 21.50874942 -6.10071018 18.00762022 -6.3125 14.5 C-6.38919922 13.54996094 -6.46589844 12.59992187 -6.54492188 11.62109375 C-6.95154063 4.65468577 -6.95154063 4.65468577 -4.66796875 1.34375 C-2.5 0 -2.5 0 0 0 Z " fill="#E0DFDB" transform="translate(357.5,539)"/>
<path d="M0 0 C2.25 1.3125 2.25 1.3125 4 4 C4.4674693 6.8890445 4.68871743 9.71376165 4.82421875 12.63671875 C4.73819854 14.95576822 4.73819854 14.95576822 6 16 C6.09823996 17.47648876 6.12973519 18.95775417 6.125 20.4375 C6.12886719 21.64212891 6.12886719 21.64212891 6.1328125 22.87109375 C6 25 6 25 5 27 C5.66 27 6.32 27 7 27 C9.29013653 30.4352048 9.17842973 31.985331 9 36 C5.125 35.125 5.125 35.125 4 34 C3.01 36.475 3.01 36.475 2 39 C0.68 39 -0.64 39 -2 39 C-2.66 37.68 -3.32 36.36 -4 35 C-4.66 35.66 -5.32 36.32 -6 37 C-8.125 36.625 -8.125 36.625 -10 36 C-10.20086443 32.28400809 -10.1519437 31.22791555 -8 28 C-7.34 28 -6.68 28 -6 28 C-6.66 27.01 -7.32 26.02 -8 25 C-8.59848512 21.54858296 -8.6963372 18.05817863 -8.875 14.5625 C-8.9471875 13.60794922 -9.019375 12.65339844 -9.09375 11.66992188 C-9.46616654 4.66751082 -9.46616654 4.66751082 -7.1640625 1.37109375 C-4.44903195 -0.34907904 -3.15537424 -0.63107485 0 0 Z " fill="#E1E0DC" transform="translate(324,341)"/>
<path d="M0 0 C2.11328125 1.1796875 2.11328125 1.1796875 4 3 C4.57421875 5.59375 4.57421875 5.59375 4.6875 8.5 C4.83604991 11.65774667 4.99437627 13.98312881 6 17 C6.34710744 23.47933884 6.34710744 23.47933884 4 27 C4.9590625 27.2165625 4.9590625 27.2165625 5.9375 27.4375 C8 28 8 28 9 29 C9.04092937 31.33297433 9.04241723 33.66705225 9 36 C5.125 35.125 5.125 35.125 4 34 C3.01 36.475 3.01 36.475 2 39 C0.68 38.67 -0.64 38.34 -2 38 C-2 35.69 -2 33.38 -2 31 C-0.35 30.67 1.3 30.34 3 30 C3 29.34 3 28.68 3 28 C1.741875 28.061875 0.48375 28.12375 -0.8125 28.1875 C-3.35377922 28.31248095 -4.53829681 28.3508234 -6.58691406 26.79418945 C-9.38787979 23.23781468 -8.76215453 18.36415389 -8.9375 14 C-9.00517578 12.989375 -9.07285156 11.97875 -9.14257812 10.9375 C-9.18705078 9.968125 -9.23152344 8.99875 -9.27734375 8 C-9.32109131 7.113125 -9.36483887 6.22625 -9.40991211 5.3125 C-9 3 -9 3 -7.13891602 1.2109375 C-4.47387796 -0.29786158 -3.0213394 -0.45320091 0 0 Z " fill="#E0DFDB" transform="translate(350,339)"/>
<path d="M0 0 C6.52427994 0.61549811 6.52427994 0.61549811 8.609375 2.30078125 C10.07629694 4.093228 10.98274247 5.7687967 11.9375 7.875 C13.21205568 10.56682222 14.30414089 12.36327939 16.25 14.6875 C18 17 18 17 18.5625 19.5625 C18 22 18 22 15.9375 24.25 C12.55735774 26.26370177 9.89342625 26.69463324 6 27 C4.84375 24.6875 4.84375 24.6875 3.6875 22.375 C3.23246094 21.46621094 2.77742188 20.55742187 2.30859375 19.62109375 C1.28142546 17.56369099 0.26388537 15.50148093 -0.75 13.4375 C-1.78472221 11.11310066 -1.78472221 11.11310066 -3 10 C-3.30867281 6.52743085 -3.38701339 4.6127712 -1.5 1.625 C-1.005 1.08875 -0.51 0.5525 0 0 Z " fill="#DDDCD8" transform="translate(282,246)"/>
<path d="M0 0 C1.875 1.125 1.875 1.125 3 3 C3.41629953 6.261013 3.63263428 8.16534805 1.60546875 10.83984375 C-0.2554308 13.34368182 -1.07935973 15.67159886 -2.0625 18.625 C-3.78470825 23.78470825 -3.78470825 23.78470825 -6 26 C-9.5 26.25 -9.5 26.25 -13 26 C-15.55403148 23.44596852 -15.32607024 22.35990775 -15.375 18.8125 C-15.28104033 13.28333499 -14.14388124 10.49125891 -11 6 C-10.46375 5.05125 -9.9275 4.1025 -9.375 3.125 C-6.93226984 -0.65012843 -4.25400304 -0.34726555 0 0 Z " fill="#E0DFDB" transform="translate(190,783)"/>
<path d="M0 0 C3.82116982 0.32382795 5.62930359 1.08835716 8.6875 3.3125 C8.5225 4.26125 8.3575 5.21 8.1875 6.1875 C7.4963796 9.91993698 7.4963796 9.91993698 8.6875 13.3125 C8.727492 15.31210012 8.73096799 17.31297242 8.6875 19.3125 C4.7285989 20.6321337 1.90987739 21.3125 -2.3125 21.3125 C-2.6425 20.3225 -2.9725 19.3325 -3.3125 18.3125 C-4.9625 18.3125 -6.6125 18.3125 -8.3125 18.3125 C-7.5625 11.5625 -7.5625 11.5625 -5.3125 9.3125 C-5.3125 8.1575 -5.3125 7.0025 -5.3125 5.8125 C-5.3125 1.11903473 -4.65350846 0.43901023 0 0 Z " fill="#222120" transform="translate(134.3125,52.6875)"/>
<path d="M0 0 C0.9796875 0.00515625 1.959375 0.0103125 2.96875 0.015625 C3.9484375 0.01046875 4.928125 0.0053125 5.9375 0 C8.46875 0.265625 8.46875 0.265625 10.46875 2.265625 C10.67747719 5.04865419 10.72515898 6.75280705 9.46875 9.265625 C10.45875 10.750625 10.45875 10.750625 11.46875 12.265625 C11.59375 15.453125 11.59375 15.453125 11.46875 18.265625 C10.355 18.1728125 10.355 18.1728125 9.21875 18.078125 C6.01491994 18.29656796 4.82843744 19.16812505 2.46875 21.265625 C1.8809375 20.4921875 1.8809375 20.4921875 1.28125 19.703125 C0.683125 19.22875 0.085 18.754375 -0.53125 18.265625 C-3.18591049 18.49606364 -3.18591049 18.49606364 -5.53125 19.265625 C-5.78125 12.640625 -5.78125 12.640625 -3.53125 9.265625 C-3.85884934 6.93147971 -4.19198053 4.59810261 -4.53125 2.265625 C-2.53125 0.265625 -2.53125 0.265625 0 0 Z " fill="#1F1E1E" transform="translate(350.53125,494.734375)"/>
<path d="M0 0 C3.62716299 0.02604785 5.54755703 0.61005703 8.1875 3.25 C8.0225 4.03375 7.8575 4.8175 7.6875 5.625 C7.1251293 8.13208039 7.1251293 8.13208039 7.1875 10.25 C7.8475 10.91 8.5075 11.57 9.1875 12.25 C9.3125 15.375 9.3125 15.375 9.1875 18.25 C7.19208132 18.93025637 5.19132009 19.59490497 3.1875 20.25 C2.465625 20.518125 1.74375 20.78625 1 21.0625 C0.401875 21.124375 -0.19625 21.18625 -0.8125 21.25 C-1.83354551 20.27149805 -2.8331121 19.27019573 -3.8125 18.25 C-5.1325 18.25 -6.4525 18.25 -7.8125 18.25 C-7.9375 15.375 -7.9375 15.375 -7.8125 12.25 C-7.1525 11.59 -6.4925 10.93 -5.8125 10.25 C-4.8225 10.25 -3.8325 10.25 -2.8125 10.25 C-4.1325 8.6 -5.4525 6.95 -6.8125 5.25 C-4.41217231 0.28932277 -4.41217231 0.28932277 0 0 Z " fill="#3B3B3A" transform="translate(326.8125,493.75)"/>
<path d="M0 0 C0.721875 0.268125 1.44375 0.53625 2.1875 0.8125 C2.1875 2.7925 2.1875 4.7725 2.1875 6.8125 C3.1775 6.8125 4.1675 6.8125 5.1875 6.8125 C5.1875 5.8225 5.1875 4.8325 5.1875 3.8125 C7.1675 3.8125 9.1475 3.8125 11.1875 3.8125 C13.2752193 7.25109649 13.2752193 7.25109649 12.875 9.8125 C12.648125 10.4725 12.42125 11.1325 12.1875 11.8125 C12.001875 12.555 11.81625 13.2975 11.625 14.0625 C11.480625 14.64 11.33625 15.2175 11.1875 15.8125 C9.8675 15.8125 8.5475 15.8125 7.1875 15.8125 C7.1875 17.1325 7.1875 18.4525 7.1875 19.8125 C4.8125 19.9375 4.8125 19.9375 2.1875 19.8125 C0.1875 17.8125 0.1875 17.8125 0.0625 15.1875 C0.10375 14.40375 0.145 13.62 0.1875 12.8125 C-1.5140625 13.0909375 -1.5140625 13.0909375 -3.25 13.375 C-5.0134375 13.5915625 -5.0134375 13.5915625 -6.8125 13.8125 C-7.8125 12.8125 -7.8125 12.8125 -8.1875 9.0625 C-8.14283673 5.52134061 -7.81730676 4.81922946 -5.625 1.75 C-2.8125 -0.1875 -2.8125 -0.1875 0 0 Z " fill="#2E2D2C" transform="translate(256.8125,189.1875)"/>
<path d="M0 0 C4.33856 0.66021565 7.23529671 2.95967133 9.875 6.4375 C9.8125 9.8125 9.8125 9.8125 8.875 12.4375 C7.225 12.7675 5.575 13.0975 3.875 13.4375 C4.08125 14.365625 4.2875 15.29375 4.5 16.25 C4.875 19.4375 4.875 19.4375 2.875 22.4375 C0.9375 22.125 0.9375 22.125 -1.125 21.4375 C-1.455 20.4475 -1.785 19.4575 -2.125 18.4375 C-2.785 19.0975 -3.445 19.7575 -4.125 20.4375 C-6.25 20.0625 -6.25 20.0625 -8.125 19.4375 C-8.125 18.1175 -8.125 16.7975 -8.125 15.4375 C-9.115 15.1075 -10.105 14.7775 -11.125 14.4375 C-10.25 9.5625 -10.25 9.5625 -9.125 8.4375 C-7.45882885 8.39686168 -5.79111905 8.394779 -4.125 8.4375 C-3.795 9.0975 -3.465 9.7575 -3.125 10.4375 C-3.13660156 9.79941406 -3.14820313 9.16132812 -3.16015625 8.50390625 C-3.16917969 7.67761719 -3.17820312 6.85132813 -3.1875 6 C-3.19910156 5.17628906 -3.21070313 4.35257813 -3.22265625 3.50390625 C-3.08812911 0.65731187 -2.7731686 0.57094648 0 0 Z " fill="#3F3E3D" transform="translate(324.125,692.5625)"/>
<path d="M0 0 C1.19109375 -0.00386719 1.19109375 -0.00386719 2.40625 -0.0078125 C4.5 0.125 4.5 0.125 6.5 1.125 C6.54254356 3.12454746 6.54080783 5.12541636 6.5 7.125 C6.17 7.455 5.84 7.785 5.5 8.125 C6.16 8.681875 6.82 9.23875 7.5 9.8125 C9.5 12.125 9.5 12.125 9.75 14.875 C9.6675 15.6175 9.585 16.36 9.5 17.125 C5.77034861 19.15935531 3.83094958 20.125 -0.5 20.125 C-0.83 19.135 -1.16 18.145 -1.5 17.125 C-3.15 17.785 -4.8 18.445 -6.5 19.125 C-7.5 18.125 -7.5 18.125 -7.5625 15.0625 C-7.541875 14.093125 -7.52125 13.12375 -7.5 12.125 C-6.18 11.795 -4.86 11.465 -3.5 11.125 C-3.5 10.465 -3.5 9.805 -3.5 9.125 C-5.4600281 7.48823743 -5.4600281 7.48823743 -7.5 6.125 C-7.125 3.6875 -7.125 3.6875 -6.5 1.125 C-4.13386544 -0.05806728 -2.63219264 -0.00854608 0 0 Z " fill="#373635" transform="translate(362.5,586.875)"/>
<path d="M0 0 C1.65 0.33 3.3 0.66 5 1 C5 2.98 5 4.96 5 7 C5.99 7 6.98 7 8 7 C8.33 6.01 8.66 5.02 9 4 C10.65 4 12.3 4 14 4 C14.66 5.32 15.32 6.64 16 8 C15.01 9.485 15.01 9.485 14 11 C14.3121764 13.64632287 14.3121764 13.64632287 15 16 C13.35 16 11.7 16 10 16 C10 17.32 10 18.64 10 20 C7.625 20.125 7.625 20.125 5 20 C4.34 19.34 3.68 18.68 3 18 C3 16.68 3 15.36 3 14 C1.2984375 14.0309375 1.2984375 14.0309375 -0.4375 14.0625 C-4 14 -4 14 -5 13 C-5.38835726 9.69896327 -5.68972938 7.10935494 -3.8828125 4.203125 C-2.65356678 2.74469787 -1.33196095 1.36525997 0 0 Z " fill="#292828" transform="translate(242,212)"/>
<path d="M0 0 C3.25335322 0.21217521 5.33680929 0.44734107 7.875 2.5625 C9.52772156 6.14339672 9.19618208 9.07635835 9 13 C6.36 13 3.72 13 1 13 C0.87625 13.78375 0.7525 14.5675 0.625 15.375 C0 18 0 18 -2 20 C-4.125 19.625 -4.125 19.625 -6 19 C-6 18.01 -6 17.02 -6 16 C-7.65 15.67 -9.3 15.34 -11 15 C-10.125 11.125 -10.125 11.125 -9 10 C-9.99 9.34 -10.98 8.68 -12 8 C-11.67 6.68 -11.34 5.36 -11 4 C-9.02 3.67 -7.04 3.34 -5 3 C-4.67 4.32 -4.34 5.64 -4 7 C-3.01 7 -2.02 7 -1 7 C-1.020625 6.030625 -1.04125 5.06125 -1.0625 4.0625 C-1 1 -1 1 0 0 Z " fill="#42413F" transform="translate(226,749)"/>
<path d="M0 0 C0.78503906 0.00515625 1.57007813 0.0103125 2.37890625 0.015625 C3.55259766 0.00789063 3.55259766 0.00789063 4.75 0 C6.94140625 0.265625 6.94140625 0.265625 9.94140625 2.265625 C9.3138076 5.19441871 8.35517966 7.62658129 6.94140625 10.265625 C8.26140625 10.595625 9.58140625 10.925625 10.94140625 11.265625 C11.27140625 13.245625 11.60140625 15.225625 11.94140625 17.265625 C10.62140625 17.265625 9.30140625 17.265625 7.94140625 17.265625 C7.61140625 16.935625 7.28140625 16.605625 6.94140625 16.265625 C5.95140625 18.740625 5.95140625 18.740625 4.94140625 21.265625 C3.95140625 21.265625 2.96140625 21.265625 1.94140625 21.265625 C1.61140625 20.605625 1.28140625 19.945625 0.94140625 19.265625 C0.13703125 19.28625 -0.66734375 19.306875 -1.49609375 19.328125 C-4.05859375 19.265625 -4.05859375 19.265625 -5.05859375 18.265625 C-5.32181835 14.31725595 -5.14856748 11.66183231 -3.05859375 8.265625 C-3.71859375 7.605625 -4.37859375 6.945625 -5.05859375 6.265625 C-4.63075123 2.84288483 -3.72749687 0.48096734 0 0 Z " fill="#1B1A1A" transform="translate(350.05859375,385.734375)"/>
<path d="M0 0 C4.28950759 0.16498106 6.53376111 0.65032083 10 3.25 C12 6 12 6 11.8125 8.8125 C11.544375 9.534375 11.27625 10.25625 11 11 C9.3603125 11.2165625 9.3603125 11.2165625 7.6875 11.4375 C4.06877013 11.88288104 4.06877013 11.88288104 1 13 C1.33 13.66 1.66 14.32 2 15 C3.65 14.67 5.3 14.34 7 14 C6.25 19.75 6.25 19.75 4 22 C3.01 22 2.02 22 1 22 C0.67 20.68 0.34 19.36 0 18 C-0.66 18.66 -1.32 19.32 -2 20 C-2.99 20 -3.98 20 -5 20 C-5 18.02 -5 16.04 -5 14 C-6.32 14 -7.64 14 -9 14 C-8.67 12.02 -8.34 10.04 -8 8 C-6.34385343 7.61781233 -4.67542976 7.28604898 -3 7 C-2.67 7.33 -2.34 7.66 -2 8 C-1.855625 6.865625 -1.71125 5.73125 -1.5625 4.5625 C-1 1 -1 1 0 0 Z " fill="#4C4B4A" transform="translate(301,678)"/>
<path d="M0 0 C0.70074844 3.153368 1 5.72724974 1 9 C1.8971875 8.6596875 1.8971875 8.6596875 2.8125 8.3125 C5 8 5 8 6.8125 9.1875 C8 11 8 11 7.6875 13.1875 C7.460625 13.785625 7.23375 14.38375 7 15 C5.68 15 4.36 15 3 15 C3 16.65 3 18.3 3 20 C2.38125 19.835 1.7625 19.67 1.125 19.5 C-0.96063386 18.92365356 -0.96063386 18.92365356 -3 19 C-3.33 19.66 -3.66 20.32 -4 21 C-5.32 20.67 -6.64 20.34 -8 20 C-9.125 14.25 -9.125 14.25 -8 12 C-7.34 12 -6.68 12 -6 12 C-6 11.34 -6 10.68 -6 10 C-6.804375 10.020625 -7.60875 10.04125 -8.4375 10.0625 C-11 10 -11 10 -12 9 C-12.375 6.6875 -12.375 6.6875 -12 4 C-8.2996981 -0.14882334 -5.40488073 -0.42391221 0 0 Z " fill="#4E4C4B" transform="translate(336,275)"/>
<path d="M0 0 C2.25 -0.3125 2.25 -0.3125 5 0 C8.26527806 2.91227503 8.96140059 4.41135903 9.25 8.8125 C9.1675 9.864375 9.085 10.91625 9 12 C4.25 13.125 4.25 13.125 2 12 C1.87625 12.78375 1.7525 13.5675 1.625 14.375 C1 17 1 17 -1 19 C-3.625 19.125 -3.625 19.125 -6 19 C-6 18.01 -6 17.02 -6 16 C-7.65 15.67 -9.3 15.34 -11 15 C-10.125 11.125 -10.125 11.125 -9 10 C-9.99 9.34 -10.98 8.68 -12 8 C-11.125 4.125 -11.125 4.125 -10 3 C-8.33382885 2.95936168 -6.66611905 2.957279 -5 3 C-4.4375 4.9375 -4.4375 4.9375 -4 7 C-4.33 7.33 -4.66 7.66 -5 8 C-4.34 8.33 -3.68 8.66 -3 9 C-2.01 6.03 -1.02 3.06 0 0 Z " fill="#393837" transform="translate(214,726)"/>
<path d="M0 0 C1.4540625 0.0309375 1.4540625 0.0309375 2.9375 0.0625 C4.09813604 4.31816547 3.69923392 7.7460078 2.9375 12.0625 C3.5975 12.0625 4.2575 12.0625 4.9375 12.0625 C5.2675 10.4125 5.5975 8.7625 5.9375 7.0625 C8.10624252 7.56853992 9.93717627 8.06233813 11.9375 9.0625 C11.9375 10.7125 11.9375 12.3625 11.9375 14.0625 C10.9475 14.3925 9.9575 14.7225 8.9375 15.0625 C8.9375 16.3825 8.9375 17.7025 8.9375 19.0625 C7.27138095 19.105221 5.60367115 19.10313832 3.9375 19.0625 C3.6075 18.7325 3.2775 18.4025 2.9375 18.0625 C2.6075 19.0525 2.2775 20.0425 1.9375 21.0625 C0.2875 20.7325 -1.3625 20.4025 -3.0625 20.0625 C-3.3925 18.0825 -3.7225 16.1025 -4.0625 14.0625 C-2.4125 14.3925 -0.7625 14.7225 0.9375 15.0625 C1.2675 14.4025 1.5975 13.7425 1.9375 13.0625 C-1.3625 12.4025 -4.6625 11.7425 -8.0625 11.0625 C-8.3925 9.4125 -8.7225 7.7625 -9.0625 6.0625 C-6.6875 3.3125 -6.6875 3.3125 -4.0625 1.0625 C-3.0625 0.0625 -3.0625 0.0625 0 0 Z " fill="#5A5958" transform="translate(147.0625,156.9375)"/>
<path d="M0 0 C1.96822886 1.96822886 1.66248381 5.34808709 2 8 C2.78375 7.95875 3.5675 7.9175 4.375 7.875 C7 8 7 8 9 10 C9.125 12.625 9.125 12.625 9 15 C8.01 15 7.02 15 6 15 C6 16.65 6 18.3 6 20 C3.625 19.8125 3.625 19.8125 1 19 C0.7525 18.195625 0.505 17.39125 0.25 16.5625 C-0.1625 15.716875 -0.575 14.87125 -1 14 C-3.29559117 13.21143815 -5.50684279 12.81148913 -7.90625 12.45703125 C-10 12 -10 12 -12 10 C-12 6.12586564 -10.99138166 4.99118579 -8.25 2.1875 C-4.99847482 -0.00102657 -3.78809495 -0.64938771 0 0 Z " fill="#D3D2CE" transform="translate(171,141)"/>
<path d="M0 0 C0.78582625 3.14330499 1.02542843 5.96931953 0.9375 9.1875 C0.5583591 13.02197339 0.5583591 13.02197339 3 15 C3.125 17.625 3.125 17.625 3 20 C0.83125748 19.49396008 -0.99967627 19.00016187 -3 18 C-3.33 18.99 -3.66 19.98 -4 21 C-5.32 20.67 -6.64 20.34 -8 20 C-8.33 18.02 -8.66 16.04 -9 14 C-8.01 13.67 -7.02 13.34 -6 13 C-6 12.01 -6 11.02 -6 10 C-7.98 10 -9.96 10 -12 10 C-12.3125 7.25 -12.3125 7.25 -12 4 C-8.35392148 -0.19851467 -5.39116522 -0.42283649 0 0 Z " fill="#DAD9D6" transform="translate(313,287)"/>
<path d="M0 0 C2 2 2 2 2.1953125 4.6015625 C2.17210937 5.59929687 2.14890625 6.59703125 2.125 7.625 C2.10695312 8.62789062 2.08890625 9.63078125 2.0703125 10.6640625 C2.04710937 11.43492187 2.02390625 12.20578125 2 13 C0.35 13.33 -1.3 13.66 -3 14 C-3 15.32 -3 16.64 -3 18 C-4.6875 18.75 -4.6875 18.75 -7 19 C-9.75 17.25 -9.75 17.25 -12 15 C-12 14.01 -12 13.02 -12 12 C-13.32 11.67 -14.64 11.34 -16 11 C-15.21625 10.731875 -14.4325 10.46375 -13.625 10.1875 C-10.71885077 9.15185568 -10.71885077 9.15185568 -9 6 C-8.61500109 4.34450469 -8.27206865 2.6777567 -8 1 C-5.03104944 0.01034981 -3.0913386 -0.23779528 0 0 Z " fill="#191818" transform="translate(241,179)"/>
<path d="M0 0 C0.33 0.99 0.66 1.98 1 3 C1.94875 3.12375 2.8975 3.2475 3.875 3.375 C7 4 7 4 9 6 C8.625 8.625 8.625 8.625 8 11 C7.01 11 6.02 11 5 11 C5 12.65 5 14.3 5 16 C3.1875 16.625 3.1875 16.625 1 17 C0.01 16.34 -0.98 15.68 -2 15 C-2.33 16.32 -2.66 17.64 -3 19 C-5.86724686 18.42655063 -6.8614515 18.1385485 -9 16 C-9.125 12.375 -9.125 12.375 -9 9 C-8.05125 8.54625 -7.1025 8.0925 -6.125 7.625 C-2.99686321 6.19761746 -2.99686321 6.19761746 -1 4 C-0.3574765 1.93125966 -0.3574765 1.93125966 0 0 Z " fill="#31302F" transform="translate(133,137)"/>
<path d="M0 0 C2.75 1.5625 2.75 1.5625 4 4 C3.75 7.75 3.75 7.75 3 11 C-1.41225737 12.47075246 -4.48281619 13.36884358 -9 12 C-9 11.01 -9 10.02 -9 9 C-10.98 9.33 -12.96 9.66 -15 10 C-15.25 6.6875 -15.25 6.6875 -15 3 C-10.7958045 -1.2827786 -5.60629336 -0.74750578 0 0 Z " fill="#2B2A29" transform="translate(333,473)"/>
<path d="M0 0 C1.3125 2.0625 1.3125 2.0625 2 4 C1.01 4.99 0.02 5.98 -1 7 C-0.34 7.66 0.32 8.32 1 9 C0.625 11.125 0.625 11.125 0 13 C-1.65 13 -3.3 13 -5 13 C-5 14.65 -5 16.3 -5 18 C-7.74148672 17.62952882 -9.58593199 17.31412056 -11.8125 15.625 C-13 14 -13 14 -13 11 C-14.65 11 -16.3 11 -18 11 C-18 10.67 -18 10.34 -18 10 C-16.576875 9.5978125 -16.576875 9.5978125 -15.125 9.1875 C-11.74732727 8.25013412 -11.74732727 8.25013412 -10 5 C-9.61500109 3.34450469 -9.27206865 1.6777567 -9 0 C-5.68989426 -1.10336858 -3.3186024 -1.13531135 0 0 Z " fill="#282726" transform="translate(230,203)"/>
<path d="M0 0 C0.2475 0.5775 0.495 1.155 0.75 1.75 C2.21502278 4.38704101 3.67502077 6.07358864 6 8 C8.64184541 8.79681318 8.64184541 8.79681318 11 9 C10.34 11.97 9.68 14.94 9 18 C7.35 18.33 5.7 18.66 4 19 C3.34 18.01 2.68 17.02 2 16 C1.67 16.33 1.34 16.66 1 17 C-0.66617115 17.04063832 -2.33388095 17.042721 -4 17 C-3.67 15.02 -3.34 13.04 -3 11 C-4.65 10.67 -6.3 10.34 -8 10 C-7.44295272 6.76912579 -6.66812465 4.97638863 -4 3 C-2.68 3 -1.36 3 0 3 C0 2.01 0 1.02 0 0 Z " fill="#1B1A1A" transform="translate(338,673)"/>
<path d="M0 0 C0.33 0 0.66 0 1 0 C1.2475 0.928125 1.495 1.85625 1.75 2.8125 C3.08696193 6.22175293 4.05118379 7.03412252 7 9 C7 9.66 7 10.32 7 11 C7.99 11.33 8.98 11.66 10 12 C9.25 17.75 9.25 17.75 7 20 C4.875 19.625 4.875 19.625 3 19 C3 18.01 3 17.02 3 16 C2.01 16.66 1.02 17.32 0 18 C-2.1875 17.625 -2.1875 17.625 -4 17 C-4 15.35 -4 13.7 -4 12 C-5.32 11.67 -6.64 11.34 -8 11 C-7.6875 8.625 -7.6875 8.625 -7 6 C-4 4 -4 4 0 4 C0 2.68 0 1.36 0 0 Z " fill="#2B2A2A" transform="translate(317,657)"/>
<path d="M0 0 C3.40667322 0.44824648 5.07914607 1.05276405 8 3 C8.1875 5.625 8.1875 5.625 8 8 C6.68 8.33 5.36 8.66 4 9 C3.67 10.65 3.34 12.3 3 14 C-1.875 13.125 -1.875 13.125 -3 12 C-3.99 13.485 -3.99 13.485 -5 15 C-8.875 14.125 -8.875 14.125 -10 13 C-10.04346799 11.00047242 -10.039992 8.99960012 -10 7 C-10 6.01 -10 5.02 -10 4 C-9.36191406 3.79503906 -8.72382813 3.59007812 -8.06640625 3.37890625 C-7.24011719 3.10949219 -6.41382813 2.84007812 -5.5625 2.5625 C-4.73878906 2.29566406 -3.91507812 2.02882813 -3.06640625 1.75390625 C-1.03780412 1.17844506 -1.03780412 1.17844506 0 0 Z " fill="#232221" transform="translate(322,256)"/>
<path d="M0 0 C0.33 0 0.66 0 1 0 C1 1.65 1 3.3 1 5 C1.763125 4.938125 2.52625 4.87625 3.3125 4.8125 C6 5 6 5 7.875 6.25 C9 8 9 8 8.6875 10.1875 C8.460625 10.785625 8.23375 11.38375 8 12 C6.68 12 5.36 12 4 12 C4.33 13.98 4.66 15.96 5 18 C3.576875 17.938125 3.576875 17.938125 2.125 17.875 C-1.10244856 17.65026182 -1.10244856 17.65026182 -3 20 C-5.625 19.625 -5.625 19.625 -8 19 C-8.38133299 17.0085944 -8.71325582 15.00720923 -9 13 C-8.67 12.67 -8.34 12.34 -8 12 C-8.66 11.34 -9.32 10.68 -10 10 C-9.44570312 9.86464844 -8.89140625 9.72929687 -8.3203125 9.58984375 C-6.01899667 8.90600079 -4.06968946 8.22491825 -2 7 C-0.38864654 3.45136841 -0.38864654 3.45136841 0 0 Z " fill="#323130" transform="translate(154,120)"/>
<path d="M0 0 C2.97 0 5.94 0 9 0 C9.268125 1.0725 9.53625 2.145 9.8125 3.25 C10.72174767 6.93133126 10.72174767 6.93133126 12.75 9.125 C13.36875 10.053125 13.36875 10.053125 14 11 C13.09021715 14.82108796 12.32708333 15.78194445 9 18 C7.68 18 6.36 18 5 18 C5 16.35 5 14.7 5 13 C3.35 13 1.7 13 0 13 C-0.625 11.125 -0.625 11.125 -1 9 C-0.34 8.34 0.32 7.68 1 7 C0.01 6.01 -0.98 5.02 -2 4 C-1.34 2.68 -0.68 1.36 0 0 Z " fill="#262525" transform="translate(230,716)"/>
<path d="M0 0 C2.301153 3.06820401 2.30114521 4.74992214 1.875 8.5 C0.885 8.83 -0.105 9.16 -1.125 9.5 C-1.785 9.17 -2.445 8.84 -3.125 8.5 C-3.785 9.82 -4.445 11.14 -5.125 12.5 C-7.0625 12.1875 -7.0625 12.1875 -9.125 11.5 C-9.455 10.51 -9.785 9.52 -10.125 8.5 C-11.115 9.16 -12.105 9.82 -13.125 10.5 C-15.3125 10.125 -15.3125 10.125 -17.125 9.5 C-17.46139162 6.47247542 -17.3897648 4.92121672 -15.75 2.3125 C-10.90645241 -1.03185429 -5.42965554 -2.60623466 0 0 Z " fill="#222120" transform="translate(342.125,569.5)"/>
<path d="M0 0 C1.23556641 0.01740234 1.23556641 0.01740234 2.49609375 0.03515625 C3.32238281 0.04417969 4.14867187 0.05320312 5 0.0625 C5.63808594 0.07410156 6.27617187 0.08570313 6.93359375 0.09765625 C7.13855469 0.73574219 7.34351563 1.37382813 7.5546875 2.03125 C7.82410156 2.85753906 8.09351563 3.68382812 8.37109375 4.53515625 C8.63792969 5.35886719 8.90476563 6.18257812 9.1796875 7.03125 C9.75514869 9.05985213 9.75514869 9.05985213 10.93359375 10.09765625 C11.22933216 12.90717111 11.3160246 14.51394601 9.74609375 16.91015625 C7.3737685 18.46443831 5.7131803 18.32302813 2.93359375 18.09765625 C2.93359375 16.44765625 2.93359375 14.79765625 2.93359375 13.09765625 C1.28359375 13.09765625 -0.36640625 13.09765625 -2.06640625 13.09765625 C-2.69140625 11.22265625 -2.69140625 11.22265625 -3.06640625 9.09765625 C-2.40640625 8.43765625 -1.74640625 7.77765625 -1.06640625 7.09765625 C-2.05640625 6.43765625 -3.04640625 5.77765625 -4.06640625 5.09765625 C-2.94676868 0.13926128 -2.94676868 0.13926128 0 0 Z " fill="#262525" transform="translate(244.06640625,738.90234375)"/>
<path d="M0 0 C1.54458462 0.25366349 3.08668768 0.52322158 4.625 0.8125 C6.0790625 0.998125 6.0790625 0.998125 7.5625 1.1875 C9.625 1.8125 9.625 1.8125 11.625 4.8125 C11.75 7.5 11.75 7.5 11.625 9.8125 C8.61468256 10.74673645 7.75849732 10.85699911 4.625 9.8125 C3.965 11.1325 3.305 12.4525 2.625 13.8125 C-0.375 12.8125 -0.375 12.8125 -2.375 10.8125 C-4.94561311 10.16482207 -4.94561311 10.16482207 -7.375 9.8125 C-7.58881839 6.67649693 -7.57250037 4.32600095 -6.4375 1.375 C-3.90087329 -0.5466869 -3.09298331 -0.31907648 0 0 Z " fill="#222120" transform="translate(351.375,473.1875)"/>
<path d="M0 0 C0.66 0.33 1.32 0.66 2 1 C3.4801641 0.96910473 4.95973835 0.90228191 6.4375 0.8125 C10.71834257 0.77808808 10.71834257 0.77808808 13.0625 2.625 C14.21590497 5.54695926 14.21231713 7.88601543 14 11 C11.50935112 11.68707555 9.62113708 12 7 12 C4.84971696 12.94978897 4.84971696 12.94978897 3 14 C2.34 13.34 1.68 12.68 1 12 C1 10.68 1 9.36 1 8 C0.01 8.66 -0.98 9.32 -2 10 C-2.99 10 -3.98 10 -5 10 C-5.25 4.375 -5.25 4.375 -3 1 C-2.01 0.67 -1.02 0.34 0 0 Z " fill="#171616" transform="translate(133,32)"/>
<path d="M0 0 C1.43859375 0.08314453 1.43859375 0.08314453 2.90625 0.16796875 C5.5 0.8125 5.5 0.8125 7.33203125 2.69140625 C8.73536835 5.23994151 8.73889782 6.9457261 8.5 9.8125 C5.60765685 10.63888376 3.61257569 10.8125 0.5 10.8125 C0.5 11.4725 0.5 12.1325 0.5 12.8125 C-1.15 12.4825 -2.8 12.1525 -4.5 11.8125 C-4.5 10.4925 -4.5 9.1725 -4.5 7.8125 C-6.15 8.4725 -7.8 9.1325 -9.5 9.8125 C-10.5 8.8125 -10.5 8.8125 -10.6875 6.4375 C-10.5 3.8125 -10.5 3.8125 -8.5 0.8125 C-5.3043581 -0.25271397 -3.332755 -0.237414 0 0 Z " fill="#232322" transform="translate(112.5,29.1875)"/>
<path d="M0 0 C2.29013653 3.4352048 2.17842973 4.985331 2 9 C-1.875 8.125 -1.875 8.125 -3 7 C-3.66 8.65 -4.32 10.3 -5 12 C-6.32 12 -7.64 12 -9 12 C-9.66 10.68 -10.32 9.36 -11 8 C-11.66 8.66 -12.32 9.32 -13 10 C-15.125 9.625 -15.125 9.625 -17 9 C-17.3431111 5.91200013 -17.25565158 4.40015029 -15.5625 1.75 C-11.1233981 -1.28158178 -5.08440505 -1.92819598 0 0 Z " fill="#292828" transform="translate(331,368)"/>
<path d="M0 0 C0.33 0 0.66 0 1 0 C1.125 7.75 1.125 7.75 0 10 C1.32 10.66 2.64 11.32 4 12 C4 13.98 4 15.96 4 18 C2.02 18 0.04 18 -2 18 C-2.33 19.32 -2.66 20.64 -3 22 C-6.875 21.125 -6.875 21.125 -8 20 C-7.71269945 17.66055264 -7.38063221 15.3260857 -7 13 C-6.34 13 -5.68 13 -5 13 C-5 12.34 -5 11.68 -5 11 C-6.65 11 -8.3 11 -10 11 C-9.79375 11.928125 -9.5875 12.85625 -9.375 13.8125 C-9 17 -9 17 -11 20 C-11.99 20 -12.98 20 -14 20 C-15.04068369 16.27088344 -15.32213295 14.61742148 -13.5 11.125 C-10.19688045 8.31734839 -8.22728068 8.76942105 -4 9 C-3.01 8.34 -2.02 7.68 -1 7 C-0.26393501 3.43230448 -0.26393501 3.43230448 0 0 Z " fill="#292827" transform="translate(366,557)"/>
<path d="M0 0 C1.65 0.33 3.3 0.66 5 1 C5.66 4.3 6.32 7.6 7 11 C-0.28571429 14.57142857 -0.28571429 14.57142857 -5 13 C-5.602537 6.97463002 -5.602537 6.97463002 -3.88671875 4.19921875 C-2.65378147 2.74400545 -1.33191067 1.36520843 0 0 Z " fill="#D9D8D4" transform="translate(242,212)"/>
<path d="M0 0 C1.65 0.33 3.3 0.66 5 1 C5.66 4.3 6.32 7.6 7 11 C-1.03571429 14.34821429 -1.03571429 14.34821429 -5 13 C-5.60606061 5.84848485 -5.60606061 5.84848485 -2.8125 1.9375 C-1.884375 1.298125 -0.95625 0.65875 0 0 Z " fill="#D8D7D4" transform="translate(254,189)"/>
<path d="M0 0 C3.82116982 0.32382795 5.62930359 1.08835716 8.6875 3.3125 C8.53569155 5.96914779 8.16738575 7.76467862 6.390625 9.79296875 C4.8125 11.1875 4.8125 11.1875 1.6875 13.3125 C-1.3125 12.3125 -1.3125 12.3125 -2.9375 10.0625 C-4.2812837 7.37493261 -5.0700001 5.30333215 -5.3125 2.3125 C-3.3125 0.3125 -3.3125 0.3125 0 0 Z " fill="#D8D7D4" transform="translate(134.3125,52.6875)"/>
<path d="M0 0 C3.58060962 0.07161219 5.52291402 0.71041402 8.125 3.3125 C7.47830586 4.65563399 6.80596422 5.98641178 6.125 7.3125 C5.67125 8.22 5.2175 9.1275 4.75 10.0625 C4.21375 10.805 3.6775 11.5475 3.125 12.3125 C1.805 12.3125 0.485 12.3125 -0.875 12.3125 C-1.535 11.3225 -2.195 10.3325 -2.875 9.3125 C-4.92503955 8.12017387 -4.92503955 8.12017387 -6.875 7.3125 C-6.05832709 2.14023823 -5.62536428 0.45365841 0 0 Z " fill="#D9D8D4" transform="translate(325.875,387.6875)"/>
<path d="M0 0 C1.4540625 0.0309375 1.4540625 0.0309375 2.9375 0.0625 C4.09813604 4.31816547 3.69923392 7.7460078 2.9375 12.0625 C-0.6925 11.7325 -4.3225 11.4025 -8.0625 11.0625 C-8.3925 9.4125 -8.7225 7.7625 -9.0625 6.0625 C-6.6875 3.3125 -6.6875 3.3125 -4.0625 1.0625 C-3.0625 0.0625 -3.0625 0.0625 0 0 Z " fill="#DCDBD8" transform="translate(147.0625,156.9375)"/>
<path d="M0 0 C4.35547638 0.66278988 6.78339257 3.44389742 9.875 6.4375 C9.545 8.0875 9.215 9.7375 8.875 11.4375 C5.14013121 12.0120952 1.66206732 12.4375 -2.125 12.4375 C-2.31901633 10.62568595 -2.50504375 8.81301468 -2.6875 7 C-2.79191406 5.99066406 -2.89632813 4.98132813 -3.00390625 3.94140625 C-3.04386719 3.11511719 -3.08382813 2.28882813 -3.125 1.4375 C-2.125 0.4375 -2.125 0.4375 0 0 Z " fill="#DBDAD6" transform="translate(324.125,692.5625)"/>
<path d="M0 0 C4.28950759 0.16498106 6.53376111 0.65032083 10 3.25 C10.66 4.1575 11.32 5.065 12 6 C11.67 7.65 11.34 9.3 11 11 C7.37 11.33 3.74 11.66 0 12 C-0.87890625 3.50390625 -0.87890625 3.50390625 -1 1 C-0.67 0.67 -0.34 0.34 0 0 Z " fill="#DCDBD7" transform="translate(301,678)"/>
<path d="M0 0 C0.9796875 0.00515625 1.959375 0.0103125 2.96875 0.015625 C3.9484375 0.01046875 4.928125 0.0053125 5.9375 0 C8.46875 0.265625 8.46875 0.265625 10.46875 2.265625 C10.46875 6.265625 10.46875 6.265625 8.21875 9.015625 C5.46875 11.265625 5.46875 11.265625 1.46875 11.265625 C-1.1678062 9.05827562 -3.10427433 7.26190156 -4.46875 4.078125 C-4.489375 3.48 -4.51 2.881875 -4.53125 2.265625 C-2.53125 0.265625 -2.53125 0.265625 0 0 Z " fill="#D9D8D4" transform="translate(350.53125,494.734375)"/>
<path d="M0 0 C0.7734375 0.00386719 1.546875 0.00773437 2.34375 0.01171875 C4.5 0.3125 4.5 0.3125 7.5 2.3125 C6.99111733 6.72281645 4.46550928 9.20577599 1.5 12.3125 C-1.5 12.3125 -1.5 12.3125 -4.125 10.0625 C-7.5 6.15460526 -7.5 6.15460526 -7.5 3.3125 C-5.24641078 0.35827568 -3.65148596 -0.07911553 0 0 Z " fill="#DCDBD7" transform="translate(352.5,385.6875)"/>
<path d="M0 0 C3.92592258 0.26172817 5.76711336 0.71906588 8.75 3.25 C8.75 4.57 8.75 5.89 8.75 7.25 C8.13125 7.518125 7.5125 7.78625 6.875 8.0625 C4.4504767 9.20556848 4.4504767 9.20556848 2.75 12.25 C-0.30957468 11.92218843 -1.30836134 11.19321599 -3.5625 9 C-5.25 6.25 -5.25 6.25 -5.0625 3.5 C-3.8248268 0.0725973 -3.84616119 0.29585855 0 0 Z " fill="#DCDBD7" transform="translate(108.25,49.75)"/>
<path d="M0 0 C3.62716299 0.02604785 5.54755703 0.61005703 8.1875 3.25 C7.71503358 7.50219775 5.41477623 9.62314725 2.1875 12.25 C0.1875 12.4375 0.1875 12.4375 -1.8125 11.25 C-3.64093672 9.33749722 -5.19746965 7.35851185 -6.8125 5.25 C-4.41217231 0.28932277 -4.41217231 0.28932277 0 0 Z " fill="#DBDAD6" transform="translate(326.8125,493.75)"/>
<path d="M0 0 C1.36884358 4.51718381 0.47075246 7.58774263 -1 12 C-4.8063457 11.32829194 -8.35206816 10.27253436 -12 9 C-12.3125 6.75 -12.3125 6.75 -12 4 C-8.2996981 -0.14882334 -5.40488073 -0.42391221 0 0 Z " fill="#DCDBD7" transform="translate(336,275)"/>
<path d="M0 0 C3.25335322 0.21217521 5.33680929 0.44734107 7.875 2.5625 C9.52772156 6.14339672 9.19618208 9.07635835 9 13 C4.96860286 12.44667098 0.98535436 11.81909701 -3 11 C-2.69217504 9.35328588 -2.37860766 7.70764424 -2.0625 6.0625 C-1.88847656 5.14597656 -1.71445313 4.22945312 -1.53515625 3.28515625 C-1 1 -1 1 0 0 Z " fill="#DDDCD9" transform="translate(226,749)"/>
<path d="M0 0 C2.6875 0.375 2.6875 0.375 5 2.4375 C7.04502198 5.99735307 7.00447773 8.33353394 6.6875 12.375 C1.75479471 14.0192351 -0.85274193 12.56115592 -5.3125 10.375 C-5.00451674 8.89488629 -4.690982 7.41592675 -4.375 5.9375 C-4.20097656 5.11378906 -4.02695313 4.29007813 -3.84765625 3.44140625 C-3.10873051 0.58818204 -2.94318307 0.47727293 0 0 Z " fill="#DEDDD9" transform="translate(216.3125,725.625)"/>
<path d="M0 0 C0.66 0.66 1.32 1.32 2 2 C1.625 4.625 1.625 4.625 1 7 C0.34 7 -0.32 7 -1 7 C-1.66 8.65 -2.32 10.3 -3 12 C-3.99 12 -4.98 12 -6 12 C-6.66 11.01 -7.32 10.02 -8 9 C-10.05003955 7.80767387 -10.05003955 7.80767387 -12 7 C-11.6875 4.625 -11.6875 4.625 -11 2 C-6.93150591 -0.71232939 -4.83523216 -0.30699887 0 0 Z " fill="#DEDDD9" transform="translate(341,590)"/>
<path d="M0 0 C1.19109375 -0.00386719 1.19109375 -0.00386719 2.40625 -0.0078125 C4.5 0.125 4.5 0.125 6.5 1.125 C5.96884894 5.63978398 4.13379708 8.47166857 1.5 12.125 C-1.93595166 10.59791037 -4.61912454 8.52572955 -7.5 6.125 C-7.125 3.6875 -7.125 3.6875 -6.5 1.125 C-4.13386544 -0.05806728 -2.63219264 -0.00854608 0 0 Z " fill="#DFDEDA" transform="translate(362.5,586.875)"/>
<path d="M0 0 C1 1 1 1 1.0625 4.5625 C1.041875 5.696875 1.02125 6.83125 1 8 C-2.875 7.125 -2.875 7.125 -4 6 C-4.66 7.65 -5.32 9.3 -6 11 C-7.32 10.67 -8.64 10.34 -10 10 C-10 7.69 -10 5.38 -10 3 C-8.35 2.67 -6.7 2.34 -5 2 C-5 1.34 -5 0.68 -5 0 C-7.64 0 -10.28 0 -13 0 C-13 -0.33 -13 -0.66 -13 -1 C-7.97559361 -2.00488128 -4.73538389 -2.02945024 0 0 Z " fill="#555453" transform="translate(358,367)"/>
<path d="M0 0 C0.66 0.99 1.32 1.98 2 3 C3.66614608 3.04165365 5.33385392 3.04165365 7 3 C9 5 9 5 9.125 7.625 C9.08375 8.40875 9.0425 9.1925 9 10 C8.01 10 7.02 10 6 10 C6 11.65 6 13.3 6 15 C3.625 14.8125 3.625 14.8125 1 14 C-0.125 11.5 -0.125 11.5 -1 9 C-1.99 8.67 -2.98 8.34 -4 8 C-3.01 7.67 -2.02 7.34 -1 7 C-0.67 4.69 -0.34 2.38 0 0 Z " fill="#4A4948" transform="translate(171,146)"/>
<path d="M0 0 C0.33 0 0.66 0 1 0 C1.12375 1.11375 1.2475 2.2275 1.375 3.375 C1.6465813 7.03103677 1.6465813 7.03103677 4 9 C4.125 11.625 4.125 11.625 4 14 C1.83125748 13.49396008 0.00032373 13.00016187 -2 12 C-2.33 12.99 -2.66 13.98 -3 15 C-4.32 14.67 -5.64 14.34 -7 14 C-7.33 12.02 -7.66 10.04 -8 8 C-7.01 7.67 -6.02 7.34 -5 7 C-4.67 6.34 -4.34 5.68 -4 5 C-2.68 5.33 -1.36 5.66 0 6 C0 4.02 0 2.04 0 0 Z " fill="#4E4D4B" transform="translate(312,293)"/>
<path d="M0 0 C1.485 0.99 1.485 0.99 3 2 C4.32 1.34 5.64 0.68 7 0 C8 1 8 1 8.0625 4.0625 C8.041875 5.031875 8.02125 6.00125 8 7 C6.125 8.0625 6.125 8.0625 4 9 C3.34 8.67 2.68 8.34 2 8 C2 7.34 2 6.68 2 6 C1.34 6 0.68 6 0 6 C0 4.02 0 2.04 0 0 Z " fill="#BDBCB9" transform="translate(175,811)"/>
<path d="M0 0 C0.94875 0.04125 1.8975 0.0825 2.875 0.125 C3.205 1.445 3.535 2.765 3.875 4.125 C0.64708445 6.2769437 -0.40900809 6.32586443 -4.125 6.125 C-4.75 4.25 -4.75 4.25 -5.125 2.125 C-3.125 0.125 -3.125 0.125 0 0 Z " fill="#C4C4C0" transform="translate(245.125,738.875)"/>
<path d="M0 0 C3.875 0.875 3.875 0.875 5 2 C5.04080783 3.99958364 5.04254356 6.00045254 5 8 C3.68 8.33 2.36 8.66 1 9 C-1 6 -1 6 -0.625 2.8125 C-0.41875 1.884375 -0.2125 0.95625 0 0 Z " fill="#C6C5C2" transform="translate(142,35)"/>
<path d="M0 0 C1.98 0.495 1.98 0.495 4 1 C5.125 6.75 5.125 6.75 4 9 C0.125 8.125 0.125 8.125 -1 7 C-0.71269945 4.66055264 -0.38063221 2.3260857 0 0 Z " fill="#CCCBC7" transform="translate(359,570)"/>
<path d="M0 0 C0.598125 0.20625 1.19625 0.4125 1.8125 0.625 C1.23905063 3.49224686 0.9510485 4.4864515 -1.1875 6.625 C-3.8125 6.75 -3.8125 6.75 -6.1875 6.625 C-5.875 4.25 -5.875 4.25 -5.1875 1.625 C-2.1875 -0.375 -2.1875 -0.375 0 0 Z " fill="#CECDC9" transform="translate(315.1875,661.375)"/>
<path d="M0 0 C3.875 0.875 3.875 0.875 5 2 C5.04080783 3.99958364 5.04254356 6.00045254 5 8 C3.68 8 2.36 8 1 8 C-1 5 -1 5 -0.625 2.3125 C-0.41875 1.549375 -0.2125 0.78625 0 0 Z " fill="#CFCECA" transform="translate(339,570)"/>
<path d="M0 0 C3.875 0.875 3.875 0.875 5 2 C5.04063832 3.66617115 5.042721 5.33388095 5 7 C3.02 7.99 3.02 7.99 1 9 C-1 6 -1 6 -0.625 2.8125 C-0.41875 1.884375 -0.2125 0.95625 0 0 Z " fill="#CECDC9" transform="translate(322,372)"/>
<path d="M0 0 C1.67542976 0.28604898 3.34385343 0.61781233 5 1 C5.125 3.375 5.125 3.375 5 6 C4.34 6.66 3.68 7.32 3 8 C0.875 7.625 0.875 7.625 -1 7 C-1.04254356 5.00045254 -1.04080783 2.99958364 -1 1 C-0.67 0.67 -0.34 0.34 0 0 Z " fill="#CAC9C6" transform="translate(341,368)"/>
<path d="M0 0 C0.99 0 1.98 0 3 0 C3.33 2.31 3.66 4.62 4 7 C2.02 7.99 2.02 7.99 0 9 C-0.66 8.34 -1.32 7.68 -2 7 C-1.43181818 1.43181818 -1.43181818 1.43181818 0 0 Z " fill="#CFCECA" transform="translate(136,37)"/>
<path d="M0 0 C1.32 0.66 2.64 1.32 4 2 C3.67 3.98 3.34 5.96 3 8 C1.68 8.33 0.36 8.66 -1 9 C-1.625 6.1875 -1.625 6.1875 -2 3 C-1.34 2.01 -0.68 1.02 0 0 Z " fill="#CFCECA" transform="translate(353,568)"/>
<path d="M0 0 C3.69230769 0.69230769 3.69230769 0.69230769 5 2 C5.04063832 3.66617115 5.042721 5.33388095 5 7 C3.35 7.33 1.7 7.66 0 8 C-0.38063221 5.6739143 -0.71269945 3.33944736 -1 1 C-0.67 0.67 -0.34 0.34 0 0 Z " fill="#CCCBC8" transform="translate(332,475)"/>
<path d="M0 0 C1.875 0.3125 1.875 0.3125 4 1 C6 4 6 4 5.625 6.1875 C5.41875 6.785625 5.2125 7.38375 5 8 C2.13275314 7.42655063 1.1385485 7.1385485 -1 5 C-0.625 2.375 -0.625 2.375 0 0 Z " fill="#CCCBC8" transform="translate(132,146)"/>
<path d="M0 0 C1.32 0 2.64 0 4 0 C4.125 2.375 4.125 2.375 4 5 C2 7 2 7 -0.625 7.125 C-1.40875 7.08375 -2.1925 7.0425 -3 7 C-2.25 2.25 -2.25 2.25 0 0 Z " fill="#CECDC9" transform="translate(250,750)"/>
<path d="M0 0 C0.94875 0.04125 1.8975 0.0825 2.875 0.125 C2.545 1.775 2.215 3.425 1.875 5.125 C-0.105 5.455 -2.085 5.785 -4.125 6.125 C-4.75 4.25 -4.75 4.25 -5.125 2.125 C-3.125 0.125 -3.125 0.125 0 0 Z " fill="#CDCCC9" transform="translate(246.125,745.875)"/>
<path d="M0 0 C0.94875 0.04125 1.8975 0.0825 2.875 0.125 C2.545 1.775 2.215 3.425 1.875 5.125 C-0.105 5.455 -2.085 5.785 -4.125 6.125 C-4.75 4.25 -4.75 4.25 -5.125 2.125 C-3.125 0.125 -3.125 0.125 0 0 Z " fill="#CECDC9" transform="translate(234.125,722.875)"/>
<path d="M0 0 C2.125 0.375 2.125 0.375 4 1 C3.67 2.98 3.34 4.96 3 7 C1.35 7.33 -0.3 7.66 -2 8 C-2.125 5.125 -2.125 5.125 -2 2 C-1.34 1.34 -0.68 0.68 0 0 Z " fill="#CFCECB" transform="translate(344,684)"/>
<path d="M0 0 C3.69230769 0.69230769 3.69230769 0.69230769 5 2 C5.04063832 3.66617115 5.042721 5.33388095 5 7 C3.125 7.625 3.125 7.625 1 8 C-1 6 -1 6 -1.1875 3.4375 C-1 1 -1 1 0 0 Z " fill="#D0CFCB" transform="translate(333,574)"/>
<path d="M0 0 C2.125 0.375 2.125 0.375 4 1 C4.125 3.375 4.125 3.375 4 6 C3.34 6.66 2.68 7.32 2 8 C-0.125 7.625 -0.125 7.625 -2 7 C-2.125 4.625 -2.125 4.625 -2 2 C-1.34 1.34 -0.68 0.68 0 0 Z " fill="#CECDC9" transform="translate(327,572)"/>
<path d="M0 0 C3.69230769 0.69230769 3.69230769 0.69230769 5 2 C5.04080783 3.99958364 5.04254356 6.00045254 5 8 C3.35 7.67 1.7 7.34 0 7 C-0.38133299 5.0085944 -0.71325582 3.00720923 -1 1 C-0.67 0.67 -0.34 0.34 0 0 Z " fill="#D0CFCB" transform="translate(365,567)"/>
<path d="M0 0 C4.875 0.875 4.875 0.875 6 2 C6.04063832 3.66617115 6.042721 5.33388095 6 7 C4.68 7.33 3.36 7.66 2 8 C-0.1519437 4.77208445 -0.20086443 3.71599191 0 0 Z " fill="#D0CFCB" transform="translate(357,476)"/>
<path d="M0 0 C2.125 0.375 2.125 0.375 4 1 C4.125 3.375 4.125 3.375 4 6 C3.34 6.66 2.68 7.32 2 8 C-0.125 7.625 -0.125 7.625 -2 7 C-2.125 4.625 -2.125 4.625 -2 2 C-1.34 1.34 -0.68 0.68 0 0 Z " fill="#D0CFCB" transform="translate(316,370)"/>
<path d="M0 0 C2.5625 0.1875 2.5625 0.1875 4.5625 2.1875 C4.5625 3.5075 4.5625 4.8275 4.5625 6.1875 C2.2525 5.8575 -0.0575 5.5275 -2.4375 5.1875 C-3 3.25 -3 3.25 -3.4375 1.1875 C-2.4375 0.1875 -2.4375 0.1875 0 0 Z " fill="#CECDCA" transform="translate(238.4375,178.8125)"/>
<path d="M0 0 C3.69230769 0.69230769 3.69230769 0.69230769 5 2 C5.04080783 3.99958364 5.04254356 6.00045254 5 8 C3.35 7.67 1.7 7.34 0 7 C-0.38133299 5.0085944 -0.71325582 3.00720923 -1 1 C-0.67 0.67 -0.34 0.34 0 0 Z " fill="#D2D1CE" transform="translate(146,132)"/>
<path d="M0 0 C1.32 0 2.64 0 4 0 C4.1875 2.375 4.1875 2.375 4 5 C1 7 1 7 -3 7 C-2.25 2.25 -2.25 2.25 0 0 Z " fill="#D0CFCC" transform="translate(238,727)"/>
<path d="M0 0 C1.32 0 2.64 0 4 0 C3.125 5.875 3.125 5.875 2 7 C0.33382885 7.04063832 -1.33388095 7.042721 -3 7 C-2.25 2.25 -2.25 2.25 0 0 Z " fill="#D4D2CF" transform="translate(337,683)"/>
<path d="M0 0 C2.86724686 0.57344937 3.8614515 0.8614515 6 3 C6.125 5.625 6.125 5.625 6 8 C1.125 7.125 1.125 7.125 0 6 C-0.04080783 4.00041636 -0.04254356 1.99954746 0 0 Z " fill="#D3D2CF" transform="translate(319,262)"/>
<path d="M0 0 C5.875 0.875 5.875 0.875 7 2 C7.04063832 3.66617115 7.042721 5.33388095 7 7 C2.25 6.25 2.25 6.25 0 4 C0 2.68 0 1.36 0 0 Z " fill="#D2D1CD" transform="translate(218,214)"/>
<path d="M0 0 C2.4375 0.1875 2.4375 0.1875 5 1 C6.3125 3.0625 6.3125 3.0625 7 5 C6 6 6 6 2.9375 6.0625 C1.968125 6.041875 0.99875 6.02125 0 6 C-0.38218767 4.34385343 -0.71395102 2.67542976 -1 1 C-0.67 0.67 -0.34 0.34 0 0 Z " fill="#D1D0CC" transform="translate(225,202)"/>
<path d="M0 0 C4.75 0.75 4.75 0.75 7 3 C7 4.32 7 5.64 7 7 C4.625 7.125 4.625 7.125 2 7 C0 5 0 5 -0.125 2.375 C-0.08375 1.59125 -0.0425 0.8075 0 0 Z " fill="#D0CFCB" transform="translate(135,140)"/>
<path d="M0 0 C1.4540625 0.0309375 1.4540625 0.0309375 2.9375 0.0625 C3.2675 1.3825 3.5975 2.7025 3.9375 4.0625 C1.22870665 5.41689668 -1.07183268 5.12751451 -4.0625 5.0625 C-4.0625 0.08290816 -4.0625 0.08290816 0 0 Z " fill="#D3D2CE" transform="translate(233.0625,715.9375)"/>
<path d="M0 0 C1.32 0 2.64 0 4 0 C3.25 5.75 3.25 5.75 1 8 C0.01 8 -0.98 8 -2 8 C-2.125 5.125 -2.125 5.125 -2 2 C-1.34 1.34 -0.68 0.68 0 0 Z " fill="#D5D4D1" transform="translate(323,669)"/>
<path d="M0 0 C0.99 0 1.98 0 3 0 C3.33 2.31 3.66 4.62 4 7 C2.02 7.99 2.02 7.99 0 9 C-1 8 -1 8 -1.125 4.5 C-1 1 -1 1 0 0 Z " fill="#D8D7D3" transform="translate(352,478)"/>
<path d="M0 0 C2.475 0.495 2.475 0.495 5 1 C5 2.98 5 4.96 5 7 C3.35 7.33 1.7 7.66 0 8 C0 5.36 0 2.72 0 0 Z " fill="#D1D0CC" transform="translate(325,478)"/>
<path d="M0 0 C3.875 1.875 3.875 1.875 5 3 C5.04063832 4.66617115 5.042721 6.33388095 5 8 C0.125 7.125 0.125 7.125 -1 6 C-1.125 3.5 -1.125 3.5 -1 1 C-0.67 0.67 -0.34 0.34 0 0 Z " fill="#D6D5D1" transform="translate(297,274)"/>
<path d="M0 0 C2.86724686 0.57344937 3.8614515 0.8614515 6 3 C6 4.32 6 5.64 6 7 C3.625 7.1875 3.625 7.1875 1 7 C-1 4 -1 4 -0.625 1.8125 C-0.41875 1.214375 -0.2125 0.61625 0 0 Z " fill="#D3D2CF" transform="translate(301,269)"/>
<path d="M0 0 C4.75 0.875 4.75 0.875 7 2 C7 3.65 7 5.3 7 7 C2.25 6.25 2.25 6.25 0 4 C0 2.68 0 1.36 0 0 Z " fill="#D4D3CF" transform="translate(323,257)"/>
<path d="M0 0 C2.375 -0.125 2.375 -0.125 5 0 C5.66 0.66 6.32 1.32 7 2 C6.625 4.625 6.625 4.625 6 7 C3.5625 6.3125 3.5625 6.3125 1 5 C0.1875 2.375 0.1875 2.375 0 0 Z " fill="#D5D4D0" transform="translate(230,191)"/>
<path d="M0 0 C2.125 0.375 2.125 0.375 4 1 C3.25 5.75 3.25 5.75 1 8 C0.01 8 -0.98 8 -2 8 C-2.125 5.125 -2.125 5.125 -2 2 C-1.34 1.34 -0.68 0.68 0 0 Z " fill="#D7D6D2" transform="translate(130,34)"/>
<path d="M0 0 C0.99 0.33 1.98 0.66 3 1 C2.25 5.75 2.25 5.75 0 8 C-0.99 8 -1.98 8 -3 8 C-3.1875 5.125 -3.1875 5.125 -3 2 C-2.01 1.34 -1.02 0.68 0 0 Z " fill="#D4D3CF" transform="translate(317,667)"/>
<path d="M0 0 C0.99 0.33 1.98 0.66 3 1 C3 2.98 3 4.96 3 7 C1.02 7.99 1.02 7.99 -1 9 C-2 8 -2 8 -2.1875 5.0625 C-2 2 -2 2 0 0 Z " fill="#D8D8D4" transform="translate(346,475)"/>
<path d="M0 0 C1.32 0 2.64 0 4 0 C4.125 5.75 4.125 5.75 3 8 C1.68 8 0.36 8 -1 8 C-1.04241723 5.66705225 -1.04092937 3.33297433 -1 1 C-0.67 0.67 -0.34 0.34 0 0 Z " fill="#D4D3D0" transform="translate(319,475)"/>
<path d="M0 0 C3.63 0 7.26 0 11 0 C11 0.66 11 1.32 11 2 C9.68 2.33 8.36 2.66 7 3 C7 5.64 7 8.28 7 11 C6.34 11 5.68 11 5 11 C5 10.01 5 9.02 5 8 C4.34 7.67 3.68 7.34 3 7 C3.061875 6.21625 3.12375 5.4325 3.1875 4.625 C3.125625 3.75875 3.06375 2.8925 3 2 C2.01 1.34 1.02 0.68 0 0 Z " fill="#2C2B2A" transform="translate(342,367)"/>
<path d="M0 0 C2.875 -0.125 2.875 -0.125 6 0 C6.66 0.66 7.32 1.32 8 2 C7.625 4.125 7.625 4.125 7 6 C2.25 5.25 2.25 5.25 0 3 C0 2.01 0 1.02 0 0 Z " fill="#D7D6D3" transform="translate(223,210)"/>
<path d="M0 0 C4.75 0.75 4.75 0.75 7 3 C7 3.99 7 4.98 7 6 C4.125 6.125 4.125 6.125 1 6 C0.34 5.34 -0.32 4.68 -1 4 C-0.625 1.875 -0.625 1.875 0 0 Z " fill="#D9D8D4" transform="translate(236,186)"/>
<path d="M0 0 C4.75 0.75 4.75 0.75 7 3 C7 4.32 7 5.64 7 7 C2.25 6.25 2.25 6.25 0 4 C0 2.68 0 1.36 0 0 Z " fill="#D8D7D3" transform="translate(152,131)"/>
<path d="M0 0 C1.32 0 2.64 0 4 0 C3.25 4.75 3.25 4.75 1 7 C-1.125 6.625 -1.125 6.625 -3 6 C-2.42655063 3.13275314 -2.1385485 2.1385485 0 0 Z " fill="#D8D7D3" transform="translate(333,677)"/>
<path d="M0 0 C2.475 0.495 2.475 0.495 5 1 C5 3.31 5 5.62 5 8 C1.125 7.125 1.125 7.125 0 6 C-0.04080783 4.00041636 -0.04254356 1.99954746 0 0 Z " fill="#D7D6D3" transform="translate(354,367)"/>
<path d="M0 0 C2.86724686 0.57344937 3.8614515 0.8614515 6 3 C6 4.32 6 5.64 6 7 C1.25 6.25 1.25 6.25 -1 4 C-0.625 1.875 -0.625 1.875 0 0 Z " fill="#C5C4C1" transform="translate(315,295)"/>
<path d="M0 0 C2.475 0.495 2.475 0.495 5 1 C5 3.31 5 5.62 5 8 C1.125 7.125 1.125 7.125 0 6 C-0.04080783 4.00041636 -0.04254356 1.99954746 0 0 Z " fill="#D7D6D2" transform="translate(289,275)"/>
<path d="M0 0 C2.475 0.495 2.475 0.495 5 1 C5 3.31 5 5.62 5 8 C1.125 7.125 1.125 7.125 0 6 C-0.04080783 4.00041636 -0.04254356 1.99954746 0 0 Z " fill="#D7D6D2" transform="translate(312,263)"/>
<path d="M0 0 C2.0625 0.4375 2.0625 0.4375 4 1 C3.67 3.31 3.34 5.62 3 8 C1.68 8 0.36 8 -1 8 C-1.04241723 5.66705225 -1.04092937 3.33297433 -1 1 C-0.67 0.67 -0.34 0.34 0 0 Z " fill="#D7D6D2" transform="translate(110,34)"/>
<path d="M0 0 C1.2065625 0.0309375 1.2065625 0.0309375 2.4375 0.0625 C3 2 3 2 3.4375 4.0625 C2.4375 5.0625 2.4375 5.0625 -1.125 5.125 C-2.259375 5.104375 -3.39375 5.08375 -4.5625 5.0625 C-3.43829114 0.08386076 -3.43829114 0.08386076 0 0 Z " fill="#C6C5C2" transform="translate(206.5625,728.9375)"/>
<path d="M0 0 C1.32 0 2.64 0 4 0 C5.35439668 2.70879335 5.06501451 5.00933268 5 8 C1.125 7.125 1.125 7.125 0 6 C-0.04080783 4.00041636 -0.04254356 1.99954746 0 0 Z " fill="#D8D7D3" transform="translate(125,148)"/>
<path d="M0 0 C4.75 0.75 4.75 0.75 7 3 C7 3.99 7 4.98 7 6 C2.44615385 6.36923077 2.44615385 6.36923077 0.1875 4.5 C-0.204375 4.005 -0.59625 3.51 -1 3 C-0.67 2.01 -0.34 1.02 0 0 Z " fill="#DCDBD8" transform="translate(156,125)"/>
<path d="M0 0 C-0.33 1.32 -0.66 2.64 -1 4 C-3.31 4 -5.62 4 -8 4 C-7.625 2.0625 -7.625 2.0625 -7 0 C-4.3333581 -1.33332095 -2.83319697 -0.67102033 0 0 Z " fill="#C7C6C2" transform="translate(222,753)"/>
<path d="M0 0 C2.0625 0.4375 2.0625 0.4375 4 1 C4 2.98 4 4.96 4 7 C2.68 7 1.36 7 0 7 C-1 6 -1 6 -1.125 3.5 C-1 1 -1 1 0 0 Z " fill="#CECDCA" transform="translate(362,600)"/>
<path d="M0 0 C2.0625 0.4375 2.0625 0.4375 4 1 C4 2.65 4 4.3 4 6 C2.02 6.99 2.02 6.99 0 8 C-1 7 -1 7 -1.125 4 C-1 1 -1 1 0 0 Z " fill="#C8C7C4" transform="translate(356,598)"/>
<path d="M0 0 C2.0625 0.4375 2.0625 0.4375 4 1 C4 2.98 4 4.96 4 7 C2.68 7 1.36 7 0 7 C-1 6 -1 6 -1.125 3.5 C-1 1 -1 1 0 0 Z " fill="#CAC9C5" transform="translate(332,505)"/>
<path d="M0 0 C3.875 0.875 3.875 0.875 5 2 C5.04080783 3.99958364 5.04254356 6.00045254 5 8 C1.125 7.125 1.125 7.125 0 6 C-0.04080783 4.00041636 -0.04254356 1.99954746 0 0 Z " fill="#E1DFDC" transform="translate(328,369)"/>
<path d="M0 0 C1.9375 0.6875 1.9375 0.6875 4 2 C4.75 4.625 4.75 4.625 5 7 C3.68 7 2.36 7 1 7 C0.34 6.34 -0.32 5.68 -1 5 C-0.625 2.375 -0.625 2.375 0 0 Z " fill="#CDCBC8" transform="translate(165,155)"/>
<path d="M0 0 C2.0625 0.4375 2.0625 0.4375 4 1 C4 2.65 4 4.3 4 6 C2.02 6.99 2.02 6.99 0 8 C-1 7 -1 7 -1.125 4 C-1 1 -1 1 0 0 Z " fill="#CDCCC9" transform="translate(133,67)"/>
<path d="M0 0 C2.0625 0.4375 2.0625 0.4375 4 1 C4 2.98 4 4.96 4 7 C2.68 7 1.36 7 0 7 C-1 6 -1 6 -1.125 3.5 C-1 1 -1 1 0 0 Z " fill="#CCCBC7" transform="translate(139,65)"/>
<path d="M0 0 C1.32 0.66 2.64 1.32 4 2 C4 3.65 4 5.3 4 7 C2.0625 7.5625 2.0625 7.5625 0 8 C-1 7 -1 7 -1.125 4 C-1 1 -1 1 0 0 Z " fill="#E0DFDB" transform="translate(117,32)"/>
<path d="M0 0 C1.32 0 2.64 0 4 0 C3.125 4.875 3.125 4.875 2 6 C0.33382885 6.04063832 -1.33388095 6.042721 -3 6 C-2.42655063 3.13275314 -2.1385485 2.1385485 0 0 Z " fill="#C6C5C2" transform="translate(211,739)"/>
<path d="M0 0 C0.99 0 1.98 0 3 0 C4.35439668 2.70879335 4.06501451 5.00933268 4 8 C2.68 7.67 1.36 7.34 0 7 C-0.38133299 5.0085944 -0.71325582 3.00720923 -1 1 C-0.67 0.67 -0.34 0.34 0 0 Z " fill="#C9C8C5" transform="translate(328,288)"/>
<path d="M0 0 C4.75 0.75 4.75 0.75 7 3 C7 3.99 7 4.98 7 6 C4.625 6.125 4.625 6.125 2 6 C1.34 5.34 0.68 4.68 0 4 C0 2.68 0 1.36 0 0 Z " fill="#D1D0CD" transform="translate(245,226)"/>
<path d="M0 0 C1.67542976 0.28604898 3.34385343 0.61781233 5 1 C5.33 2.65 5.66 4.3 6 6 C3.03 5.505 3.03 5.505 0 5 C-0.5625 3.0625 -0.5625 3.0625 -1 1 C-0.67 0.67 -0.34 0.34 0 0 Z " fill="#D1D0CC" transform="translate(251,222)"/>
<path d="M0 0 C2.97 0.495 2.97 0.495 6 1 C6.33 2.32 6.66 3.64 7 5 C5.1875 5.625 5.1875 5.625 3 6 C2.01 5.34 1.02 4.68 0 4 C0 2.68 0 1.36 0 0 Z " fill="#D1D0CC" transform="translate(262,199)"/>
<path d="M0 0 C1.98 0 3.96 0 6 0 C6.66 1.32 7.32 2.64 8 4 C7 5 7 5 4.5625 5.1875 C2 5 2 5 0 3 C0 2.01 0 1.02 0 0 Z " fill="#D1D0CC" transform="translate(262,193)"/>
<path d="M0 0 C0.99 0 1.98 0 3 0 C3 1.98 3 3.96 3 6 C1.02 6.99 1.02 6.99 -1 8 C-2 7 -2 7 -2.1875 4.5625 C-2 2 -2 2 0 0 Z " fill="#CDCCC8" transform="translate(102,60)"/>
<path d="M0 0 C0.99 0 1.98 0 3 0 C3 1.98 3 3.96 3 6 C1.02 6.99 1.02 6.99 -1 8 C-2 7 -2 7 -2.1875 4.5625 C-2 2 -2 2 0 0 Z " fill="#DEDDD9" transform="translate(104,31)"/>
<path d="M0 0 C2.125 0.375 2.125 0.375 4 1 C3.42655063 3.86724686 3.1385485 4.8614515 1 7 C0.01 7 -0.98 7 -2 7 C-2.125 4.625 -2.125 4.625 -2 2 C-1.34 1.34 -0.68 0.68 0 0 Z " fill="#D4D3CF" transform="translate(319,706)"/>
<path d="M0 0 C-0.66 1.65 -1.32 3.3 -2 5 C-3.65 5 -5.3 5 -7 5 C-6.625 2.5625 -6.625 2.5625 -6 0 C-3.50907189 -1.24546405 -2.58919267 -0.7767578 0 0 Z " fill="#D0CFCB" transform="translate(299,686)"/>
<path d="M0 0 C3.875 0.875 3.875 0.875 5 2 C5.04063832 3.66617115 5.042721 5.33388095 5 7 C3.68 7 2.36 7 1 7 C0.67 4.69 0.34 2.38 0 0 Z " fill="#D4D3D0" transform="translate(341,600)"/>
<path d="M0 0 C2.0625 0.4375 2.0625 0.4375 4 1 C4.1875 3.375 4.1875 3.375 4 6 C3.01 6.66 2.02 7.32 1 8 C-1 6 -1 6 -1.1875 3.4375 C-1 1 -1 1 0 0 Z " fill="#D4D3CF" transform="translate(352,508)"/>
<path d="M0 0 C0.99 0.33 1.98 0.66 3 1 C3 2.65 3 4.3 3 6 C1.02 6.99 1.02 6.99 -1 8 C-2 7 -2 7 -2.1875 4.5625 C-2 2 -2 2 0 0 Z " fill="#D2D1CD" transform="translate(347,505)"/>
<path d="M0 0 C1.32 0 2.64 0 4 0 C3.67 2.31 3.34 4.62 3 7 C1.68 7 0.36 7 -1 7 C-1.04254356 5.00045254 -1.04080783 2.99958364 -1 1 C-0.67 0.67 -0.34 0.34 0 0 Z " fill="#CECDC9" transform="translate(320,505)"/>
<path d="M0 0 C2.475 0.495 2.475 0.495 5 1 C5 2.65 5 4.3 5 6 C3.0625 6.5625 3.0625 6.5625 1 7 C0 6 0 6 -0.0625 2.9375 C-0.041875 1.968125 -0.02125 0.99875 0 0 Z " fill="#D0CFCB" transform="translate(325,402)"/>
<path d="M0 0 C0.99 0 1.98 0 3 0 C3.625 2.3125 3.625 2.3125 4 5 C3.01 6.485 3.01 6.485 2 8 C1.01 7.67 0.02 7.34 -1 7 C-1.04254356 5.00045254 -1.04080783 2.99958364 -1 1 C-0.67 0.67 -0.34 0.34 0 0 Z " fill="#D0D0CC" transform="translate(346,397)"/>
<path d="M0 0 C1.32 0.33 2.64 0.66 4 1 C4.33 2.98 4.66 4.96 5 7 C3.68 7 2.36 7 1 7 C0 6 0 6 -0.0625 2.9375 C-0.041875 1.968125 -0.02125 0.99875 0 0 Z " fill="#D2D1CE" transform="translate(357,396)"/>
<path d="M0 0 C2.86724686 0.57344937 3.8614515 0.8614515 6 3 C5.625 5.125 5.625 5.125 5 7 C1.125 6.125 1.125 6.125 0 5 C-0.04063832 3.33382885 -0.042721 1.66611905 0 0 Z " fill="#CFCECA" transform="translate(338,283)"/>
<path d="M0 0 C1.2065625 0.0309375 1.2065625 0.0309375 2.4375 0.0625 C3.0975 1.3825 3.7575 2.7025 4.4375 4.0625 C3.4375 5.0625 3.4375 5.0625 0.875 5.125 C-0.3315625 5.0940625 -0.3315625 5.0940625 -1.5625 5.0625 C-2.2225 3.7425 -2.8825 2.4225 -3.5625 1.0625 C-2.5625 0.0625 -2.5625 0.0625 0 0 Z " fill="#D6D5D1" transform="translate(253.5625,215.9375)"/>
<path d="M0 0 C0.99 0.33 1.98 0.66 3 1 C2.125 5.75 2.125 5.75 1 8 C0.01 8 -0.98 8 -2 8 C-2.125 5.125 -2.125 5.125 -2 2 C-1.34 1.34 -0.68 0.68 0 0 Z " fill="#D2D1CE" transform="translate(326,707)"/>
<path d="M0 0 C2.0625 0.4375 2.0625 0.4375 4 1 C4 2.65 4 4.3 4 6 C2.0625 6.5625 2.0625 6.5625 0 7 C-1 6 -1 6 -1.125 3.5 C-1 1 -1 1 0 0 Z " fill="#D2D1CE" transform="translate(326,508)"/>
<path d="M0 0 C2.475 0.495 2.475 0.495 5 1 C5 2.98 5 4.96 5 7 C1.125 6.125 1.125 6.125 0 5 C-0.04063832 3.33382885 -0.042721 1.66611905 0 0 Z " fill="#D2D1CE" transform="translate(357,506)"/>
<path d="M0 0 C2.475 0.495 2.475 0.495 5 1 C5 2.65 5 4.3 5 6 C3.68 6.33 2.36 6.66 1 7 C0.67 4.69 0.34 2.38 0 0 Z " fill="#D1D0CC" transform="translate(351,400)"/>
<path d="M0 0 C1.32 0 2.64 0 4 0 C3.67 1.65 3.34 3.3 3 5 C1.35 5.33 -0.3 5.66 -2 6 C-1.125 1.125 -1.125 1.125 0 0 Z " fill="#D6D5D2" transform="translate(315,701)"/>
<path d="M0 0 C1.32 0 2.64 0 4 0 C3.67 1.98 3.34 3.96 3 6 C1.68 6.33 0.36 6.66 -1 7 C-1.04254356 5.00045254 -1.04080783 2.99958364 -1 1 C-0.67 0.67 -0.34 0.34 0 0 Z " fill="#D0CFCB" transform="translate(304,692)"/>
<path d="M0 0 C2.475 0.495 2.475 0.495 5 1 C5 2.65 5 4.3 5 6 C3.68 6 2.36 6 1 6 C0 5 0 5 -0.0625 2.4375 C-0.041875 1.633125 -0.02125 0.82875 0 0 Z " fill="#D1D0CC" transform="translate(335,604)"/>
<path d="M0 0 C2.0625 0.4375 2.0625 0.4375 4 1 C3.67 2.98 3.34 4.96 3 7 C1.68 6.67 0.36 6.34 -1 6 C-1.042721 4.33388095 -1.04063832 2.66617115 -1 1 C-0.67 0.67 -0.34 0.34 0 0 Z " fill="#D8D7D3" transform="translate(330,602)"/>
<path d="M0 0 C3.875 0.875 3.875 0.875 5 2 C5.04063832 3.66617115 5.042721 5.33388095 5 7 C3.68 7 2.36 7 1 7 C0.67 4.69 0.34 2.38 0 0 Z " fill="#D4D3CF" transform="translate(367,597)"/>
<path d="M0 0 C1.32 0.33 2.64 0.66 4 1 C4.33 2.65 4.66 4.3 5 6 C3.0625 6.5625 3.0625 6.5625 1 7 C0 6 0 6 -0.0625 2.9375 C-0.041875 1.968125 -0.02125 0.99875 0 0 Z " fill="#D3D2CE" transform="translate(331,399)"/>
<path d="M0 0 C1.32 0.33 2.64 0.66 4 1 C4 3.31 4 5.62 4 8 C2.68 7.67 1.36 7.34 0 7 C0 4.69 0 2.38 0 0 Z " fill="#E1E0DC" transform="translate(348,370)"/>
<path d="M0 0 C2.475 0.495 2.475 0.495 5 1 C5 2.98 5 4.96 5 7 C3.68 6.67 2.36 6.34 1 6 C0.67 4.02 0.34 2.04 0 0 Z " fill="#D4D3CF" transform="translate(304,301)"/>
<path d="M0 0 C2.475 0.495 2.475 0.495 5 1 C5.33 2.65 5.66 4.3 6 6 C4.35 5.67 2.7 5.34 1 5 C0.67 3.35 0.34 1.7 0 0 Z " fill="#D8D7D4" transform="translate(257,203)"/>
<path d="M0 0 C0.391875 0.639375 0.78375 1.27875 1.1875 1.9375 C3.38472296 4.43778819 4.75791433 4.64950425 8 5 C6.68 5.33 5.36 5.66 4 6 C3.67 7.32 3.34 8.64 3 10 C2.6596875 8.7934375 2.6596875 8.7934375 2.3125 7.5625 C1.879375 6.716875 1.44625 5.87125 1 5 C-1.54775306 4.10613836 -1.54775306 4.10613836 -4 4 C-4.33 4.99 -4.66 5.98 -5 7 C-5 6.01 -5 5.02 -5 4 C-6.32 3.67 -7.64 3.34 -9 3 C-5.62182575 2.15545644 -3.32534757 1.89155081 0 3 C0 2.01 0 1.02 0 0 Z " fill="#3D3C3B" transform="translate(234,187)"/>
<path d="M0 0 C2.475 0.495 2.475 0.495 5 1 C5 2.98 5 4.96 5 7 C3.68 6.67 2.36 6.34 1 6 C0.67 4.02 0.34 2.04 0 0 Z " fill="#D0CFCB" transform="translate(143,171)"/>
<path d="M0 0 C2.475 0.495 2.475 0.495 5 1 C5.33 2.65 5.66 4.3 6 6 C4.35 5.67 2.7 5.34 1 5 C0.67 3.35 0.34 1.7 0 0 Z " fill="#D8D8D4" transform="translate(174,149)"/>
<path d="M0 0 C1.32 0 2.64 0 4 0 C4.125 2.375 4.125 2.375 4 5 C3.34 5.66 2.68 6.32 2 7 C1.01 7 0.02 7 -1 7 C-0.67 4.69 -0.34 2.38 0 0 Z " fill="#D4D3CF" transform="translate(127,64)"/>
<path d="M0 0 C2.0625 0.4375 2.0625 0.4375 4 1 C3.67 2.98 3.34 4.96 3 7 C1.68 6.67 0.36 6.34 -1 6 C-1.042721 4.33388095 -1.04063832 2.66617115 -1 1 C-0.67 0.67 -0.34 0.34 0 0 Z " fill="#D6D5D1" transform="translate(107,64)"/>
<path d="M0 0 C0.80824219 0.10183594 1.61648437 0.20367188 2.44921875 0.30859375 C3.06410156 0.39238281 3.67898437 0.47617187 4.3125 0.5625 C4.3125 0.8925 4.3125 1.2225 4.3125 1.5625 C2.0025 1.5625 -0.3075 1.5625 -2.6875 1.5625 C-2.501875 2.09875 -2.31625 2.635 -2.125 3.1875 C-1.57330676 6.18240614 -2.08152556 8.59995829 -2.6875 11.5625 C-4.78100689 8.1605513 -4.86692163 5.50977588 -4.6875 1.5625 C-5.6775 1.2325 -6.6675 0.9025 -7.6875 0.5625 C-4.59271121 -0.46909626 -3.16118607 -0.41232862 0 0 Z " fill="#5C5B59" transform="translate(111.6875,29.4375)"/>
<path d="M0 0 C1.32 0 2.64 0 4 0 C3.42655063 2.86724686 3.1385485 3.8614515 1 6 C-1.125 5.625 -1.125 5.625 -3 5 C-1.125 1.125 -1.125 1.125 0 0 Z " fill="#D7D6D2" transform="translate(223,763)"/>
<path d="M0 0 C1.2065625 0.0309375 1.2065625 0.0309375 2.4375 0.0625 C1.5625 3.9375 1.5625 3.9375 0.4375 5.0625 C-1.22867115 5.10313832 -2.89638095 5.105221 -4.5625 5.0625 C-3.43829114 0.08386076 -3.43829114 0.08386076 0 0 Z " fill="#DCDBD8" transform="translate(219.5625,758.9375)"/>
<path d="M0 0 C1.2065625 0.0309375 1.2065625 0.0309375 2.4375 0.0625 C1.5625 3.9375 1.5625 3.9375 0.4375 5.0625 C-1.22867115 5.10313832 -2.89638095 5.105221 -4.5625 5.0625 C-3.43829114 0.08386076 -3.43829114 0.08386076 0 0 Z " fill="#DCDBD7" transform="translate(207.5625,735.9375)"/>
<path d="M0 0 C0.99 0 1.98 0 3 0 C3.125 2.375 3.125 2.375 3 5 C2.34 5.66 1.68 6.32 1 7 C0.01 7 -0.98 7 -2 7 C-2.125 4.625 -2.125 4.625 -2 2 C-1.34 1.34 -0.68 0.68 0 0 Z " fill="#D2D1CD" transform="translate(298,691)"/>
<path d="M0 0 C3.875 0.875 3.875 0.875 5 2 C5.04063832 3.66617115 5.042721 5.33388095 5 7 C1.125 6.125 1.125 6.125 0 5 C-0.04063832 3.33382885 -0.042721 1.66611905 0 0 Z " fill="#DBDAD6" transform="translate(334,288)"/>
<path d="M0 0 C3.875 0.875 3.875 0.875 5 2 C5.04063832 3.66617115 5.042721 5.33388095 5 7 C1.125 6.125 1.125 6.125 0 5 C-0.04063832 3.33382885 -0.042721 1.66611905 0 0 Z " fill="#D7D6D3" transform="translate(171,154)"/>
<path d="M0 0 C1.32 0.33 2.64 0.66 4 1 C4 2.98 4 4.96 4 7 C2.68 7 1.36 7 0 7 C0 4.69 0 2.38 0 0 Z " fill="#D8D7D3" transform="translate(113,62)"/>
<path d="M0 0 C0.66 0.66 1.32 1.32 2 2 C1.01 3.485 1.01 3.485 0 5 C-0.66 5 -1.32 5 -2 5 C-2.66 7.97 -3.32 10.94 -4 14 C-4.33 14 -4.66 14 -5 14 C-4.67 11.03 -4.34 8.06 -4 5 C-4.66 4.67 -5.32 4.34 -6 4 C-4.02 2.68 -2.04 1.36 0 0 Z " fill="#383837" transform="translate(299,268)"/>
<path d="M0 0 C0.28571429 7.42857143 0.28571429 7.42857143 -2 11 C-2.103125 10.05125 -2.20625 9.1025 -2.3125 8.125 C-2.68539295 4.70892499 -2.68539295 4.70892499 -6 3 C-6.33 2.34 -6.66 1.68 -7 1 C-2.25 0 -2.25 0 0 0 Z " fill="#434241" transform="translate(319,259)"/>
<path d="M0 0 C2.16874252 0.50603992 3.99967627 0.99983813 6 2 C6 3.32 6 4.64 6 6 C4.35 5.67 2.7 5.34 1 5 C0.67 3.35 0.34 1.7 0 0 Z " fill="#D6D5D1" transform="translate(153,164)"/>
<path d="M0 0 C1.32 0 2.64 0 4 0 C4 1.98 4 3.96 4 6 C2.68 6.33 1.36 6.66 0 7 C0 4.69 0 2.38 0 0 Z " fill="#D8D7D3" transform="translate(319,400)"/>
<path d="M0 0 C2.475 0.495 2.475 0.495 5 1 C5 2.65 5 4.3 5 6 C3.68 5.67 2.36 5.34 1 5 C0.67 3.35 0.34 1.7 0 0 Z " fill="#DFDEDA" transform="translate(311,301)"/>
<path d="M0 0 C0.33 0.66 0.66 1.32 1 2 C3.30965848 3.05352843 5.6429774 4.05719096 8 5 C4.23375329 6.25541557 2.62811066 5.37061958 -1 4 C-1.33 4.99 -1.66 5.98 -2 7 C-2 6.01 -2 5.02 -2 4 C-3.65 4 -5.3 4 -7 4 C-7 3.67 -7 3.34 -7 3 C-5.5459375 2.5359375 -5.5459375 2.5359375 -4.0625 2.0625 C-1.15934208 1.30476658 -1.15934208 1.30476658 0 0 Z " fill="#403F3E" transform="translate(219,210)"/>
<path d="M0 0 C1.32 0.33 2.64 0.66 4 1 C4.33 2.65 4.66 4.3 5 6 C3.35 5.67 1.7 5.34 0 5 C0 3.35 0 1.7 0 0 Z " fill="#DDDCD8" transform="translate(150,170)"/>
<path d="M0 0 C0.66 1.32 1.32 2.64 2 4 C1.01 4.495 1.01 4.495 0 5 C0 6.32 0 7.64 0 9 C0.66 9.33 1.32 9.66 2 10 C0.35 10.66 -1.3 11.32 -3 12 C-3 8.79604584 -2.25664978 6.90600261 -1 4 C-1.99 3.67 -2.98 3.34 -4 3 C-2.68 3 -1.36 3 0 3 C0 2.01 0 1.02 0 0 Z " fill="#4D4C4A" transform="translate(338,673)"/>
<path d="M0 0 C0.66 0.33 1.32 0.66 2 1 C2 1.99 2 2.98 2 4 C1.01 4.495 1.01 4.495 0 5 C0 6.98 0 8.96 0 11 C-0.99 11.495 -0.99 11.495 -2 12 C-3.35384615 4.61538462 -3.35384615 4.61538462 -1.5625 1.5 C-1.046875 1.005 -0.53125 0.51 0 0 Z " fill="#2A2929" transform="translate(332,501)"/>
<path d="M0 0 C0.99 0.66 1.98 1.32 3 2 C2.67 5.63 2.34 9.26 2 13 C1.67 12.34 1.34 11.68 1 11 C0.34 10.67 -0.32 10.34 -1 10 C-0.34 8.02 0.32 6.04 1 4 C0.01 3.67 -0.98 3.34 -2 3 C-1.34 2.01 -0.68 1.02 0 0 Z " fill="#363534" transform="translate(130,60)"/>
<path d="M0 0 C0.33 0.66 0.66 1.32 1 2 C1.99 2 2.98 2 4 2 C4.33 1.34 4.66 0.68 5 0 C5.66 0.99 6.32 1.98 7 3 C6.34 4.32 5.68 5.64 5 7 C5 5.68 5 4.36 5 3 C3.8553125 3.495 3.8553125 3.495 2.6875 4 C0 5 0 5 -3 5 C-2.01 3.35 -1.02 1.7 0 0 Z " fill="#3F3E3D" transform="translate(237,724)"/>
<path d="M0 0 C2 1.375 2 1.375 4 3 C4 3.66 4 4.32 4 5 C3.01 5.33 2.02 5.66 1 6 C0.67 6.66 0.34 7.32 0 8 C-0.66 7.67 -1.32 7.34 -2 7 C-1.34 4.69 -0.68 2.38 0 0 Z " fill="#434241" transform="translate(106,59)"/>
<path d="M0 0 C1.65 0 3.3 0 5 0 C5 0.66 5 1.32 5 2 C4.34 2 3.68 2 3 2 C2.34 3.98 1.68 5.96 1 8 C-0.35439668 5.29120665 -0.06501451 2.99066732 0 0 Z " fill="#121110" transform="translate(356,568)"/>
<path d="M0 0 C1.2065625 0.0309375 1.2065625 0.0309375 2.4375 0.0625 C-0.44337546 2.46322955 -3.12654834 4.53541037 -6.5625 6.0625 C-3.03077411 0.07392132 -3.03077411 0.07392132 0 0 Z " fill="#C3C2BF" transform="translate(333.5625,640.9375)"/>
<path d="M0 0 C0.66 0 1.32 0 2 0 C2.33 1.32 2.66 2.64 3 4 C2.01 4 1.02 4 0 4 C0 5.98 0 7.96 0 10 C-0.33 10 -0.66 10 -1 10 C-2.25 3.375 -2.25 3.375 0 0 Z " fill="#484746" transform="translate(113,58)"/>
<path d="M0 0 C2.97 0.495 2.97 0.495 6 1 C5.67 1.99 5.34 2.98 5 4 C4.01 4 3.02 4 2 4 C1.34 4.99 0.68 5.98 0 7 C0 4.69 0 2.38 0 0 Z " fill="#2A2929" transform="translate(360,597)"/>
<path d="M0 0 C2 2 2 2 2 6 C0.35 5.67 -1.3 5.34 -3 5 C-3 3 -3 3 -1.5 1.375 C-1.005 0.92125 -0.51 0.4675 0 0 Z " fill="#3E3D3C" transform="translate(355,395)"/>
<path d="M0 0 C0.99 0.66 1.98 1.32 3 2 C2.67 4.31 2.34 6.62 2 9 C1.67 9 1.34 9 1 9 C1 7.35 1 5.7 1 4 C0.01 3.67 -0.98 3.34 -2 3 C-1.34 2.01 -0.68 1.02 0 0 Z " fill="#4C4B4A" transform="translate(322,396)"/>
<path d="M0 0 C2.125 0.9375 2.125 0.9375 4 2 C3.67 3.98 3.34 5.96 3 8 C1 4.25 1 4.25 1 2 C0.01 1.67 -0.98 1.34 -2 1 C-1.34 0.67 -0.68 0.34 0 0 Z " fill="#2F2E2D" transform="translate(330,286)"/>
</svg>
