<?xml version="1.0" encoding="UTF-8"?>
<svg version="1.1" xmlns="http://www.w3.org/2000/svg" width="620" height="540">
<path d="M0 0 C204.6 0 409.2 0 620 0 C620 178.2 620 356.4 620 540 C415.4 540 210.8 540 0 540 C0 361.8 0 183.6 0 0 Z " fill="#B10F0F" transform="translate(0,0)"/>
<path d="M0 0 C204.6 0 409.2 0 620 0 C620 178.2 620 356.4 620 540 C415.4 540 210.8 540 0 540 C0 361.8 0 183.6 0 0 Z M237.3125 21.5625 C223.94548993 38.03528462 223.57171535 62.0899633 223.625 82.375 C223.62554382 83.16625275 223.62608765 83.95750549 223.62664795 84.7727356 C223.75319713 125.41375188 231.76672164 165.98030768 246 204 C227.18111555 209.27265317 207.13480601 213.08377479 187.5390625 213.203125 C186.75920486 213.21009399 185.97934723 213.21706299 185.17585754 213.22424316 C182.65884957 213.24158152 180.14206531 213.24796854 177.625 213.25 C176.76029083 213.25100708 175.89558167 213.25201416 175.00466919 213.25305176 C156.13390961 213.23824655 137.85888586 211.58962307 119.3125 208 C99.11830236 204.10300511 78.59976445 202.73961528 58.0625 202.625 C57.3663559 202.61714478 56.67021179 202.60928955 55.95297241 202.60119629 C45.28126932 202.50668768 36.29986896 203.27824317 27.7890625 210.14453125 C19.7402166 218.49213344 18.61677161 230.47927438 18.70385742 241.50927734 C19.20670592 259.99797695 24.5963932 277.43951385 30 295 C30.48194824 296.58167969 30.48194824 296.58167969 30.97363281 298.1953125 C44.85807547 343.29451979 68.8651884 383.88762742 99 420 C99.76570313 420.95261719 100.53140625 421.90523438 101.3203125 422.88671875 C108.37799624 431.52897512 116.1973264 439.41380158 124.0625 447.3125 C124.61694794 447.87212433 125.17139587 448.43174866 125.74264526 449.0083313 C132.82761277 456.14533935 140.09365027 462.76316605 148 469 C149.23181943 470.01240591 150.46133051 471.02763351 151.6875 472.046875 C171.90719987 488.63308971 194.26513281 502.98471581 218 514 C219.19109375 514.55429687 220.3821875 515.10859375 221.609375 515.6796875 C238.76967826 523.34462296 255.75529549 527.71424106 274 521 C282.48764101 517.37047837 289.98419819 513.06034242 297 507 C297.66257812 506.46890625 298.32515625 505.9378125 299.0078125 505.390625 C304.83339474 500.59308669 309.38391518 494.9417297 314 489 C314.74378906 488.06027344 315.48757813 487.12054688 316.25390625 486.15234375 C321.72779993 479.07912114 326.41698713 471.71940598 330.86279297 463.97753906 C331.60049904 462.6947097 332.34398465 461.41518005 333.09423828 460.13964844 C339.53881002 449.17785351 345.12967701 437.80309291 350.6875 426.375 C351.04730957 425.63672974 351.40711914 424.89845947 351.77783203 424.13781738 C358.40859655 410.50631529 364.84340013 396.79211158 369.9375 382.5 C370.23978516 381.66597656 370.54207031 380.83195312 370.85351562 379.97265625 C371.57373622 377.98347556 372.28764016 375.99200929 373 374 C373.59385498 374.20278564 374.18770996 374.40557129 374.79956055 374.61450195 C395.3560611 381.56426809 412.73580176 379.36638604 432 370 C432.99257813 369.52433594 433.98515625 369.04867188 435.0078125 368.55859375 C446.42219743 362.71828893 455.99465878 354.24965459 465.28125 345.53125 C467.57912963 343.39184482 469.91658807 341.3398101 472.3125 339.3125 C475.47513774 336.56294147 478.18882024 333.61671912 480.89453125 330.421875 C483.09504649 327.89067009 485.37089695 325.44735434 487.66772461 323.00390625 C492.91796778 317.41806195 497.96672353 311.75670078 502.76171875 305.76953125 C504.81198326 303.23264201 506.90740894 300.74688969 509.02954102 298.27050781 C526.78964518 277.51394425 541.51020436 254.72193993 555 231 C555.73331543 229.72286133 555.73331543 229.72286133 556.48144531 228.41992188 C570.77968097 203.40993262 582.6933073 177.26008823 592 150 C592.35642578 148.97422852 592.71285156 147.94845703 593.08007812 146.89160156 C610.67035214 98.31425717 610.67035214 98.31425717 606 49 C603.43848499 44.38927299 600.34713107 40.01160756 595.07421875 38.41796875 C583.36628582 36.05874309 571.71906601 41.36311319 560.80859375 45.125 C545.36134464 50.43485003 530.00332872 54.71991882 514 58 C513.2363916 58.16193848 512.4727832 58.32387695 511.68603516 58.49072266 C506.81016438 59.51413864 501.93167797 60.31268565 497 61 C495.58412598 61.20302734 495.58412598 61.20302734 494.13964844 61.41015625 C462.94649424 65.70732053 429.89203084 66.68144565 399 60 C397.9186377 59.76925781 396.83727539 59.53851563 395.72314453 59.30078125 C372.66765524 54.21100175 350.80004217 45.79776247 329.46679688 35.78125 C311.7422038 27.58866479 292.87307576 20.96659888 274 16 C273.19046875 15.75765625 272.3809375 15.5153125 271.546875 15.265625 C259.35281836 11.92355022 246.36526613 12.1822934 237.3125 21.5625 Z " fill="#030202" transform="translate(0,0)"/>
<path d="M0 0 C76.8080145 34.55378139 152.49246035 33.09850227 231.68823242 7.03222656 C234.12961301 6.22968181 236.5720871 5.43053426 239.01464844 4.6315918 C239.75425308 4.38681595 240.49385773 4.1420401 241.25587463 3.8898468 C249.30283121 1.25928473 256.6020471 -0.30117298 264.85449219 2.17456055 C270.9667458 5.70086071 273.73656187 10.53775217 276.10449219 17.04956055 C289.97889881 70.04208586 250.01137891 147.6113221 224.48461914 192.11987305 C222.24753145 195.93372014 219.97113257 199.72152081 217.6640625 203.4934082 C216.18302714 205.92084092 214.72957693 208.36250388 213.28417969 210.8112793 C204.22494164 226.0596315 194.31858403 240.82503774 182.61621094 254.1784668 C180.2154876 256.92268399 177.90031905 259.71736351 175.60449219 262.54956055 C167.91630125 271.97511847 160.075357 281.21581898 151.79980469 290.1315918 C149.13838179 293.01287137 146.52825939 295.93536504 143.91699219 298.86206055 C140.58311847 302.52462604 137.20973263 305.93418323 133.41308594 309.11206055 C131.56069638 310.66668867 129.75294153 312.24906064 127.95214844 313.86206055 C109.88585008 329.92268712 87.77208684 342.75416487 62.98339844 342.23706055 C54.9599633 341.71450303 48.29724281 339.55769032 41.10449219 336.04956055 C42.84176585 328.84569812 44.75282699 321.719879 46.85742188 314.61499023 C54.8175329 287.64728793 61.1960905 260.05005522 64.10449219 232.04956055 C78.38348039 232.83980989 89.34717988 238.0375753 101.71386719 244.69799805 C110.91294489 249.64686896 117.53472365 251.70336066 128.10449219 251.04956055 C130.57122676 246.11609141 129.60776108 239.88258735 128.19824219 234.7487793 C122.20035302 218.38915211 111.77965303 206.9283468 95.92089844 199.57299805 C89.14861865 196.89540303 82.85095422 195.61080425 75.63964844 194.9128418 C74.81468872 194.82732056 73.989729 194.74179932 73.13977051 194.65368652 C71.12864342 194.44609101 69.11664753 194.24694073 67.10449219 194.04956055 C67.08261841 192.38908691 67.08261841 192.38908691 67.06030273 190.69506836 C68.8355687 148.92427366 68.8355687 148.92427366 52.66699219 112.24487305 C47.80434413 108.52494728 43.11416006 107.3365491 37.10449219 108.04956055 C28.77060139 110.5578096 21.92764774 115.20065184 14.79199219 120.04956055 C12.47966713 121.59291008 10.16041216 123.12559063 7.83886719 124.6550293 C7.26353745 125.03427048 6.6882077 125.41351166 6.09544373 125.804245 C-17.27591696 141.1396542 -42.54688793 152.84984007 -68.89550781 162.04956055 C-69.70955078 162.33476562 -70.52359375 162.6199707 -71.36230469 162.91381836 C-83.24940739 167.04956055 -83.24940739 167.04956055 -85.89550781 167.04956055 C-91.91605599 149.90286238 -97.13960392 132.84130686 -100.89550781 115.04956055 C-101.08983398 114.13432617 -101.28416016 113.2190918 -101.484375 112.27612305 C-108.32334371 79.33449365 -112.7339148 41.26031375 -104.89550781 8.04956055 C-104.46044922 6.20491211 -104.46044922 6.20491211 -104.01660156 4.32299805 C-101.27702623 -5.64951468 -96.87684545 -15.20859077 -87.89550781 -20.95043945 C-63.72626113 -32.84914551 -21.63412874 -9.73946958 0 0 Z " fill="#FEFEFE" transform="translate(331.8955078125,36.950439453125)"/>
<path d="M0 0 C4.65468357 5.13208702 4.66320279 10.56168619 4.44140625 17.30859375 C2.62286715 32.51673051 -7.50212386 45.43693888 -19 55 C-36.10710328 66.98876423 -55.84690507 70.92456574 -76.47314453 67.6015625 C-90.21235606 64.36514574 -103.11833454 56.31677638 -110.8125 44.4375 C-111.89018037 42.63398468 -112.95465163 40.82244596 -114 39 C-114.639375 37.9275 -115.27875 36.855 -115.9375 35.75 C-117.27732593 32.28221525 -117.41718311 29.68511744 -117 26 C-115.16884793 23.38406847 -114.09031634 23.03010545 -111 22 C-102.61214858 21.24086888 -95.14029076 22.93568864 -87.0625 25 C-72.26732889 28.52125884 -56.53548604 30.92452979 -42 25 C-41.17757812 24.67128906 -40.35515625 24.34257812 -39.5078125 24.00390625 C-29.07161584 19.30599218 -20.98018805 11.26579928 -13.19140625 3.06640625 C-8.86484508 -1.01336356 -5.81614288 -1.7656148 0 0 Z " fill="#041E36" transform="translate(300,375)"/>
<path d="M0 0 C2.04288341 -0.02895962 4.08588822 -0.04941798 6.12890625 -0.06640625 C7.26658447 -0.07873291 8.4042627 -0.09105957 9.57641602 -0.10375977 C26.21579684 0.40053581 39.90187174 9.3427294 51 21 C57.93569011 28.51959831 63.1182724 39.19893292 63.1875 49.5 C63.20167969 50.4590625 63.21585937 51.418125 63.23046875 52.40625 C63 55 63 55 61 58 C50.4331341 60.06518552 41.6852696 55.64571644 32.72265625 50.6171875 C21.38114497 44.30443705 10.73137951 40.54895902 -2 38 C-2.14154319 29.9408845 -1.58611492 21.9728188 -1 13.9375 C-0.90335584 12.58140084 -0.8069995 11.22528114 -0.7109375 9.86914062 C-0.47677906 6.57921453 -0.23972501 3.28952437 0 0 Z " fill="#052037" transform="translate(399,231)"/>
<path d="M0 0 C7.75661663 4.90794769 14.31760735 10.94550013 17.6484375 19.67578125 C17.6484375 20.66578125 17.6484375 21.65578125 17.6484375 22.67578125 C16.4109375 22.40765625 15.1734375 22.13953125 13.8984375 21.86328125 C13.063125 21.68410156 12.2278125 21.50492187 11.3671875 21.3203125 C8.6484375 20.67578125 8.6484375 20.67578125 6.1171875 19.875 C-9.42176918 15.1641956 -26.77930177 15.98533879 -41.18115234 23.64941406 C-45.85058907 26.27620476 -50.35840421 29.12438753 -54.58984375 32.41796875 C-56.3515625 33.67578125 -56.3515625 33.67578125 -58.3515625 33.67578125 C-59.03299395 26.00967745 -56.89087446 19.2105035 -52.3984375 12.95703125 C-39.24505834 -2.31192638 -19.01620142 -9.45483404 0 0 Z " fill="#061E36" transform="translate(166.3515625,291.32421875)"/>
<path d="M0 0 C2.79450946 1.83849307 5.56489401 3.68451077 8.2734375 5.6484375 C19.99678095 14.11735122 31.58853702 19.60513415 46.25 19.375 C47.15806396 19.36919922 48.06612793 19.36339844 49.00170898 19.35742188 C55.69492295 19.22953738 61.79809123 18.35468157 68.28515625 16.65625 C71 16 71 16 75 16 C72.89512032 24.41951871 67.76599928 30.23339312 60.46484375 34.6796875 C50.35468771 40.09527029 40.27318101 41.86408382 28.9140625 39.3046875 C17.96485081 35.65495027 8.01751019 28.7407802 2.61328125 18.328125 C0.12862266 12.15570997 -0.51621472 6.61041624 0 0 Z " fill="#07223A" transform="translate(458,136)"/>
<path d="M0 0 C8.23082917 5.80439976 12.79836524 12.12673384 15.65234375 21.6796875 C15.10296143 21.53345947 14.5535791 21.38723145 13.98754883 21.23657227 C11.48039639 20.57020102 8.97262868 19.90617432 6.46484375 19.2421875 C5.60052734 19.01208984 4.73621094 18.78199219 3.84570312 18.54492188 C-15.17683425 13.51597521 -31.02241905 15.03290769 -48.34765625 24.86328125 C-52.4394293 27.34072196 -56.43896284 29.92239215 -60.34765625 32.6796875 C-60.98208295 22.84607372 -58.62518959 15.98807641 -52.22265625 8.4296875 C-38.25098693 -6.16039997 -18.00953954 -10.12849312 0 0 Z " fill="#051E36" transform="translate(334.34765625,266.3203125)"/>
<path d="M0 0 C3.84218749 1.41113068 7.14592936 3.22754131 10.625 5.375 C25.26052105 14.02653954 41.9021101 16.60830196 58.52197266 12.71850586 C64.76712795 11.09333085 70.92332939 9.17023951 77 7 C74.43848572 16.70679097 69.36075276 24.29640955 61 30 C50.37227097 35.63810031 38.19457353 37.01921536 26.46484375 34.12890625 C15.20478132 29.69752684 7.22256928 22.76503017 1.96875 11.859375 C0.3014079 7.81452658 -0.32658322 4.35444294 0 0 Z " fill="#062239" transform="translate(288,118)"/>
</svg>
