<svg xmlns="http://www.w3.org/2000/svg" xmlns:xlink="http://www.w3.org/1999/xlink" width="668" zoomAndPan="magnify" viewBox="0 0 501 241.499998" height="322" preserveAspectRatio="xMidYMid meet" version="1.0"><defs><g/><clipPath id="bd738bdd85"><path d="M 26 14 L 251 14 L 251 171 L 26 171 Z M 26 14 " clip-rule="nonzero"/></clipPath><clipPath id="c6fd2f5e18"><path d="M 280.507812 80.253906 L 249.503906 170.898438 L 15.097656 90.730469 L 46.097656 0.0859375 Z M 280.507812 80.253906 " clip-rule="nonzero"/></clipPath><clipPath id="5bdf24ed4b"><path d="M 280.507812 80.253906 L 249.503906 170.898438 L 15.097656 90.730469 L 46.097656 0.0859375 Z M 280.507812 80.253906 " clip-rule="nonzero"/></clipPath><clipPath id="77a9d66fd2"><path d="M 221 134 L 223 134 L 223 136 L 221 136 Z M 221 134 " clip-rule="nonzero"/></clipPath><clipPath id="7543b5ad4c"><path d="M 280.507812 80.253906 L 249.503906 170.898438 L 15.097656 90.730469 L 46.097656 0.0859375 Z M 280.507812 80.253906 " clip-rule="nonzero"/></clipPath><clipPath id="5ff314d42e"><path d="M 280.507812 80.253906 L 249.503906 170.898438 L 15.097656 90.730469 L 46.097656 0.0859375 Z M 280.507812 80.253906 " clip-rule="nonzero"/></clipPath><clipPath id="7af6d615bd"><rect x="0" width="465" y="0" height="45"/></clipPath></defs><g clip-path="url(#bd738bdd85)"><g clip-path="url(#c6fd2f5e18)"><g clip-path="url(#5bdf24ed4b)"><path fill="#b20f0f" d="M 221.792969 134.574219 C 219.851562 132.292969 216.667969 131.226562 218.175781 127.992188 L 215.429688 128.089844 L 216.257812 125.671875 C 215.765625 125.039062 214.082031 125.429688 212.800781 124.273438 C 208.285156 120.1875 197.21875 108.234375 193.332031 103.40625 C 192.8125 102.761719 194.179688 102.15625 193.972656 101.460938 C 183.027344 96.121094 173.484375 85.941406 162.59375 79.195312 C 131.46875 59.914062 92.378906 53.859375 56.34375 53.296875 C 55.542969 54.878906 58.226562 54.953125 59.367188 55.390625 C 65.902344 57.875 69.875 59.1875 75.664062 63.414062 C 83.125 68.859375 100.867188 87.953125 101.558594 97.125 C 101.832031 100.75 101.367188 105.445312 97.046875 104.582031 C 91.707031 103.507812 92.65625 98.226562 90.605469 94.492188 C 79.992188 75.117188 60.335938 60.847656 37.824219 60.398438 C 30.59375 60.25 22.578125 64.003906 28.578125 51.320312 C 48.402344 40.371094 67.859375 28.6875 86.042969 15.136719 C 90.382812 13.246094 92.496094 18.460938 91.46875 21.996094 C 90.445312 25.53125 66.480469 38.816406 62.214844 42.394531 C 74.683594 44.230469 87.28125 45.507812 99.6875 47.847656 C 154.105469 58.128906 185.714844 77.460938 220.878906 119.425781 C 230.359375 130.746094 243.0625 146.679688 248.414062 160.292969 C 249.566406 163.253906 252.214844 168.773438 248.679688 170.605469 C 244.785156 165.640625 241.621094 160.136719 237.851562 155.097656 C 234.664062 150.851562 234.308594 149.953125 231.734375 145.757812 C 231.523438 145.410156 225.742188 144.652344 229.148438 141.386719 L 225.28125 140.0625 C 225.28125 140.0625 226.921875 138.472656 226.921875 138.472656 C 223.464844 138.609375 223.890625 137.570312 222.4375 135.855469 L 223.539062 135.695312 C 223.746094 135.09375 222.796875 134.964844 222.765625 134.894531 C 222.730469 134.828125 223.210938 133.988281 222.605469 133.792969 L 221.804688 134.566406 Z M 221.792969 134.574219 " fill-opacity="1" fill-rule="nonzero"/></g></g></g><g clip-path="url(#77a9d66fd2)"><g clip-path="url(#7543b5ad4c)"><g clip-path="url(#5ff314d42e)"><path fill="#b20f0f" d="M 221.792969 134.574219 C 221.804688 134.738281 222.65625 134.710938 222.75 134.902344 C 222.84375 135.09375 222.300781 135.75 222.421875 135.863281 C 222.132812 135.511719 222.050781 134.878906 221.792969 134.574219 Z M 221.792969 134.574219 " fill-opacity="1" fill-rule="nonzero"/></g></g></g><g transform="matrix(1, 0, 0, 1, 19, 179)"><g clip-path="url(#7af6d615bd)"><g fill="#ffffff" fill-opacity="1"><g transform="translate(0.960677, 31.185539)"><g><path d="M 7.953125 -14.0625 C 7.953125 -13.59375 8.066406 -13.289062 8.296875 -13.15625 C 8.523438 -13.019531 8.914062 -12.953125 9.46875 -12.953125 L 15.859375 -12.953125 C 18.804688 -12.953125 20.945312 -13.523438 22.28125 -14.671875 C 23.625 -15.816406 24.296875 -17.539062 24.296875 -19.84375 C 24.296875 -22.269531 23.597656 -24.078125 22.203125 -25.265625 C 20.816406 -26.453125 18.632812 -27.046875 15.65625 -27.046875 C 15 -27.046875 13.835938 -27.003906 12.171875 -26.921875 C 10.972656 -26.867188 10.117188 -26.84375 9.609375 -26.84375 C 9.109375 -26.84375 8.71875 -26.789062 8.4375 -26.6875 C 8.21875 -26.601562 8.082031 -26.410156 8.03125 -26.109375 C 7.976562 -25.804688 7.953125 -25.460938 7.953125 -25.078125 Z M 2.296875 -28 C 2.429688 -28 2.722656 -27.984375 3.171875 -27.953125 C 3.628906 -27.921875 4.128906 -27.882812 4.671875 -27.84375 C 5.210938 -27.800781 5.742188 -27.765625 6.265625 -27.734375 C 6.785156 -27.710938 7.171875 -27.703125 7.421875 -27.703125 C 7.722656 -27.703125 8.25 -27.710938 9 -27.734375 C 9.75 -27.765625 10.5625 -27.800781 11.4375 -27.84375 C 12.3125 -27.882812 13.164062 -27.921875 14 -27.953125 C 14.832031 -27.984375 15.492188 -28 15.984375 -28 C 19.148438 -28 21.546875 -27.285156 23.171875 -25.859375 C 24.796875 -24.441406 25.609375 -22.445312 25.609375 -19.875 C 25.609375 -17.25 24.769531 -15.296875 23.09375 -14.015625 C 21.414062 -12.734375 19.128906 -12.09375 16.234375 -12.09375 L 8.5625 -12.09375 C 8.15625 -12.09375 7.953125 -11.859375 7.953125 -11.390625 L 7.953125 -6.03125 C 7.953125 -4.90625 7.972656 -3.992188 8.015625 -3.296875 C 8.054688 -2.597656 8.148438 -2.050781 8.296875 -1.65625 C 8.453125 -1.257812 8.675781 -0.992188 8.96875 -0.859375 C 9.269531 -0.722656 9.679688 -0.65625 10.203125 -0.65625 C 10.585938 -0.65625 10.96875 -0.679688 11.34375 -0.734375 C 11.726562 -0.785156 12.085938 -0.8125 12.421875 -0.8125 C 12.660156 -0.8125 12.875 -0.769531 13.0625 -0.6875 C 13.257812 -0.613281 13.359375 -0.46875 13.359375 -0.25 C 13.359375 -0.0507812 13.257812 0.0820312 13.0625 0.15625 C 12.875 0.238281 12.660156 0.28125 12.421875 0.28125 C 11.816406 0.28125 11.085938 0.234375 10.234375 0.140625 C 9.390625 0.046875 8.4375 0 7.375 0 C 6.3125 0 5.347656 0.046875 4.484375 0.140625 C 3.628906 0.234375 2.914062 0.28125 2.34375 0.28125 C 2.09375 0.28125 1.863281 0.238281 1.65625 0.15625 C 1.457031 0.0820312 1.359375 -0.0507812 1.359375 -0.25 C 1.359375 -0.46875 1.457031 -0.613281 1.65625 -0.6875 C 1.863281 -0.769531 2.078125 -0.8125 2.296875 -0.8125 C 2.648438 -0.8125 3.007812 -0.785156 3.375 -0.734375 C 3.75 -0.679688 4.128906 -0.65625 4.515625 -0.65625 C 5.054688 -0.65625 5.476562 -0.734375 5.78125 -0.890625 C 6.082031 -1.054688 6.304688 -1.363281 6.453125 -1.8125 C 6.609375 -2.269531 6.695312 -2.890625 6.71875 -3.671875 C 6.75 -4.453125 6.765625 -5.46875 6.765625 -6.71875 L 6.765625 -21.4375 C 6.765625 -22.394531 6.75 -23.226562 6.71875 -23.9375 C 6.695312 -24.644531 6.625 -25.226562 6.5 -25.6875 C 6.375 -26.15625 6.171875 -26.5 5.890625 -26.71875 C 5.617188 -26.9375 5.226562 -27.046875 4.71875 -27.046875 C 4.332031 -27.046875 3.921875 -27.019531 3.484375 -26.96875 C 3.046875 -26.914062 2.648438 -26.890625 2.296875 -26.890625 C 2.078125 -26.890625 1.863281 -26.9375 1.65625 -27.03125 C 1.457031 -27.125 1.359375 -27.265625 1.359375 -27.453125 C 1.359375 -27.648438 1.457031 -27.789062 1.65625 -27.875 C 1.863281 -27.957031 2.078125 -28 2.296875 -28 Z M 2.296875 -28 "/></g></g></g><g fill="#ffffff" fill-opacity="1"><g transform="translate(27.10597, 31.185539)"><g><path d="M 2.828125 -10.28125 C 2.828125 -8.894531 3.035156 -7.585938 3.453125 -6.359375 C 3.878906 -5.128906 4.484375 -4.0625 5.265625 -3.15625 C 6.046875 -2.25 6.96875 -1.535156 8.03125 -1.015625 C 9.09375 -0.503906 10.269531 -0.25 11.5625 -0.25 C 12.875 -0.25 14.066406 -0.515625 15.140625 -1.046875 C 16.222656 -1.578125 17.140625 -2.289062 17.890625 -3.1875 C 18.640625 -4.09375 19.222656 -5.15625 19.640625 -6.375 C 20.066406 -7.59375 20.28125 -8.894531 20.28125 -10.28125 C 20.28125 -11.65625 20.066406 -12.945312 19.640625 -14.15625 C 19.222656 -15.375 18.628906 -16.429688 17.859375 -17.328125 C 17.097656 -18.234375 16.175781 -18.953125 15.09375 -19.484375 C 14.019531 -20.015625 12.828125 -20.28125 11.515625 -20.28125 C 10.234375 -20.28125 9.054688 -20.019531 7.984375 -19.5 C 6.921875 -18.988281 6.003906 -18.28125 5.234375 -17.375 C 4.472656 -16.476562 3.878906 -15.421875 3.453125 -14.203125 C 3.035156 -12.984375 2.828125 -11.675781 2.828125 -10.28125 Z M 11.5625 -21.140625 C 13.03125 -21.140625 14.375 -20.859375 15.59375 -20.296875 C 16.8125 -19.742188 17.859375 -18.972656 18.734375 -17.984375 C 19.609375 -17.003906 20.28125 -15.851562 20.75 -14.53125 C 21.226562 -13.207031 21.46875 -11.789062 21.46875 -10.28125 C 21.46875 -8.75 21.226562 -7.320312 20.75 -6 C 20.28125 -4.675781 19.609375 -3.519531 18.734375 -2.53125 C 17.859375 -1.550781 16.8125 -0.78125 15.59375 -0.21875 C 14.375 0.332031 13.03125 0.609375 11.5625 0.609375 C 10.082031 0.609375 8.734375 0.332031 7.515625 -0.21875 C 6.304688 -0.78125 5.265625 -1.550781 4.390625 -2.53125 C 3.515625 -3.519531 2.835938 -4.675781 2.359375 -6 C 1.878906 -7.320312 1.640625 -8.75 1.640625 -10.28125 C 1.640625 -11.789062 1.878906 -13.207031 2.359375 -14.53125 C 2.835938 -15.851562 3.515625 -17.003906 4.390625 -17.984375 C 5.265625 -18.972656 6.304688 -19.742188 7.515625 -20.296875 C 8.734375 -20.859375 10.082031 -21.140625 11.5625 -21.140625 Z M 11.5625 -21.140625 "/></g></g></g><g fill="#ffffff" fill-opacity="1"><g transform="translate(50.218764, 31.185539)"><g><path d="M 0.484375 -0.25 C 0.484375 -0.625 0.800781 -0.8125 1.4375 -0.8125 C 1.625 -0.8125 1.921875 -0.785156 2.328125 -0.734375 C 2.742188 -0.679688 3.128906 -0.65625 3.484375 -0.65625 C 4.441406 -0.65625 5.039062 -0.925781 5.28125 -1.46875 C 5.34375 -1.613281 5.398438 -1.785156 5.453125 -1.984375 C 5.503906 -2.191406 5.550781 -2.484375 5.59375 -2.859375 C 5.632812 -3.242188 5.660156 -3.757812 5.671875 -4.40625 C 5.691406 -5.050781 5.703125 -5.878906 5.703125 -6.890625 L 5.703125 -22.953125 C 5.703125 -24.015625 5.6875 -24.851562 5.65625 -25.46875 C 5.625 -26.082031 5.550781 -26.550781 5.4375 -26.875 C 5.332031 -27.207031 5.191406 -27.414062 5.015625 -27.5 C 4.835938 -27.582031 4.585938 -27.625 4.265625 -27.625 C 4.046875 -27.625 3.796875 -27.613281 3.515625 -27.59375 C 3.242188 -27.582031 2.972656 -27.5625 2.703125 -27.53125 C 2.429688 -27.507812 2.171875 -27.488281 1.921875 -27.46875 C 1.679688 -27.457031 1.492188 -27.453125 1.359375 -27.453125 C 0.773438 -27.453125 0.484375 -27.632812 0.484375 -28 C 0.484375 -28.375 0.71875 -28.5625 1.1875 -28.5625 C 1.300781 -28.5625 1.566406 -28.535156 1.984375 -28.484375 C 2.410156 -28.429688 3.003906 -28.40625 3.765625 -28.40625 C 4.421875 -28.40625 4.929688 -28.429688 5.296875 -28.484375 C 5.671875 -28.535156 5.941406 -28.5625 6.109375 -28.5625 C 6.410156 -28.5625 6.597656 -28.492188 6.671875 -28.359375 C 6.753906 -28.222656 6.796875 -28.03125 6.796875 -27.78125 L 6.796875 -8.96875 L 16.390625 -17.5 C 16.941406 -17.96875 17.328125 -18.335938 17.546875 -18.609375 C 17.765625 -18.878906 17.875 -19.125 17.875 -19.34375 C 17.875 -19.5625 17.773438 -19.703125 17.578125 -19.765625 C 17.390625 -19.835938 17.007812 -19.875 16.4375 -19.875 C 16.050781 -19.875 15.691406 -19.847656 15.359375 -19.796875 C 15.035156 -19.742188 14.738281 -19.71875 14.46875 -19.71875 C 14.195312 -19.71875 13.972656 -19.773438 13.796875 -19.890625 C 13.617188 -20.015625 13.53125 -20.144531 13.53125 -20.28125 C 13.53125 -20.445312 13.617188 -20.578125 13.796875 -20.671875 C 13.972656 -20.765625 14.195312 -20.8125 14.46875 -20.8125 C 14.65625 -20.8125 14.96875 -20.796875 15.40625 -20.765625 C 15.84375 -20.742188 16.3125 -20.710938 16.8125 -20.671875 C 17.320312 -20.628906 17.800781 -20.59375 18.25 -20.5625 C 18.707031 -20.539062 19.046875 -20.53125 19.265625 -20.53125 C 19.453125 -20.53125 19.769531 -20.539062 20.21875 -20.5625 C 20.675781 -20.59375 21.148438 -20.628906 21.640625 -20.671875 C 22.128906 -20.710938 22.59375 -20.742188 23.03125 -20.765625 C 23.46875 -20.796875 23.78125 -20.8125 23.96875 -20.8125 C 24.21875 -20.8125 24.425781 -20.757812 24.59375 -20.65625 C 24.757812 -20.550781 24.84375 -20.425781 24.84375 -20.28125 C 24.84375 -20.0625 24.738281 -19.910156 24.53125 -19.828125 C 24.320312 -19.753906 24.109375 -19.71875 23.890625 -19.71875 C 23.671875 -19.71875 23.394531 -19.742188 23.0625 -19.796875 C 22.738281 -19.847656 22.425781 -19.875 22.125 -19.875 C 21.53125 -19.875 21.019531 -19.765625 20.59375 -19.546875 C 20.164062 -19.328125 19.765625 -19.054688 19.390625 -18.734375 L 13.203125 -13.234375 C 13.003906 -13.066406 12.90625 -12.90625 12.90625 -12.75 C 12.90625 -12.695312 12.925781 -12.632812 12.96875 -12.5625 C 13.007812 -12.488281 13.097656 -12.34375 13.234375 -12.125 L 18.8125 -4.34375 C 19.382812 -3.519531 19.84375 -2.867188 20.1875 -2.390625 C 20.53125 -1.921875 20.828125 -1.554688 21.078125 -1.296875 C 21.335938 -1.035156 21.601562 -0.863281 21.875 -0.78125 C 22.15625 -0.695312 22.5 -0.65625 22.90625 -0.65625 C 23.289062 -0.65625 23.6875 -0.679688 24.09375 -0.734375 C 24.507812 -0.785156 24.851562 -0.8125 25.125 -0.8125 C 25.425781 -0.8125 25.648438 -0.75 25.796875 -0.625 C 25.953125 -0.507812 26.03125 -0.382812 26.03125 -0.25 C 26.03125 0.101562 25.660156 0.28125 24.921875 0.28125 C 24.648438 0.28125 24.3125 0.265625 23.90625 0.234375 C 23.507812 0.210938 23.097656 0.179688 22.671875 0.140625 C 22.253906 0.0976562 21.835938 0.0625 21.421875 0.03125 C 21.015625 0.0078125 20.648438 0 20.328125 0 C 20.023438 0 19.640625 0.0078125 19.171875 0.03125 C 18.710938 0.0625 18.25 0.0976562 17.78125 0.140625 C 17.320312 0.179688 16.882812 0.210938 16.46875 0.234375 C 16.0625 0.265625 15.75 0.28125 15.53125 0.28125 C 14.90625 0.28125 14.59375 0.101562 14.59375 -0.25 C 14.59375 -0.625 14.890625 -0.8125 15.484375 -0.8125 C 15.785156 -0.8125 16.085938 -0.785156 16.390625 -0.734375 C 16.691406 -0.679688 17.035156 -0.65625 17.421875 -0.65625 C 18.648438 -0.65625 19.265625 -0.898438 19.265625 -1.390625 C 19.265625 -1.472656 19.195312 -1.644531 19.0625 -1.90625 C 18.925781 -2.164062 18.757812 -2.445312 18.5625 -2.75 C 18.375 -3.050781 18.179688 -3.34375 17.984375 -3.625 C 17.796875 -3.914062 17.648438 -4.128906 17.546875 -4.265625 L 12.90625 -10.734375 C 12.601562 -11.148438 12.394531 -11.4375 12.28125 -11.59375 C 12.175781 -11.757812 12.03125 -11.84375 11.84375 -11.84375 C 11.707031 -11.84375 11.53125 -11.75 11.3125 -11.5625 L 6.796875 -7.546875 L 6.796875 -6.234375 C 6.796875 -5.191406 6.8125 -4.316406 6.84375 -3.609375 C 6.875 -2.898438 6.945312 -2.328125 7.0625 -1.890625 C 7.1875 -1.453125 7.390625 -1.132812 7.671875 -0.9375 C 7.960938 -0.75 8.382812 -0.65625 8.9375 -0.65625 C 9.34375 -0.65625 9.742188 -0.679688 10.140625 -0.734375 C 10.535156 -0.785156 10.859375 -0.8125 11.109375 -0.8125 C 11.347656 -0.8125 11.554688 -0.765625 11.734375 -0.671875 C 11.921875 -0.578125 12.015625 -0.4375 12.015625 -0.25 C 12.015625 -0.0507812 11.929688 0.0820312 11.765625 0.15625 C 11.597656 0.238281 11.40625 0.28125 11.1875 0.28125 C 10.96875 0.28125 10.648438 0.265625 10.234375 0.234375 C 9.828125 0.210938 9.382812 0.179688 8.90625 0.140625 C 8.4375 0.0976562 7.960938 0.0625 7.484375 0.03125 C 7.003906 0.0078125 6.585938 0 6.234375 0 C 5.898438 0 5.492188 0.0078125 5.015625 0.03125 C 4.535156 0.0625 4.054688 0.0976562 3.578125 0.140625 C 3.109375 0.179688 2.660156 0.210938 2.234375 0.234375 C 1.804688 0.265625 1.5 0.28125 1.3125 0.28125 C 0.757812 0.28125 0.484375 0.101562 0.484375 -0.25 Z M 0.484375 -0.25 "/></g></g></g><g fill="#ffffff" fill-opacity="1"><g transform="translate(75.21662, 31.185539)"><g><path d="M 2.984375 -12.296875 C 2.984375 -11.992188 3.050781 -11.804688 3.1875 -11.734375 C 3.332031 -11.671875 3.539062 -11.640625 3.8125 -11.640625 L 18.53125 -11.640625 C 18.71875 -11.640625 18.863281 -11.671875 18.96875 -11.734375 C 19.082031 -11.804688 19.140625 -11.96875 19.140625 -12.21875 C 19.140625 -13.113281 18.984375 -14.03125 18.671875 -14.96875 C 18.359375 -15.914062 17.882812 -16.785156 17.25 -17.578125 C 16.625 -18.367188 15.8125 -19.015625 14.8125 -19.515625 C 13.8125 -20.023438 12.644531 -20.28125 11.3125 -20.28125 C 10.488281 -20.28125 9.707031 -20.175781 8.96875 -19.96875 C 8.238281 -19.769531 7.554688 -19.476562 6.921875 -19.09375 C 6.296875 -18.71875 5.742188 -18.234375 5.265625 -17.640625 C 4.785156 -17.054688 4.375 -16.4375 4.03125 -15.78125 C 3.695312 -15.125 3.4375 -14.488281 3.25 -13.875 C 3.070312 -13.257812 2.984375 -12.734375 2.984375 -12.296875 Z M 11.390625 -21.140625 C 12.890625 -21.140625 14.203125 -20.851562 15.328125 -20.28125 C 16.453125 -19.707031 17.378906 -18.96875 18.109375 -18.0625 C 18.847656 -17.164062 19.398438 -16.171875 19.765625 -15.078125 C 20.140625 -13.984375 20.328125 -12.921875 20.328125 -11.890625 C 20.328125 -11.421875 20.226562 -11.097656 20.03125 -10.921875 C 19.84375 -10.742188 19.4375 -10.65625 18.8125 -10.65625 L 3.640625 -10.65625 C 3.316406 -10.65625 3.097656 -10.597656 2.984375 -10.484375 C 2.878906 -10.378906 2.828125 -10.09375 2.828125 -9.625 C 2.828125 -8.34375 3.003906 -7.132812 3.359375 -6 C 3.710938 -4.863281 4.238281 -3.875 4.9375 -3.03125 C 5.632812 -2.1875 6.5 -1.507812 7.53125 -1 C 8.570312 -0.5 9.765625 -0.25 11.109375 -0.25 C 12.117188 -0.25 13.050781 -0.390625 13.90625 -0.671875 C 14.769531 -0.960938 15.53125 -1.347656 16.1875 -1.828125 C 16.84375 -2.304688 17.390625 -2.863281 17.828125 -3.5 C 18.265625 -4.144531 18.566406 -4.835938 18.734375 -5.578125 C 18.816406 -5.953125 18.914062 -6.320312 19.03125 -6.6875 C 19.15625 -7.0625 19.328125 -7.25 19.546875 -7.25 C 19.742188 -7.25 19.878906 -7.179688 19.953125 -7.046875 C 20.035156 -6.910156 20.078125 -6.773438 20.078125 -6.640625 C 20.078125 -6.253906 19.984375 -5.78125 19.796875 -5.21875 C 19.609375 -4.664062 19.320312 -4.070312 18.9375 -3.4375 C 18.164062 -2.1875 17.128906 -1.195312 15.828125 -0.46875 C 14.535156 0.25 12.988281 0.609375 11.1875 0.609375 C 9.570312 0.609375 8.171875 0.320312 6.984375 -0.25 C 5.796875 -0.820312 4.804688 -1.597656 4.015625 -2.578125 C 3.222656 -3.566406 2.628906 -4.703125 2.234375 -5.984375 C 1.835938 -7.265625 1.640625 -8.617188 1.640625 -10.046875 C 1.640625 -11.648438 1.867188 -13.132812 2.328125 -14.5 C 2.796875 -15.875 3.457031 -17.050781 4.3125 -18.03125 C 5.175781 -19.019531 6.207031 -19.785156 7.40625 -20.328125 C 8.613281 -20.867188 9.941406 -21.140625 11.390625 -21.140625 Z M 11.390625 -21.140625 "/></g></g></g><g fill="#ffffff" fill-opacity="1"><g transform="translate(97.550791, 31.185539)"><g/></g></g><g fill="#ffffff" fill-opacity="1"><g transform="translate(110.664434, 31.185539)"><g><path d="M 5.40625 -25.859375 C 5.707031 -25.859375 5.859375 -25.585938 5.859375 -25.046875 C 5.859375 -24.660156 5.832031 -24.125 5.78125 -23.4375 C 5.726562 -22.757812 5.703125 -22.132812 5.703125 -21.5625 C 5.703125 -21.039062 5.820312 -20.738281 6.0625 -20.65625 C 6.3125 -20.570312 6.847656 -20.53125 7.671875 -20.53125 C 7.773438 -20.53125 7.984375 -20.535156 8.296875 -20.546875 C 8.609375 -20.566406 8.957031 -20.582031 9.34375 -20.59375 C 9.726562 -20.601562 10.085938 -20.613281 10.421875 -20.625 C 10.765625 -20.644531 11.003906 -20.65625 11.140625 -20.65625 C 11.503906 -20.65625 11.742188 -20.597656 11.859375 -20.484375 C 11.984375 -20.378906 12.046875 -20.257812 12.046875 -20.125 C 12.046875 -19.957031 11.984375 -19.816406 11.859375 -19.703125 C 11.742188 -19.597656 11.453125 -19.546875 10.984375 -19.546875 C 10.816406 -19.546875 10.519531 -19.550781 10.09375 -19.5625 C 9.675781 -19.582031 9.238281 -19.601562 8.78125 -19.625 C 8.332031 -19.65625 7.90625 -19.675781 7.5 -19.6875 C 7.09375 -19.707031 6.832031 -19.71875 6.71875 -19.71875 C 6.195312 -19.71875 5.878906 -19.613281 5.765625 -19.40625 C 5.660156 -19.195312 5.609375 -18.738281 5.609375 -18.03125 L 5.609375 -8.109375 C 5.609375 -6.523438 5.691406 -5.226562 5.859375 -4.21875 C 6.023438 -3.207031 6.269531 -2.40625 6.59375 -1.8125 C 6.925781 -1.226562 7.34375 -0.820312 7.84375 -0.59375 C 8.351562 -0.363281 8.945312 -0.25 9.625 -0.25 C 10.363281 -0.25 11.066406 -0.429688 11.734375 -0.796875 C 12.410156 -1.171875 12.898438 -1.875 13.203125 -2.90625 C 13.335938 -3.375 13.429688 -3.875 13.484375 -4.40625 C 13.535156 -4.9375 13.5625 -5.664062 13.5625 -6.59375 C 13.5625 -6.925781 13.546875 -7.238281 13.515625 -7.53125 C 13.492188 -7.832031 13.484375 -8.109375 13.484375 -8.359375 C 13.484375 -8.929688 13.6875 -9.21875 14.09375 -9.21875 C 14.394531 -9.21875 14.570312 -9.09375 14.625 -8.84375 C 14.6875 -8.601562 14.71875 -8.28125 14.71875 -7.875 C 14.71875 -6.34375 14.664062 -5.109375 14.5625 -4.171875 C 14.46875 -3.242188 14.269531 -2.453125 13.96875 -1.796875 C 13.59375 -0.898438 13.039062 -0.273438 12.3125 0.078125 C 11.59375 0.429688 10.671875 0.609375 9.546875 0.609375 C 7.878906 0.609375 6.625 0.0507812 5.78125 -1.0625 C 4.9375 -2.1875 4.515625 -4.046875 4.515625 -6.640625 L 4.515625 -18.03125 C 4.515625 -18.738281 4.457031 -19.195312 4.34375 -19.40625 C 4.238281 -19.613281 3.910156 -19.71875 3.359375 -19.71875 C 3.171875 -19.71875 2.800781 -19.6875 2.25 -19.625 C 1.707031 -19.570312 1.300781 -19.546875 1.03125 -19.546875 C 0.78125 -19.546875 0.585938 -19.609375 0.453125 -19.734375 C 0.316406 -19.859375 0.25 -19.988281 0.25 -20.125 C 0.25 -20.476562 0.507812 -20.65625 1.03125 -20.65625 C 1.269531 -20.65625 1.613281 -20.632812 2.0625 -20.59375 C 2.519531 -20.550781 2.84375 -20.53125 3.03125 -20.53125 C 3.738281 -20.53125 4.21875 -20.679688 4.46875 -20.984375 C 4.71875 -21.285156 4.84375 -21.898438 4.84375 -22.828125 C 4.84375 -23.804688 4.875 -24.554688 4.9375 -25.078125 C 5.007812 -25.597656 5.164062 -25.859375 5.40625 -25.859375 Z M 5.40625 -25.859375 "/></g></g></g><g fill="#ffffff" fill-opacity="1"><g transform="translate(126.07295, 31.185539)"><g><path d="M 1.1875 -28.5625 C 1.300781 -28.5625 1.566406 -28.535156 1.984375 -28.484375 C 2.410156 -28.429688 3.003906 -28.40625 3.765625 -28.40625 C 4.421875 -28.40625 4.929688 -28.429688 5.296875 -28.484375 C 5.671875 -28.535156 5.941406 -28.5625 6.109375 -28.5625 C 6.410156 -28.5625 6.597656 -28.492188 6.671875 -28.359375 C 6.753906 -28.222656 6.796875 -28.03125 6.796875 -27.78125 L 6.796875 -16.890625 L 6.890625 -16.890625 C 8.578125 -19.722656 11.128906 -21.140625 14.546875 -21.140625 C 16.835938 -21.140625 18.582031 -20.5625 19.78125 -19.40625 C 20.988281 -18.25 21.59375 -16.316406 21.59375 -13.609375 L 21.59375 -6.59375 C 21.59375 -5.3125 21.609375 -4.285156 21.640625 -3.515625 C 21.671875 -2.753906 21.757812 -2.15625 21.90625 -1.71875 C 22.050781 -1.28125 22.273438 -0.992188 22.578125 -0.859375 C 22.878906 -0.722656 23.316406 -0.65625 23.890625 -0.65625 C 24.191406 -0.65625 24.539062 -0.679688 24.9375 -0.734375 C 25.332031 -0.785156 25.640625 -0.8125 25.859375 -0.8125 C 26.128906 -0.8125 26.351562 -0.765625 26.53125 -0.671875 C 26.707031 -0.578125 26.796875 -0.4375 26.796875 -0.25 C 26.796875 -0.0507812 26.710938 0.0820312 26.546875 0.15625 C 26.390625 0.238281 26.203125 0.28125 25.984375 0.28125 C 25.734375 0.28125 25.40625 0.265625 25 0.234375 C 24.59375 0.210938 24.15625 0.179688 23.6875 0.140625 C 23.226562 0.0976562 22.765625 0.0625 22.296875 0.03125 C 21.828125 0.0078125 21.40625 0 21.03125 0 C 20.695312 0 20.289062 0.0078125 19.8125 0.03125 C 19.332031 0.0625 18.851562 0.0976562 18.375 0.140625 C 17.90625 0.179688 17.460938 0.210938 17.046875 0.234375 C 16.640625 0.265625 16.335938 0.28125 16.140625 0.28125 C 15.898438 0.28125 15.695312 0.238281 15.53125 0.15625 C 15.363281 0.0820312 15.28125 -0.0507812 15.28125 -0.25 C 15.28125 -0.4375 15.367188 -0.578125 15.546875 -0.671875 C 15.722656 -0.765625 15.953125 -0.8125 16.234375 -0.8125 C 16.453125 -0.8125 16.757812 -0.785156 17.15625 -0.734375 C 17.550781 -0.679688 17.898438 -0.65625 18.203125 -0.65625 C 18.828125 -0.65625 19.257812 -0.722656 19.5 -0.859375 C 19.75 -0.992188 19.941406 -1.195312 20.078125 -1.46875 C 20.210938 -1.769531 20.316406 -2.3125 20.390625 -3.09375 C 20.460938 -3.875 20.5 -5.140625 20.5 -6.890625 L 20.5 -12.953125 C 20.5 -15.628906 19.988281 -17.519531 18.96875 -18.625 C 17.957031 -19.726562 16.429688 -20.28125 14.390625 -20.28125 C 13.265625 -20.28125 12.238281 -20.097656 11.3125 -19.734375 C 10.382812 -19.367188 9.582031 -18.835938 8.90625 -18.140625 C 8.238281 -17.441406 7.71875 -16.597656 7.34375 -15.609375 C 6.976562 -14.628906 6.796875 -13.523438 6.796875 -12.296875 L 6.796875 -6.3125 C 6.796875 -5.1875 6.8125 -4.253906 6.84375 -3.515625 C 6.875 -2.785156 6.957031 -2.207031 7.09375 -1.78125 C 7.226562 -1.351562 7.445312 -1.054688 7.75 -0.890625 C 8.050781 -0.734375 8.488281 -0.65625 9.0625 -0.65625 C 9.363281 -0.65625 9.71875 -0.679688 10.125 -0.734375 C 10.53125 -0.785156 10.859375 -0.8125 11.109375 -0.8125 C 11.347656 -0.8125 11.554688 -0.765625 11.734375 -0.671875 C 11.921875 -0.578125 12.015625 -0.4375 12.015625 -0.25 C 12.015625 -0.0507812 11.929688 0.0820312 11.765625 0.15625 C 11.597656 0.238281 11.40625 0.28125 11.1875 0.28125 C 10.96875 0.28125 10.648438 0.265625 10.234375 0.234375 C 9.828125 0.210938 9.382812 0.179688 8.90625 0.140625 C 8.4375 0.0976562 7.960938 0.0625 7.484375 0.03125 C 7.003906 0.0078125 6.585938 0 6.234375 0 C 5.898438 0 5.492188 0.0078125 5.015625 0.03125 C 4.535156 0.0625 4.054688 0.0976562 3.578125 0.140625 C 3.109375 0.179688 2.660156 0.210938 2.234375 0.234375 C 1.804688 0.265625 1.5 0.28125 1.3125 0.28125 C 0.757812 0.28125 0.484375 0.101562 0.484375 -0.25 C 0.484375 -0.351562 0.523438 -0.472656 0.609375 -0.609375 C 0.691406 -0.742188 0.925781 -0.8125 1.3125 -0.8125 C 1.5 -0.8125 1.816406 -0.785156 2.265625 -0.734375 C 2.722656 -0.679688 3.101562 -0.65625 3.40625 -0.65625 C 4.082031 -0.65625 4.535156 -0.734375 4.765625 -0.890625 C 5.003906 -1.054688 5.191406 -1.28125 5.328125 -1.5625 C 5.429688 -1.832031 5.519531 -2.351562 5.59375 -3.125 C 5.664062 -3.90625 5.703125 -5.160156 5.703125 -6.890625 L 5.703125 -22.953125 C 5.703125 -23.960938 5.691406 -24.773438 5.671875 -25.390625 C 5.660156 -26.003906 5.609375 -26.472656 5.515625 -26.796875 C 5.421875 -27.128906 5.269531 -27.347656 5.0625 -27.453125 C 4.851562 -27.566406 4.570312 -27.625 4.21875 -27.625 C 4.03125 -27.625 3.796875 -27.613281 3.515625 -27.59375 C 3.242188 -27.582031 2.972656 -27.5625 2.703125 -27.53125 C 2.429688 -27.507812 2.171875 -27.488281 1.921875 -27.46875 C 1.679688 -27.457031 1.492188 -27.453125 1.359375 -27.453125 C 0.773438 -27.453125 0.484375 -27.632812 0.484375 -28 C 0.484375 -28.375 0.71875 -28.5625 1.1875 -28.5625 Z M 1.1875 -28.5625 "/></g></g></g><g fill="#ffffff" fill-opacity="1"><g transform="translate(153.037863, 31.185539)"><g><path d="M 2.984375 -12.296875 C 2.984375 -11.992188 3.050781 -11.804688 3.1875 -11.734375 C 3.332031 -11.671875 3.539062 -11.640625 3.8125 -11.640625 L 18.53125 -11.640625 C 18.71875 -11.640625 18.863281 -11.671875 18.96875 -11.734375 C 19.082031 -11.804688 19.140625 -11.96875 19.140625 -12.21875 C 19.140625 -13.113281 18.984375 -14.03125 18.671875 -14.96875 C 18.359375 -15.914062 17.882812 -16.785156 17.25 -17.578125 C 16.625 -18.367188 15.8125 -19.015625 14.8125 -19.515625 C 13.8125 -20.023438 12.644531 -20.28125 11.3125 -20.28125 C 10.488281 -20.28125 9.707031 -20.175781 8.96875 -19.96875 C 8.238281 -19.769531 7.554688 -19.476562 6.921875 -19.09375 C 6.296875 -18.71875 5.742188 -18.234375 5.265625 -17.640625 C 4.785156 -17.054688 4.375 -16.4375 4.03125 -15.78125 C 3.695312 -15.125 3.4375 -14.488281 3.25 -13.875 C 3.070312 -13.257812 2.984375 -12.734375 2.984375 -12.296875 Z M 11.390625 -21.140625 C 12.890625 -21.140625 14.203125 -20.851562 15.328125 -20.28125 C 16.453125 -19.707031 17.378906 -18.96875 18.109375 -18.0625 C 18.847656 -17.164062 19.398438 -16.171875 19.765625 -15.078125 C 20.140625 -13.984375 20.328125 -12.921875 20.328125 -11.890625 C 20.328125 -11.421875 20.226562 -11.097656 20.03125 -10.921875 C 19.84375 -10.742188 19.4375 -10.65625 18.8125 -10.65625 L 3.640625 -10.65625 C 3.316406 -10.65625 3.097656 -10.597656 2.984375 -10.484375 C 2.878906 -10.378906 2.828125 -10.09375 2.828125 -9.625 C 2.828125 -8.34375 3.003906 -7.132812 3.359375 -6 C 3.710938 -4.863281 4.238281 -3.875 4.9375 -3.03125 C 5.632812 -2.1875 6.5 -1.507812 7.53125 -1 C 8.570312 -0.5 9.765625 -0.25 11.109375 -0.25 C 12.117188 -0.25 13.050781 -0.390625 13.90625 -0.671875 C 14.769531 -0.960938 15.53125 -1.347656 16.1875 -1.828125 C 16.84375 -2.304688 17.390625 -2.863281 17.828125 -3.5 C 18.265625 -4.144531 18.566406 -4.835938 18.734375 -5.578125 C 18.816406 -5.953125 18.914062 -6.320312 19.03125 -6.6875 C 19.15625 -7.0625 19.328125 -7.25 19.546875 -7.25 C 19.742188 -7.25 19.878906 -7.179688 19.953125 -7.046875 C 20.035156 -6.910156 20.078125 -6.773438 20.078125 -6.640625 C 20.078125 -6.253906 19.984375 -5.78125 19.796875 -5.21875 C 19.609375 -4.664062 19.320312 -4.070312 18.9375 -3.4375 C 18.164062 -2.1875 17.128906 -1.195312 15.828125 -0.46875 C 14.535156 0.25 12.988281 0.609375 11.1875 0.609375 C 9.570312 0.609375 8.171875 0.320312 6.984375 -0.25 C 5.796875 -0.820312 4.804688 -1.597656 4.015625 -2.578125 C 3.222656 -3.566406 2.628906 -4.703125 2.234375 -5.984375 C 1.835938 -7.265625 1.640625 -8.617188 1.640625 -10.046875 C 1.640625 -11.648438 1.867188 -13.132812 2.328125 -14.5 C 2.796875 -15.875 3.457031 -17.050781 4.3125 -18.03125 C 5.175781 -19.019531 6.207031 -19.785156 7.40625 -20.328125 C 8.613281 -20.867188 9.941406 -21.140625 11.390625 -21.140625 Z M 11.390625 -21.140625 "/></g></g></g><g fill="#ffffff" fill-opacity="1"><g transform="translate(175.372033, 31.185539)"><g/></g></g><g fill="#ffffff" fill-opacity="1"><g transform="translate(188.485676, 31.185539)"><g><path d="M 14.1875 -21.140625 C 14.945312 -21.140625 15.679688 -21.023438 16.390625 -20.796875 C 17.097656 -20.566406 17.71875 -20.238281 18.25 -19.8125 C 18.789062 -19.394531 19.21875 -18.867188 19.53125 -18.234375 C 19.84375 -17.609375 20 -16.898438 20 -16.109375 C 20 -15.117188 19.753906 -14.289062 19.265625 -13.625 C 18.773438 -12.957031 18.144531 -12.625 17.375 -12.625 C 16.914062 -12.625 16.546875 -12.757812 16.265625 -13.03125 C 15.992188 -13.300781 15.859375 -13.644531 15.859375 -14.0625 C 15.859375 -14.4375 15.972656 -14.734375 16.203125 -14.953125 C 16.441406 -15.171875 16.695312 -15.28125 16.96875 -15.28125 C 17.238281 -15.28125 17.472656 -15.191406 17.671875 -15.015625 C 17.878906 -14.835938 18.066406 -14.75 18.234375 -14.75 C 18.367188 -14.75 18.5 -14.890625 18.625 -15.171875 C 18.75 -15.460938 18.8125 -15.84375 18.8125 -16.3125 C 18.8125 -17.40625 18.394531 -18.335938 17.5625 -19.109375 C 16.726562 -19.890625 15.570312 -20.28125 14.09375 -20.28125 C 11.800781 -20.28125 10.132812 -19.582031 9.09375 -18.1875 C 8.0625 -16.800781 7.546875 -14.726562 7.546875 -11.96875 L 7.546875 -6.140625 C 7.546875 -4.941406 7.566406 -3.976562 7.609375 -3.25 C 7.648438 -2.53125 7.742188 -1.976562 7.890625 -1.59375 C 8.035156 -1.21875 8.257812 -0.96875 8.5625 -0.84375 C 8.863281 -0.71875 9.289062 -0.65625 9.84375 -0.65625 C 10.132812 -0.65625 10.476562 -0.679688 10.875 -0.734375 C 11.269531 -0.785156 11.59375 -0.8125 11.84375 -0.8125 C 12.09375 -0.8125 12.304688 -0.765625 12.484375 -0.671875 C 12.660156 -0.578125 12.75 -0.4375 12.75 -0.25 C 12.75 -0.0507812 12.664062 0.0820312 12.5 0.15625 C 12.332031 0.238281 12.140625 0.28125 11.921875 0.28125 C 11.703125 0.28125 11.390625 0.265625 10.984375 0.234375 C 10.578125 0.210938 10.132812 0.179688 9.65625 0.140625 C 9.175781 0.0976562 8.695312 0.0625 8.21875 0.03125 C 7.738281 0.0078125 7.320312 0 6.96875 0 C 6.632812 0 6.226562 0.0078125 5.75 0.03125 C 5.28125 0.0625 4.804688 0.0976562 4.328125 0.140625 C 3.847656 0.179688 3.394531 0.210938 2.96875 0.234375 C 2.550781 0.265625 2.242188 0.28125 2.046875 0.28125 C 1.828125 0.28125 1.632812 0.238281 1.46875 0.15625 C 1.3125 0.0820312 1.234375 -0.0507812 1.234375 -0.25 C 1.234375 -0.4375 1.320312 -0.578125 1.5 -0.671875 C 1.675781 -0.765625 1.882812 -0.8125 2.125 -0.8125 C 2.375 -0.8125 2.695312 -0.785156 3.09375 -0.734375 C 3.488281 -0.679688 3.878906 -0.65625 4.265625 -0.65625 C 5.222656 -0.65625 5.820312 -0.957031 6.0625 -1.5625 C 6.195312 -1.863281 6.289062 -2.375 6.34375 -3.09375 C 6.40625 -3.820312 6.4375 -4.8125 6.4375 -6.0625 L 6.4375 -15.078125 C 6.4375 -16.117188 6.425781 -16.945312 6.40625 -17.5625 C 6.394531 -18.175781 6.332031 -18.644531 6.21875 -18.96875 C 6.113281 -19.300781 5.957031 -19.515625 5.75 -19.609375 C 5.550781 -19.703125 5.257812 -19.75 4.875 -19.75 C 4.707031 -19.75 4.492188 -19.742188 4.234375 -19.734375 C 3.984375 -19.722656 3.71875 -19.703125 3.4375 -19.671875 C 3.164062 -19.640625 2.90625 -19.617188 2.65625 -19.609375 C 2.414062 -19.597656 2.210938 -19.59375 2.046875 -19.59375 C 1.503906 -19.59375 1.234375 -19.769531 1.234375 -20.125 C 1.234375 -20.507812 1.460938 -20.703125 1.921875 -20.703125 C 2.003906 -20.703125 2.265625 -20.671875 2.703125 -20.609375 C 3.140625 -20.554688 3.742188 -20.53125 4.515625 -20.53125 C 5.160156 -20.53125 5.664062 -20.554688 6.03125 -20.609375 C 6.40625 -20.671875 6.675781 -20.703125 6.84375 -20.703125 C 7.144531 -20.703125 7.335938 -20.628906 7.421875 -20.484375 C 7.503906 -20.347656 7.546875 -20.160156 7.546875 -19.921875 L 7.546875 -17.09375 L 7.625 -17.09375 C 8.25 -18.375 9.128906 -19.367188 10.265625 -20.078125 C 11.398438 -20.785156 12.707031 -21.140625 14.1875 -21.140625 Z M 14.1875 -21.140625 "/></g></g></g><g fill="#ffffff" fill-opacity="1"><g transform="translate(209.303597, 31.185539)"><g><path d="M 2.703125 -4.953125 C 2.703125 -4.222656 2.863281 -3.5625 3.1875 -2.96875 C 3.519531 -2.382812 3.957031 -1.894531 4.5 -1.5 C 5.050781 -1.101562 5.675781 -0.796875 6.375 -0.578125 C 7.070312 -0.359375 7.789062 -0.25 8.53125 -0.25 C 9.539062 -0.25 10.535156 -0.4375 11.515625 -0.8125 C 12.492188 -1.195312 13.359375 -1.738281 14.109375 -2.4375 C 14.867188 -3.132812 15.476562 -3.96875 15.9375 -4.9375 C 16.40625 -5.90625 16.640625 -6.976562 16.640625 -8.15625 L 16.640625 -12.75 L 16.4375 -12.828125 C 15.800781 -12.003906 15.070312 -11.421875 14.25 -11.078125 C 13.4375 -10.742188 12.457031 -10.535156 11.3125 -10.453125 L 8.609375 -10.25 C 6.523438 -10.082031 5.019531 -9.546875 4.09375 -8.640625 C 3.164062 -7.742188 2.703125 -6.515625 2.703125 -4.953125 Z M 10.375 -21.140625 C 12.9375 -21.140625 14.804688 -20.53125 15.984375 -19.3125 C 17.160156 -18.101562 17.75 -16.421875 17.75 -14.265625 L 17.75 -4.46875 C 17.75 -3.425781 17.816406 -2.625 17.953125 -2.0625 C 18.085938 -1.507812 18.265625 -1.09375 18.484375 -0.8125 C 18.703125 -0.539062 18.953125 -0.378906 19.234375 -0.328125 C 19.523438 -0.273438 19.753906 -0.25 19.921875 -0.25 C 20.546875 -0.25 21.097656 -0.492188 21.578125 -0.984375 C 22.054688 -1.472656 22.296875 -2.179688 22.296875 -3.109375 C 22.296875 -3.359375 22.285156 -3.625 22.265625 -3.90625 C 22.253906 -4.195312 22.25 -4.492188 22.25 -4.796875 C 22.25 -5.285156 22.28125 -5.710938 22.34375 -6.078125 C 22.414062 -6.453125 22.578125 -6.640625 22.828125 -6.640625 C 23.046875 -6.640625 23.195312 -6.535156 23.28125 -6.328125 C 23.363281 -6.128906 23.40625 -5.78125 23.40625 -5.28125 C 23.40625 -4.113281 23.335938 -3.148438 23.203125 -2.390625 C 23.066406 -1.640625 22.859375 -1.039062 22.578125 -0.59375 C 22.304688 -0.144531 21.953125 0.164062 21.515625 0.34375 C 21.078125 0.519531 20.570312 0.609375 20 0.609375 C 19.476562 0.609375 19.019531 0.53125 18.625 0.375 C 18.226562 0.226562 17.882812 -0.0234375 17.59375 -0.390625 C 17.3125 -0.753906 17.09375 -1.242188 16.9375 -1.859375 C 16.789062 -2.472656 16.707031 -3.25 16.6875 -4.1875 L 16.59375 -4.1875 C 16.019531 -3.226562 15.410156 -2.441406 14.765625 -1.828125 C 14.128906 -1.210938 13.460938 -0.71875 12.765625 -0.34375 C 12.066406 0.0195312 11.34375 0.269531 10.59375 0.40625 C 9.84375 0.539062 9.070312 0.609375 8.28125 0.609375 C 7.289062 0.609375 6.382812 0.460938 5.5625 0.171875 C 4.75 -0.109375 4.039062 -0.5 3.4375 -1 C 2.84375 -1.507812 2.375 -2.113281 2.03125 -2.8125 C 1.6875 -3.507812 1.515625 -4.253906 1.515625 -5.046875 C 1.515625 -6.054688 1.664062 -6.90625 1.96875 -7.59375 C 2.269531 -8.289062 2.691406 -8.875 3.234375 -9.34375 C 3.484375 -9.5625 3.773438 -9.769531 4.109375 -9.96875 C 4.453125 -10.175781 4.867188 -10.367188 5.359375 -10.546875 C 5.859375 -10.722656 6.445312 -10.875 7.125 -11 C 7.8125 -11.125 8.632812 -11.210938 9.59375 -11.265625 L 11.390625 -11.390625 C 13.171875 -11.523438 14.46875 -11.96875 15.28125 -12.71875 C 16.101562 -13.476562 16.515625 -14.375 16.515625 -15.40625 C 16.515625 -16.988281 15.96875 -18.195312 14.875 -19.03125 C 13.78125 -19.863281 12.332031 -20.28125 10.53125 -20.28125 C 9.570312 -20.28125 8.691406 -20.164062 7.890625 -19.9375 C 7.085938 -19.707031 6.394531 -19.398438 5.8125 -19.015625 C 5.238281 -18.628906 4.796875 -18.175781 4.484375 -17.65625 C 4.171875 -17.144531 4.015625 -16.601562 4.015625 -16.03125 C 4.015625 -15.53125 4.125 -15.28125 4.34375 -15.28125 C 4.394531 -15.28125 4.503906 -15.390625 4.671875 -15.609375 C 4.859375 -15.941406 5.054688 -16.160156 5.265625 -16.265625 C 5.472656 -16.378906 5.6875 -16.4375 5.90625 -16.4375 C 6.28125 -16.4375 6.578125 -16.296875 6.796875 -16.015625 C 7.015625 -15.742188 7.125 -15.429688 7.125 -15.078125 C 7.125 -14.585938 6.929688 -14.171875 6.546875 -13.828125 C 6.171875 -13.484375 5.722656 -13.3125 5.203125 -13.3125 C 4.578125 -13.3125 4.023438 -13.554688 3.546875 -14.046875 C 3.066406 -14.546875 2.828125 -15.125 2.828125 -15.78125 C 2.828125 -16.519531 3.007812 -17.21875 3.375 -17.875 C 3.75 -18.53125 4.269531 -19.101562 4.9375 -19.59375 C 5.601562 -20.082031 6.398438 -20.460938 7.328125 -20.734375 C 8.265625 -21.003906 9.28125 -21.140625 10.375 -21.140625 Z M 10.375 -21.140625 "/></g></g></g><g fill="#ffffff" fill-opacity="1"><g transform="translate(232.00658, 31.185539)"><g><path d="M 5.53125 -9.59375 C 5.53125 -6.613281 6.148438 -4.3125 7.390625 -2.6875 C 8.640625 -1.0625 10.46875 -0.25 12.875 -0.25 C 14.070312 -0.25 15.171875 -0.453125 16.171875 -0.859375 C 17.171875 -1.265625 18.03125 -1.882812 18.75 -2.71875 C 19.476562 -3.550781 20.039062 -4.585938 20.4375 -5.828125 C 20.832031 -7.078125 21.03125 -8.523438 21.03125 -10.171875 C 21.03125 -11.640625 20.859375 -12.992188 20.515625 -14.234375 C 20.171875 -15.484375 19.671875 -16.550781 19.015625 -17.4375 C 18.359375 -18.320312 17.535156 -19.015625 16.546875 -19.515625 C 15.566406 -20.023438 14.4375 -20.28125 13.15625 -20.28125 C 11.320312 -20.28125 9.816406 -19.773438 8.640625 -18.765625 C 8.046875 -18.242188 7.550781 -17.710938 7.15625 -17.171875 C 6.757812 -16.628906 6.4375 -16.007812 6.1875 -15.3125 C 5.9375 -14.613281 5.765625 -13.796875 5.671875 -12.859375 C 5.578125 -11.929688 5.53125 -10.84375 5.53125 -9.59375 Z M -0.046875 -28.5625 C 0.148438 -28.5625 0.4375 -28.535156 0.8125 -28.484375 C 1.195312 -28.429688 1.773438 -28.40625 2.546875 -28.40625 C 3.203125 -28.40625 3.710938 -28.429688 4.078125 -28.484375 C 4.441406 -28.535156 4.707031 -28.5625 4.875 -28.5625 C 5.175781 -28.5625 5.367188 -28.492188 5.453125 -28.359375 C 5.535156 -28.222656 5.578125 -28.03125 5.578125 -27.78125 L 5.578125 -16.03125 L 5.65625 -16.03125 C 7.269531 -19.4375 9.8125 -21.140625 13.28125 -21.140625 C 14.5625 -21.140625 15.75 -20.894531 16.84375 -20.40625 C 17.9375 -19.914062 18.878906 -19.195312 19.671875 -18.25 C 20.460938 -17.3125 21.082031 -16.171875 21.53125 -14.828125 C 21.988281 -13.492188 22.21875 -11.976562 22.21875 -10.28125 C 22.21875 -8.5625 22 -7.023438 21.5625 -5.671875 C 21.125 -4.316406 20.5 -3.175781 19.6875 -2.25 C 18.882812 -1.320312 17.910156 -0.613281 16.765625 -0.125 C 15.617188 0.363281 14.347656 0.609375 12.953125 0.609375 C 11.148438 0.609375 9.65625 0.191406 8.46875 -0.640625 C 7.28125 -1.472656 6.34375 -2.625 5.65625 -4.09375 L 5.578125 -4.09375 C 5.578125 -3.632812 5.597656 -3.082031 5.640625 -2.4375 C 5.679688 -1.789062 5.703125 -1.222656 5.703125 -0.734375 C 5.703125 -0.0546875 5.46875 0.28125 5 0.28125 C 4.832031 0.28125 4.679688 0.21875 4.546875 0.09375 C 4.410156 -0.0195312 4.34375 -0.296875 4.34375 -0.734375 C 4.34375 -0.898438 4.347656 -1.144531 4.359375 -1.46875 C 4.378906 -1.800781 4.390625 -2.132812 4.390625 -2.46875 C 4.390625 -2.8125 4.394531 -3.140625 4.40625 -3.453125 C 4.414062 -3.773438 4.421875 -4.003906 4.421875 -4.140625 L 4.46875 -22.953125 C 4.46875 -24.046875 4.453125 -24.898438 4.421875 -25.515625 C 4.398438 -26.128906 4.335938 -26.59375 4.234375 -26.90625 C 4.140625 -27.21875 3.976562 -27.414062 3.75 -27.5 C 3.519531 -27.582031 3.195312 -27.625 2.78125 -27.625 C 2.675781 -27.625 2.5 -27.613281 2.25 -27.59375 C 2.007812 -27.582031 1.742188 -27.5625 1.453125 -27.53125 C 1.171875 -27.507812 0.898438 -27.488281 0.640625 -27.46875 C 0.378906 -27.457031 0.191406 -27.453125 0.078125 -27.453125 C -0.460938 -27.453125 -0.734375 -27.632812 -0.734375 -28 C -0.734375 -28.375 -0.503906 -28.5625 -0.046875 -28.5625 Z M -0.046875 -28.5625 "/></g></g></g><g fill="#ffffff" fill-opacity="1"><g transform="translate(255.897997, 31.185539)"><g><path d="M 5.53125 -9.59375 C 5.53125 -6.613281 6.148438 -4.3125 7.390625 -2.6875 C 8.640625 -1.0625 10.46875 -0.25 12.875 -0.25 C 14.070312 -0.25 15.171875 -0.453125 16.171875 -0.859375 C 17.171875 -1.265625 18.03125 -1.882812 18.75 -2.71875 C 19.476562 -3.550781 20.039062 -4.585938 20.4375 -5.828125 C 20.832031 -7.078125 21.03125 -8.523438 21.03125 -10.171875 C 21.03125 -11.640625 20.859375 -12.992188 20.515625 -14.234375 C 20.171875 -15.484375 19.671875 -16.550781 19.015625 -17.4375 C 18.359375 -18.320312 17.535156 -19.015625 16.546875 -19.515625 C 15.566406 -20.023438 14.4375 -20.28125 13.15625 -20.28125 C 11.320312 -20.28125 9.816406 -19.773438 8.640625 -18.765625 C 8.046875 -18.242188 7.550781 -17.710938 7.15625 -17.171875 C 6.757812 -16.628906 6.4375 -16.007812 6.1875 -15.3125 C 5.9375 -14.613281 5.765625 -13.796875 5.671875 -12.859375 C 5.578125 -11.929688 5.53125 -10.84375 5.53125 -9.59375 Z M -0.046875 -28.5625 C 0.148438 -28.5625 0.4375 -28.535156 0.8125 -28.484375 C 1.195312 -28.429688 1.773438 -28.40625 2.546875 -28.40625 C 3.203125 -28.40625 3.710938 -28.429688 4.078125 -28.484375 C 4.441406 -28.535156 4.707031 -28.5625 4.875 -28.5625 C 5.175781 -28.5625 5.367188 -28.492188 5.453125 -28.359375 C 5.535156 -28.222656 5.578125 -28.03125 5.578125 -27.78125 L 5.578125 -16.03125 L 5.65625 -16.03125 C 7.269531 -19.4375 9.8125 -21.140625 13.28125 -21.140625 C 14.5625 -21.140625 15.75 -20.894531 16.84375 -20.40625 C 17.9375 -19.914062 18.878906 -19.195312 19.671875 -18.25 C 20.460938 -17.3125 21.082031 -16.171875 21.53125 -14.828125 C 21.988281 -13.492188 22.21875 -11.976562 22.21875 -10.28125 C 22.21875 -8.5625 22 -7.023438 21.5625 -5.671875 C 21.125 -4.316406 20.5 -3.175781 19.6875 -2.25 C 18.882812 -1.320312 17.910156 -0.613281 16.765625 -0.125 C 15.617188 0.363281 14.347656 0.609375 12.953125 0.609375 C 11.148438 0.609375 9.65625 0.191406 8.46875 -0.640625 C 7.28125 -1.472656 6.34375 -2.625 5.65625 -4.09375 L 5.578125 -4.09375 C 5.578125 -3.632812 5.597656 -3.082031 5.640625 -2.4375 C 5.679688 -1.789062 5.703125 -1.222656 5.703125 -0.734375 C 5.703125 -0.0546875 5.46875 0.28125 5 0.28125 C 4.832031 0.28125 4.679688 0.21875 4.546875 0.09375 C 4.410156 -0.0195312 4.34375 -0.296875 4.34375 -0.734375 C 4.34375 -0.898438 4.347656 -1.144531 4.359375 -1.46875 C 4.378906 -1.800781 4.390625 -2.132812 4.390625 -2.46875 C 4.390625 -2.8125 4.394531 -3.140625 4.40625 -3.453125 C 4.414062 -3.773438 4.421875 -4.003906 4.421875 -4.140625 L 4.46875 -22.953125 C 4.46875 -24.046875 4.453125 -24.898438 4.421875 -25.515625 C 4.398438 -26.128906 4.335938 -26.59375 4.234375 -26.90625 C 4.140625 -27.21875 3.976562 -27.414062 3.75 -27.5 C 3.519531 -27.582031 3.195312 -27.625 2.78125 -27.625 C 2.675781 -27.625 2.5 -27.613281 2.25 -27.59375 C 2.007812 -27.582031 1.742188 -27.5625 1.453125 -27.53125 C 1.171875 -27.507812 0.898438 -27.488281 0.640625 -27.46875 C 0.378906 -27.457031 0.191406 -27.453125 0.078125 -27.453125 C -0.460938 -27.453125 -0.734375 -27.632812 -0.734375 -28 C -0.734375 -28.375 -0.503906 -28.5625 -0.046875 -28.5625 Z M -0.046875 -28.5625 "/></g></g></g><g fill="#ffffff" fill-opacity="1"><g transform="translate(279.789414, 31.185539)"><g><path d="M 1.921875 -20.703125 C 2.003906 -20.703125 2.265625 -20.671875 2.703125 -20.609375 C 3.140625 -20.554688 3.742188 -20.53125 4.515625 -20.53125 C 5.160156 -20.53125 5.664062 -20.554688 6.03125 -20.609375 C 6.40625 -20.671875 6.675781 -20.703125 6.84375 -20.703125 C 7.144531 -20.703125 7.335938 -20.628906 7.421875 -20.484375 C 7.503906 -20.347656 7.546875 -20.160156 7.546875 -19.921875 L 7.546875 -6.890625 C 7.546875 -6.015625 7.550781 -5.28125 7.5625 -4.6875 C 7.570312 -4.101562 7.59375 -3.617188 7.625 -3.234375 C 7.65625 -2.847656 7.6875 -2.539062 7.71875 -2.3125 C 7.757812 -2.082031 7.8125 -1.882812 7.875 -1.71875 C 7.976562 -1.363281 8.171875 -1.097656 8.453125 -0.921875 C 8.742188 -0.742188 9.207031 -0.65625 9.84375 -0.65625 C 10.132812 -0.65625 10.476562 -0.679688 10.875 -0.734375 C 11.269531 -0.785156 11.59375 -0.8125 11.84375 -0.8125 C 12.09375 -0.8125 12.304688 -0.765625 12.484375 -0.671875 C 12.660156 -0.578125 12.75 -0.4375 12.75 -0.25 C 12.75 -0.0507812 12.664062 0.0820312 12.5 0.15625 C 12.332031 0.238281 12.140625 0.28125 11.921875 0.28125 C 11.703125 0.28125 11.390625 0.265625 10.984375 0.234375 C 10.578125 0.210938 10.132812 0.179688 9.65625 0.140625 C 9.175781 0.0976562 8.695312 0.0625 8.21875 0.03125 C 7.738281 0.0078125 7.320312 0 6.96875 0 C 6.632812 0 6.226562 0.0078125 5.75 0.03125 C 5.28125 0.0625 4.804688 0.0976562 4.328125 0.140625 C 3.847656 0.179688 3.394531 0.210938 2.96875 0.234375 C 2.550781 0.265625 2.242188 0.28125 2.046875 0.28125 C 1.828125 0.28125 1.632812 0.238281 1.46875 0.15625 C 1.3125 0.0820312 1.234375 -0.0507812 1.234375 -0.25 C 1.234375 -0.4375 1.320312 -0.578125 1.5 -0.671875 C 1.675781 -0.765625 1.882812 -0.8125 2.125 -0.8125 C 2.375 -0.8125 2.695312 -0.785156 3.09375 -0.734375 C 3.488281 -0.679688 3.835938 -0.65625 4.140625 -0.65625 C 4.710938 -0.65625 5.132812 -0.722656 5.40625 -0.859375 C 5.675781 -0.992188 5.882812 -1.195312 6.03125 -1.46875 C 6.082031 -1.613281 6.132812 -1.78125 6.1875 -1.96875 C 6.238281 -2.15625 6.285156 -2.441406 6.328125 -2.828125 C 6.367188 -3.210938 6.394531 -3.722656 6.40625 -4.359375 C 6.425781 -5.003906 6.4375 -5.847656 6.4375 -6.890625 L 6.4375 -14.921875 C 6.4375 -15.984375 6.425781 -16.832031 6.40625 -17.46875 C 6.394531 -18.113281 6.332031 -18.609375 6.21875 -18.953125 C 6.113281 -19.296875 5.945312 -19.515625 5.71875 -19.609375 C 5.488281 -19.703125 5.164062 -19.75 4.75 -19.75 C 4.644531 -19.75 4.460938 -19.742188 4.203125 -19.734375 C 3.941406 -19.722656 3.671875 -19.703125 3.390625 -19.671875 C 3.117188 -19.640625 2.851562 -19.617188 2.59375 -19.609375 C 2.34375 -19.597656 2.160156 -19.59375 2.046875 -19.59375 C 1.503906 -19.59375 1.234375 -19.769531 1.234375 -20.125 C 1.234375 -20.507812 1.460938 -20.703125 1.921875 -20.703125 Z M 6.59375 -26.921875 C 7.007812 -26.921875 7.363281 -26.773438 7.65625 -26.484375 C 7.957031 -26.203125 8.109375 -25.84375 8.109375 -25.40625 C 8.109375 -24.96875 7.957031 -24.597656 7.65625 -24.296875 C 7.363281 -24.003906 7.007812 -23.859375 6.59375 -23.859375 C 6.1875 -23.859375 5.832031 -24.003906 5.53125 -24.296875 C 5.226562 -24.597656 5.078125 -24.96875 5.078125 -25.40625 C 5.078125 -25.84375 5.226562 -26.203125 5.53125 -26.484375 C 5.832031 -26.773438 6.1875 -26.921875 6.59375 -26.921875 Z M 6.59375 -26.921875 "/></g></g></g><g fill="#ffffff" fill-opacity="1"><g transform="translate(292.903057, 31.185539)"><g><path d="M 5.40625 -25.859375 C 5.707031 -25.859375 5.859375 -25.585938 5.859375 -25.046875 C 5.859375 -24.660156 5.832031 -24.125 5.78125 -23.4375 C 5.726562 -22.757812 5.703125 -22.132812 5.703125 -21.5625 C 5.703125 -21.039062 5.820312 -20.738281 6.0625 -20.65625 C 6.3125 -20.570312 6.847656 -20.53125 7.671875 -20.53125 C 7.773438 -20.53125 7.984375 -20.535156 8.296875 -20.546875 C 8.609375 -20.566406 8.957031 -20.582031 9.34375 -20.59375 C 9.726562 -20.601562 10.085938 -20.613281 10.421875 -20.625 C 10.765625 -20.644531 11.003906 -20.65625 11.140625 -20.65625 C 11.503906 -20.65625 11.742188 -20.597656 11.859375 -20.484375 C 11.984375 -20.378906 12.046875 -20.257812 12.046875 -20.125 C 12.046875 -19.957031 11.984375 -19.816406 11.859375 -19.703125 C 11.742188 -19.597656 11.453125 -19.546875 10.984375 -19.546875 C 10.816406 -19.546875 10.519531 -19.550781 10.09375 -19.5625 C 9.675781 -19.582031 9.238281 -19.601562 8.78125 -19.625 C 8.332031 -19.65625 7.90625 -19.675781 7.5 -19.6875 C 7.09375 -19.707031 6.832031 -19.71875 6.71875 -19.71875 C 6.195312 -19.71875 5.878906 -19.613281 5.765625 -19.40625 C 5.660156 -19.195312 5.609375 -18.738281 5.609375 -18.03125 L 5.609375 -8.109375 C 5.609375 -6.523438 5.691406 -5.226562 5.859375 -4.21875 C 6.023438 -3.207031 6.269531 -2.40625 6.59375 -1.8125 C 6.925781 -1.226562 7.34375 -0.820312 7.84375 -0.59375 C 8.351562 -0.363281 8.945312 -0.25 9.625 -0.25 C 10.363281 -0.25 11.066406 -0.429688 11.734375 -0.796875 C 12.410156 -1.171875 12.898438 -1.875 13.203125 -2.90625 C 13.335938 -3.375 13.429688 -3.875 13.484375 -4.40625 C 13.535156 -4.9375 13.5625 -5.664062 13.5625 -6.59375 C 13.5625 -6.925781 13.546875 -7.238281 13.515625 -7.53125 C 13.492188 -7.832031 13.484375 -8.109375 13.484375 -8.359375 C 13.484375 -8.929688 13.6875 -9.21875 14.09375 -9.21875 C 14.394531 -9.21875 14.570312 -9.09375 14.625 -8.84375 C 14.6875 -8.601562 14.71875 -8.28125 14.71875 -7.875 C 14.71875 -6.34375 14.664062 -5.109375 14.5625 -4.171875 C 14.46875 -3.242188 14.269531 -2.453125 13.96875 -1.796875 C 13.59375 -0.898438 13.039062 -0.273438 12.3125 0.078125 C 11.59375 0.429688 10.671875 0.609375 9.546875 0.609375 C 7.878906 0.609375 6.625 0.0507812 5.78125 -1.0625 C 4.9375 -2.1875 4.515625 -4.046875 4.515625 -6.640625 L 4.515625 -18.03125 C 4.515625 -18.738281 4.457031 -19.195312 4.34375 -19.40625 C 4.238281 -19.613281 3.910156 -19.71875 3.359375 -19.71875 C 3.171875 -19.71875 2.800781 -19.6875 2.25 -19.625 C 1.707031 -19.570312 1.300781 -19.546875 1.03125 -19.546875 C 0.78125 -19.546875 0.585938 -19.609375 0.453125 -19.734375 C 0.316406 -19.859375 0.25 -19.988281 0.25 -20.125 C 0.25 -20.476562 0.507812 -20.65625 1.03125 -20.65625 C 1.269531 -20.65625 1.613281 -20.632812 2.0625 -20.59375 C 2.519531 -20.550781 2.84375 -20.53125 3.03125 -20.53125 C 3.738281 -20.53125 4.21875 -20.679688 4.46875 -20.984375 C 4.71875 -21.285156 4.84375 -21.898438 4.84375 -22.828125 C 4.84375 -23.804688 4.875 -24.554688 4.9375 -25.078125 C 5.007812 -25.597656 5.164062 -25.859375 5.40625 -25.859375 Z M 5.40625 -25.859375 "/></g></g></g><g fill="#ffffff" fill-opacity="1"><g transform="translate(308.311573, 31.185539)"><g/></g></g><g fill="#ffffff" fill-opacity="1"><g transform="translate(321.425216, 31.185539)"><g><path d="M 14.71875 -28.890625 C 14.957031 -28.890625 15.078125 -28.78125 15.078125 -28.5625 C 15.078125 -28.425781 14.984375 -28.300781 14.796875 -28.1875 C 14.609375 -28.082031 14.414062 -27.976562 14.21875 -27.875 C 13.425781 -27.457031 12.414062 -26.796875 11.1875 -25.890625 C 9.957031 -24.992188 8.769531 -23.816406 7.625 -22.359375 C 6.476562 -20.898438 5.492188 -19.15625 4.671875 -17.125 C 3.847656 -15.101562 3.4375 -12.785156 3.4375 -10.171875 C 3.4375 -8.710938 3.570312 -7.363281 3.84375 -6.125 C 4.125 -4.882812 4.472656 -3.726562 4.890625 -2.65625 C 5.316406 -1.59375 5.796875 -0.632812 6.328125 0.21875 C 6.859375 1.082031 7.398438 1.828125 7.953125 2.453125 C 8.472656 3.085938 9 3.65625 9.53125 4.15625 C 10.0625 4.664062 10.597656 5.128906 11.140625 5.546875 C 11.691406 5.972656 12.273438 6.382812 12.890625 6.78125 C 13.503906 7.175781 14.164062 7.566406 14.875 7.953125 C 15.007812 8.035156 15.078125 8.144531 15.078125 8.28125 C 15.078125 8.46875 14.941406 8.5625 14.671875 8.5625 C 14.097656 8.5625 13.085938 8.097656 11.640625 7.171875 C 10.296875 6.296875 9.035156 5.253906 7.859375 4.046875 C 6.691406 2.847656 5.671875 1.519531 4.796875 0.0625 C 3.921875 -1.394531 3.226562 -2.984375 2.71875 -4.703125 C 2.21875 -6.429688 1.96875 -8.253906 1.96875 -10.171875 C 1.96875 -12.191406 2.234375 -14.070312 2.765625 -15.8125 C 3.296875 -17.5625 4 -19.15625 4.875 -20.59375 C 5.75 -22.03125 6.742188 -23.300781 7.859375 -24.40625 C 8.984375 -25.507812 10.132812 -26.457031 11.3125 -27.25 C 13.007812 -28.34375 14.144531 -28.890625 14.71875 -28.890625 Z M 14.71875 -28.890625 "/></g></g></g><g fill="#ffffff" fill-opacity="1"><g transform="translate(337.612355, 31.185539)"><g><path d="M 22.546875 -6.84375 L 22.546875 -5.703125 L 2.046875 -5.703125 L 2.046875 -6.84375 Z M 22.546875 -14.796875 L 22.546875 -13.640625 L 2.046875 -13.640625 L 2.046875 -14.796875 Z M 22.546875 -14.796875 "/></g></g></g><g fill="#ffffff" fill-opacity="1"><g transform="translate(362.200441, 31.185539)"><g><path d="M 11.640625 -27.703125 L 12.953125 -27.703125 L 20 -12.75 L 18.6875 -12.75 L 12.296875 -26.390625 L 5.90625 -12.75 L 4.59375 -12.75 Z M 11.640625 -27.703125 "/></g></g></g><g fill="#ffffff" fill-opacity="1"><g transform="translate(386.788527, 31.185539)"><g><path d="M 4.625 -3.53125 C 5.144531 -3.53125 5.609375 -3.335938 6.015625 -2.953125 C 6.429688 -2.566406 6.640625 -2.085938 6.640625 -1.515625 C 6.640625 -0.941406 6.429688 -0.460938 6.015625 -0.078125 C 5.609375 0.296875 5.144531 0.484375 4.625 0.484375 C 4.113281 0.484375 3.648438 0.296875 3.234375 -0.078125 C 2.828125 -0.460938 2.625 -0.941406 2.625 -1.515625 C 2.625 -2.085938 2.828125 -2.566406 3.234375 -2.953125 C 3.648438 -3.335938 4.113281 -3.53125 4.625 -3.53125 Z M 4.625 -3.53125 "/></g></g></g><g fill="#ffffff" fill-opacity="1"><g transform="translate(396.050051, 31.185539)"><g><path d="M 11.640625 -27.703125 L 12.953125 -27.703125 L 20 -12.75 L 18.6875 -12.75 L 12.296875 -26.390625 L 5.90625 -12.75 L 4.59375 -12.75 Z M 11.640625 -27.703125 "/></g></g></g><g fill="#ffffff" fill-opacity="1"><g transform="translate(420.638137, 31.185539)"><g><path d="M 22.546875 -6.84375 L 22.546875 -5.703125 L 2.046875 -5.703125 L 2.046875 -6.84375 Z M 22.546875 -14.796875 L 22.546875 -13.640625 L 2.046875 -13.640625 L 2.046875 -14.796875 Z M 22.546875 -14.796875 "/></g></g></g><g fill="#ffffff" fill-opacity="1"><g transform="translate(445.226222, 31.185539)"><g><path d="M 1.46875 -28.890625 C 2.050781 -28.890625 3.1875 -28.34375 4.875 -27.25 C 6.050781 -26.457031 7.195312 -25.507812 8.3125 -24.40625 C 9.4375 -23.300781 10.4375 -22.03125 11.3125 -20.59375 C 12.1875 -19.15625 12.890625 -17.5625 13.421875 -15.8125 C 13.953125 -14.070312 14.21875 -12.191406 14.21875 -10.171875 C 14.21875 -8.253906 13.960938 -6.429688 13.453125 -4.703125 C 12.953125 -2.984375 12.265625 -1.394531 11.390625 0.0625 C 10.515625 1.519531 9.488281 2.847656 8.3125 4.046875 C 7.144531 5.253906 5.890625 6.296875 4.546875 7.171875 C 3.097656 8.097656 2.085938 8.5625 1.515625 8.5625 C 1.242188 8.5625 1.109375 8.46875 1.109375 8.28125 C 1.109375 8.144531 1.175781 8.035156 1.3125 7.953125 C 2.019531 7.566406 2.679688 7.175781 3.296875 6.78125 C 3.910156 6.382812 4.488281 5.972656 5.03125 5.546875 C 5.582031 5.128906 6.117188 4.664062 6.640625 4.15625 C 7.160156 3.65625 7.691406 3.085938 8.234375 2.453125 C 8.753906 1.828125 9.285156 1.082031 9.828125 0.21875 C 10.378906 -0.632812 10.863281 -1.59375 11.28125 -2.65625 C 11.707031 -3.726562 12.054688 -4.882812 12.328125 -6.125 C 12.609375 -7.363281 12.75 -8.710938 12.75 -10.171875 C 12.75 -12.785156 12.335938 -15.101562 11.515625 -17.125 C 10.691406 -19.15625 9.707031 -20.898438 8.5625 -22.359375 C 7.414062 -23.816406 6.226562 -24.992188 5 -25.890625 C 3.769531 -26.796875 2.757812 -27.457031 1.96875 -27.875 C 1.78125 -27.976562 1.585938 -28.082031 1.390625 -28.1875 C 1.203125 -28.300781 1.109375 -28.425781 1.109375 -28.5625 C 1.109375 -28.78125 1.226562 -28.890625 1.46875 -28.890625 Z M 1.46875 -28.890625 "/></g></g></g></g></g></svg>