<?xml version="1.0" encoding="UTF-8"?>
<svg version="1.1" xmlns="http://www.w3.org/2000/svg" width="533" height="479">
<path d="M0 0 C175.89 0 351.78 0 533 0 C533 158.07 533 316.14 533 479 C357.11 479 181.22 479 0 479 C0 320.93 0 162.86 0 0 Z " fill="#030202" transform="translate(0,0)"/>
<path d="M0 0 C2.78039814 5.56079628 0.60151602 13.0393114 -0.75 18.8125 C-0.92756836 19.59351074 -1.10513672 20.37452148 -1.28808594 21.17919922 C-2.72742801 27.30209464 -4.59147663 33.18367229 -7 39 C-6.431604 38.83991455 -5.86320801 38.6798291 -5.27758789 38.51489258 C-1.36579538 37.63055659 2.5665875 37.73246526 6.5625 37.6875 C7.42552734 37.65849609 8.28855469 37.62949219 9.17773438 37.59960938 C15.44969079 37.53625628 15.44969079 37.53625628 18.0859375 39.7578125 C21.46247061 48.04041936 16.0287106 59.0268499 12.91650391 66.83056641 C0.44494869 96.35167447 -23.00857056 117.15248608 -52 130 C-54.33888257 130.82455521 -56.5789624 131.44976418 -59 132 C-58.69255859 133.19496094 -58.69255859 133.19496094 -58.37890625 134.4140625 C-57.97478516 136.00347656 -57.97478516 136.00347656 -57.5625 137.625 C-57.29566406 138.66914063 -57.02882812 139.71328125 -56.75390625 140.7890625 C-55.48681829 146.18567549 -54.85308937 151.40041727 -54.60546875 156.9375 C-54.53650391 158.24460938 -54.46753906 159.55171875 -54.39648438 160.8984375 C-54.28919337 162.95194318 -54.18728852 165.00505394 -54.10131836 167.05957031 C-54.01539823 169.06134186 -53.90443709 171.06198847 -53.79296875 173.0625 C-53.7364917 174.24972656 -53.68001465 175.43695313 -53.62182617 176.66015625 C-52.77086109 181.23071078 -50.77018499 184.5530335 -47.16015625 187.50390625 C-35.99821825 193.13683958 -23.12091638 194.99709134 -10.9609375 197.40234375 C35.45120577 206.6039537 74.97006795 223.75583124 102.11328125 264.14453125 C122.08302272 295.59202704 130.48792244 328.87801057 127.125 366 C127.00753418 367.30855957 127.00753418 367.30855957 126.88769531 368.64355469 C126.35800437 373.93031674 125.41127198 378.87672691 124 384 C124.55872803 384.03440186 125.11745605 384.06880371 125.69311523 384.10424805 C147.55992923 385.55992923 147.55992923 385.55992923 155.375 393.375 C161.0150814 402.48590073 161.1293518 410.69862293 158.875 421.125 C156.85396374 428.35518607 153.82431675 434.64640271 148 439.5 C137.70850281 444.6457486 129.35124388 443.52316013 118.5625 440.22265625 C113.26147408 438.40333485 108.1153246 436.28596924 103 434 C102.38125 434.886875 101.7625 435.77375 101.125 436.6875 C96.28553752 442.50588509 89.30240038 444.98939912 82 446 C79.93858404 446.08491355 77.87483934 446.12205483 75.81167603 446.12025452 C74.59178986 446.12162918 73.37190369 446.12300385 72.11505127 446.12442017 C70.77673315 446.12088178 69.43841528 446.11724698 68.10009766 446.11352539 C66.6805115 446.1132431 65.26092519 446.11340208 63.84133911 446.1139679 C59.99882888 446.11425422 56.15635002 446.10838413 52.31384706 446.10139394 C48.29398032 446.09513296 44.27411281 446.09455443 40.25424194 446.09336853 C32.64708507 446.09026331 25.0399426 446.08206082 17.43279207 446.07201904 C8.7701837 446.06083279 0.10757463 446.05534112 -8.55503917 446.05032361 C-26.37003427 446.03987753 -44.18501598 446.02229375 -62 446 C-63.37810761 440.2045382 -61.75518955 437.37722613 -58.99609375 432.203125 C-51.75667762 420.58605802 -41.99227566 413.04677439 -29 409 C-26.6703012 408.64214658 -24.33719336 408.3050947 -22 408 C-22.58789307 407.98018066 -23.17578613 407.96036133 -23.78149414 407.93994141 C-68.1771191 406.37278234 -68.1771191 406.37278234 -80 394 C-80.33 393.34 -80.66 392.68 -81 392 C-81.31130859 393.50626953 -81.31130859 393.50626953 -81.62890625 395.04296875 C-85.28087878 411.68246041 -92.43228197 424.98661508 -106.75 434.8125 C-121.93124194 443.26359622 -139.60286898 447.53071204 -157 446 C-158 445 -158 445 -158.3125 442.4375 C-157.4005305 432.4058355 -149.58880676 425.8871505 -143 419 C-128.17656397 403.54801827 -128.17656397 403.54801827 -121.8828125 383.69921875 C-122.30710035 375.51046332 -126.95273677 369.52508521 -131.41845703 362.93774414 C-144.86872008 343.06250935 -155.93815314 321.62195201 -161 298 C-161.14663086 297.36384766 -161.29326172 296.72769531 -161.44433594 296.07226562 C-168.44791369 265.31676933 -161.87971672 235.22665191 -149 207 C-149.63389648 206.96036133 -150.26779297 206.92072266 -150.92089844 206.87988281 C-184.70766462 204.65852259 -184.70766462 204.65852259 -195.875 192 C-199.0227694 187.55609026 -200.92483257 183.70896377 -201.9375 178.375 C-202.56597412 175.12968969 -202.77189732 174.22810268 -205.1875 171.8125 C-205.785625 171.214375 -206.38375 170.61625 -207 170 C-206.85394244 164.61893202 -204.50753984 161.72343467 -201 157.9375 C-193.96186526 149.9880347 -188.08834433 141.48920475 -182.625 132.375 C-172.43736587 116.33588723 -156.16201392 107.0249601 -139 100 C-137.93910156 99.56429687 -136.87820312 99.12859375 -135.78515625 98.6796875 C-124.91255581 94.91051935 -109.03029884 93.32323372 -98 97 C-97.814375 95.99646484 -97.814375 95.99646484 -97.625 94.97265625 C-94.22818741 79.15624761 -85.9145787 65.30203661 -77 52 C-76.58991699 51.38495605 -76.17983398 50.76991211 -75.75732422 50.13623047 C-69.86454724 41.38011128 -63.3100749 33.59892284 -56 26 C-55.35804688 25.28328125 -54.71609375 24.5665625 -54.0546875 23.828125 C-43.8725045 12.80844643 -15.62978011 -7.81489006 0 0 Z " fill="#E7E6E2" transform="translate(298,12)"/>
</svg>
